<svg xmlns="http://www.w3.org/2000/svg" viewBox="0 0 485 115" width="485" height="115">
  <!-- Left border (theme color, full height) -->
  <rect x="0" y="0" width="4" height="115" fill="#4169E1"/>

  <!-- Keyword block: "chapter" -->
  <rect x="4" y="0" width="202" height="70" fill="#4169E1"/>

  <!-- Number block -->
  <rect x="206" y="0" width="75" height="70" fill="#000000"/>

  <!-- Reading block -->
  <rect x="282" y="0" width="203" height="70" fill="#4169E1"/>

  <!-- Subtitle bar -->
  <rect x="4" y="70" width="342" height="45" fill="#FEC618"/>

  <!-- "chapter" text -->
  <g fill="#FFFFFF">
    <path d="M563 -21Q416 -21 307.0 47.5Q198 116 138.0 238.0Q78 360 78 520V562Q78 716 136.0 838.0Q194 960 303.0 1031.0Q412 1102 563 1102Q694 1102 792.5 1059.0Q891 1016 958 941L963 681H809L775 870Q741 905 690.0 926.0Q639 947 570 947Q482 947 415.5 895.0Q349 843 312.0 756.0Q275 669 275 562V520Q275 402 309.5 315.0Q344 228 408.5 180.5Q473 133 562 133Q662 133 728.0 188.0Q794 243 809 339H986L988 333Q983 240 933.0 159.0Q883 78 790.5 28.5Q698 -21 563 -21Z" transform="translate(19.00, 52.00) scale(0.023438, -0.023438)"/>
    <path d="M49 0V126L212 154V1405L49 1433V1560H409V938Q465 1016 546.0 1059.0Q627 1102 726 1102Q900 1102 996.0 998.0Q1092 894 1092 678V154L1255 126V0H732V126L895 154V680Q895 814 837.5 878.0Q780 942 666 942Q585 942 518.5 903.5Q452 865 409 799V154L572 126V0Z" transform="translate(44.01, 52.00) scale(0.023438, -0.023438)"/>
    <path d="M424 -21Q255 -21 167.0 61.5Q79 144 79 294Q79 448 205.0 541.5Q331 635 555 635H748V741Q748 839 688.5 893.0Q629 947 521 947Q453 947 403.0 930.5Q353 914 312 885L291 734H139V982Q212 1041 309.0 1071.5Q406 1102 524 1102Q721 1102 833.0 1008.0Q945 914 945 739V218Q945 197 945.5 177.0Q946 157 948 137L1053 126V0H770Q761 44 756.0 79.0Q751 114 749 149Q692 76 606.5 27.5Q521 -21 424 -21ZM453 144Q551 144 632.0 191.0Q713 238 748 304V500H548Q412 500 344.0 435.0Q276 370 276 290Q276 219 320.0 181.5Q364 144 453 144Z" transform="translate(74.83, 52.00) scale(0.023438, -0.023438)"/>
    <path d="M44 -416V-289L197 -261V927L34 955V1082H366L384 950Q438 1024 515.5 1063.0Q593 1102 695 1102Q829 1102 924.0 1029.5Q1019 957 1069.0 826.5Q1119 696 1119 521V500Q1119 344 1068.5 227.0Q1018 110 924.0 44.5Q830 -21 698 -21Q598 -21 522.5 12.5Q447 46 394 112V-261L566 -289V-416ZM637 133Q777 133 849.0 235.0Q921 337 921 500V521Q921 645 889.0 739.5Q857 834 793.5 888.0Q730 942 635 942Q551 942 491.0 904.0Q431 866 394 800V273Q431 206 490.5 169.5Q550 133 637 133Z" transform="translate(101.36, 52.00) scale(0.023438, -0.023438)"/>
    <path d="M456 -17Q336 -17 265.5 53.5Q195 124 195 279V936H24V1082H195V1343H392V1082H627V936H392V279Q392 201 423.0 164.0Q454 127 506 127Q541 127 584.0 133.5Q627 140 651 145L678 16Q635 3 572.5 -7.0Q510 -17 456 -17Z" transform="translate(129.42, 52.00) scale(0.023438, -0.023438)"/>
    <path d="M567 -21Q417 -21 306.0 47.5Q195 116 134.5 238.0Q74 360 74 520V564Q74 718 137.5 839.5Q201 961 306.5 1031.5Q412 1102 537 1102Q683 1102 781.5 1042.0Q880 982 930.0 873.5Q980 765 980 618V495H278L275 490Q277 386 311.5 305.5Q346 225 411.0 179.0Q476 133 567 133Q667 133 742.5 161.5Q818 190 873 240L950 112Q892 56 796.5 17.5Q701 -21 567 -21ZM284 649H783V675Q783 753 755.5 814.5Q728 876 673.5 911.5Q619 947 537 947Q471 947 417.0 908.5Q363 870 328.0 804.0Q293 738 282 654Z" transform="translate(146.53, 52.00) scale(0.023438, -0.023438)"/>
    <path d="M72 0V126L235 154V927L72 955V1082H411L428 944L430 925Q476 1008 543.5 1055.0Q611 1102 698 1102Q729 1102 761.5 1096.5Q794 1091 808 1086L782 903L645 911Q567 916 514.0 875.5Q461 835 432 767V154L595 126V0Z" transform="translate(171.35, 52.00) scale(0.023438, -0.023438)"/>
  </g>

  <!-- Number text -->
  <g fill="#FFFFFF">
    <path d="M121 0V126L346 154V1245L117 1241V1364L543 1456V154L767 126V0Z" transform="translate(221.36, 52.00) scale(0.023438, -0.023438)"/>
    <path d="M530 -21Q397 -21 292.5 27.5Q188 76 130.0 165.5Q72 255 75 378L78 384H266Q266 308 298.0 251.5Q330 195 389.0 164.0Q448 133 530 133Q655 133 726.0 201.0Q797 269 797 402Q797 537 734.0 601.0Q671 665 535 665H363V819H535Q623 819 675.5 848.5Q728 878 751.5 933.5Q775 989 775 1067Q775 1192 713.0 1257.0Q651 1322 530 1322Q454 1322 396.5 1291.5Q339 1261 307.5 1205.5Q276 1150 276 1075H87L85 1081Q82 1191 137.5 1281.0Q193 1371 294.5 1424.0Q396 1477 530 1477Q732 1477 852.0 1369.5Q972 1262 972 1063Q972 973 917.5 883.5Q863 794 754 747Q885 704 939.5 612.0Q994 520 994 406Q994 274 934.5 178.0Q875 82 770.5 30.5Q666 -21 530 -21Z" transform="translate(241.14, 52.00) scale(0.023438, -0.023438)"/>
  </g>

  <!-- "reading" text -->
  <g fill="#FFFFFF">
    <path d="M72 0V126L235 154V927L72 955V1082H411L428 944L430 925Q476 1008 543.5 1055.0Q611 1102 698 1102Q729 1102 761.5 1096.5Q794 1091 808 1086L782 903L645 911Q567 916 514.0 875.5Q461 835 432 767V154L595 126V0Z" transform="translate(297.07, 52.00) scale(0.023438, -0.023438)"/>
    <path d="M567 -21Q417 -21 306.0 47.5Q195 116 134.5 238.0Q74 360 74 520V564Q74 718 137.5 839.5Q201 961 306.5 1031.5Q412 1102 537 1102Q683 1102 781.5 1042.0Q880 982 930.0 873.5Q980 765 980 618V495H278L275 490Q277 386 311.5 305.5Q346 225 411.0 179.0Q476 133 567 133Q667 133 742.5 161.5Q818 190 873 240L950 112Q892 56 796.5 17.5Q701 -21 567 -21ZM284 649H783V675Q783 753 755.5 814.5Q728 876 673.5 911.5Q619 947 537 947Q471 947 417.0 908.5Q363 870 328.0 804.0Q293 738 282 654Z" transform="translate(317.08, 52.00) scale(0.023438, -0.023438)"/>
    <path d="M424 -21Q255 -21 167.0 61.5Q79 144 79 294Q79 448 205.0 541.5Q331 635 555 635H748V741Q748 839 688.5 893.0Q629 947 521 947Q453 947 403.0 930.5Q353 914 312 885L291 734H139V982Q212 1041 309.0 1071.5Q406 1102 524 1102Q721 1102 833.0 1008.0Q945 914 945 739V218Q945 197 945.5 177.0Q946 157 948 137L1053 126V0H770Q761 44 756.0 79.0Q751 114 749 149Q692 76 606.5 27.5Q521 -21 424 -21ZM453 144Q551 144 632.0 191.0Q713 238 748 304V500H548Q412 500 344.0 435.0Q276 370 276 290Q276 219 320.0 181.5Q364 144 453 144Z" transform="translate(341.90, 52.00) scale(0.023438, -0.023438)"/>
    <path d="M499 -21Q367 -21 272.5 44.5Q178 110 128.0 227.0Q78 344 78 500V521Q78 695 128.0 826.0Q178 957 273.0 1029.5Q368 1102 501 1102Q597 1102 670.5 1066.5Q744 1031 796 964V1405L633 1433V1560H796H993V154L1156 126V0H822L806 129Q753 55 676.5 17.0Q600 -21 499 -21ZM549 139Q637 139 697.0 179.0Q757 219 796 292V794Q758 862 697.0 902.0Q636 942 551 942Q457 942 396.0 888.5Q335 835 305.0 740.5Q275 646 275 521V500Q275 337 342.0 238.0Q409 139 549 139Z" transform="translate(368.44, 52.00) scale(0.023438, -0.023438)"/>
    <path d="M67 0V126L230 154V927L67 955V1082H427V154L590 126V0ZM220 1349V1560H427V1349Z" transform="translate(396.98, 52.00) scale(0.023438, -0.023438)"/>
    <path d="M74 0V126L237 154V927L74 955V1082H413L427 921Q481 1007 562.5 1054.5Q644 1102 748 1102Q923 1102 1019.0 999.5Q1115 897 1115 683V154L1278 126V0H755V126L918 154V679Q918 822 861.5 882.0Q805 942 689 942Q604 942 538.5 901.0Q473 860 434 789V154L597 126V0Z" transform="translate(412.26, 52.00) scale(0.023438, -0.023438)"/>
    <path d="M549 -437Q471 -437 380.0 -415.5Q289 -394 220 -357L271 -204Q326 -233 401.0 -252.0Q476 -271 547 -271Q679 -271 740.5 -197.0Q802 -123 802 14V117Q749 49 675.0 14.0Q601 -21 505 -21Q373 -21 277.0 44.5Q181 110 129.5 227.5Q78 345 78 500V521Q78 695 129.5 826.0Q181 957 277.0 1029.5Q373 1102 507 1102Q609 1102 686.0 1062.0Q763 1022 815 946L833 1082H999V14Q999 -126 946.5 -227.0Q894 -328 793.5 -382.5Q693 -437 549 -437ZM554 139Q643 139 703.0 179.5Q763 220 802 294V792Q764 861 703.0 901.5Q642 942 556 942Q462 942 399.5 888.0Q337 834 306.0 739.5Q275 645 275 521V500Q275 337 344.0 238.0Q413 139 554 139ZM969 921 892 1082H1133V956Z" transform="translate(443.74, 52.00) scale(0.023438, -0.023438)"/>
  </g>

  <!-- Subtitle text -->
  <g fill="#000000">
    <path d="M81 0V126L244 154V1301L81 1329V1456H604V1329L441 1301V154L604 126V0Z" transform="translate(19.00, 102.00) scale(0.012695, -0.012695)"/>
    <path d="M81 0V126L244 154V1301L81 1329V1456H244H651Q844 1456 987.5 1364.0Q1131 1272 1211.0 1111.0Q1291 950 1291 743V712Q1291 510 1214.0 348.5Q1137 187 995.5 93.5Q854 0 661 0ZM441 154H651Q789 154 888.0 229.5Q987 305 1040.5 431.5Q1094 558 1094 712V745Q1094 904 1040.5 1029.5Q987 1155 888.0 1228.0Q789 1301 651 1301H441Z" transform="translate(27.70, 102.00) scale(0.012695, -0.012695)"/>
    <path d="M606 -21Q473 -21 350.0 18.0Q227 57 115 138V449H268L301 220Q366 180 442.0 158.0Q518 136 606 136Q706 136 775.5 166.5Q845 197 882.0 251.0Q919 305 919 377Q919 444 887.0 495.0Q855 546 781.5 584.5Q708 623 581 652Q431 687 327.5 745.5Q224 804 170.5 887.5Q117 971 117 1079Q117 1193 177.5 1283.0Q238 1373 346.0 1425.0Q454 1477 598 1477Q751 1477 868.5 1430.5Q986 1384 1062 1318V1027H909L876 1235Q831 1271 764.0 1295.0Q697 1319 598 1319Q514 1319 450.0 1289.5Q386 1260 350.0 1207.0Q314 1154 314 1082Q314 1019 346.5 972.0Q379 925 452.5 889.5Q526 854 649 823Q879 766 997.5 654.5Q1116 543 1116 379Q1116 262 1053.0 171.5Q990 81 875.5 30.0Q761 -21 606 -21Z" transform="translate(44.91, 102.00) scale(0.012695, -0.012695)"/>
    <path d="M424 -21Q255 -21 167.0 61.5Q79 144 79 294Q79 448 205.0 541.5Q331 635 555 635H748V741Q748 839 688.5 893.0Q629 947 521 947Q453 947 403.0 930.5Q353 914 312 885L291 734H139V982Q212 1041 309.0 1071.5Q406 1102 524 1102Q721 1102 833.0 1008.0Q945 914 945 739V218Q945 197 945.5 177.0Q946 157 948 137L1053 126V0H770Q761 44 756.0 79.0Q751 114 749 149Q692 76 606.5 27.5Q521 -21 424 -21ZM453 144Q551 144 632.0 191.0Q713 238 748 304V500H548Q412 500 344.0 435.0Q276 370 276 290Q276 219 320.0 181.5Q364 144 453 144Z" transform="translate(65.30, 102.00) scale(0.012695, -0.012695)"/>
    <path d="M74 0V126L237 154V927L74 955V1082H413L427 921Q481 1007 562.5 1054.5Q644 1102 748 1102Q923 1102 1019.0 999.5Q1115 897 1115 683V154L1278 126V0H755V126L918 154V679Q918 822 861.5 882.0Q805 942 689 942Q604 942 538.5 901.0Q473 860 434 789V154L597 126V0Z" transform="translate(79.67, 102.00) scale(0.012695, -0.012695)"/>
    <path d="M499 -21Q367 -21 272.5 44.5Q178 110 128.0 227.0Q78 344 78 500V521Q78 695 128.0 826.0Q178 957 273.0 1029.5Q368 1102 501 1102Q597 1102 670.5 1066.5Q744 1031 796 964V1405L633 1433V1560H796H993V154L1156 126V0H822L806 129Q753 55 676.5 17.0Q600 -21 499 -21ZM549 139Q637 139 697.0 179.0Q757 219 796 292V794Q758 862 697.0 902.0Q636 942 551 942Q457 942 396.0 888.5Q335 835 305.0 740.5Q275 646 275 521V500Q275 337 342.0 238.0Q409 139 549 139Z" transform="translate(96.72, 102.00) scale(0.012695, -0.012695)"/>
    <path d="M83 0V126L246 154V1301L83 1329V1456H246H445L1159 321L1165 323V1301L986 1329V1456H1346H1509V1329L1346 1301V0H1166L433 1141L427 1139V154L606 126V0Z" transform="translate(117.26, 102.00) scale(0.012695, -0.012695)"/>
    <path d="M567 -21Q417 -21 306.0 47.5Q195 116 134.5 238.0Q74 360 74 520V564Q74 718 137.5 839.5Q201 961 306.5 1031.5Q412 1102 537 1102Q683 1102 781.5 1042.0Q880 982 930.0 873.5Q980 765 980 618V495H278L275 490Q277 386 311.5 305.5Q346 225 411.0 179.0Q476 133 567 133Q667 133 742.5 161.5Q818 190 873 240L950 112Q892 56 796.5 17.5Q701 -21 567 -21ZM284 649H783V675Q783 753 755.5 814.5Q728 876 673.5 911.5Q619 947 537 947Q471 947 417.0 908.5Q363 870 328.0 804.0Q293 738 282 654Z" transform="translate(137.47, 102.00) scale(0.012695, -0.012695)"/>
    <path d="M456 -17Q336 -17 265.5 53.5Q195 124 195 279V936H24V1082H195V1343H392V1082H627V936H392V279Q392 201 423.0 164.0Q454 127 506 127Q541 127 584.0 133.5Q627 140 651 145L678 16Q635 3 572.5 -7.0Q510 -17 456 -17Z" transform="translate(150.91, 102.00) scale(0.012695, -0.012695)"/>
    <path d="M458 0 173 941 52 955V1082H499V955L366 933L515 394L549 266H555L599 394L834 1082H1000L1224 396L1272 244H1278L1325 396L1476 934L1340 955V1082H1777V955L1657 938L1377 0H1190L971 650L919 824L913 823L862 650L627 0Z" transform="translate(160.18, 102.00) scale(0.012695, -0.012695)"/>
    <path d="M563 -21Q413 -21 304.5 49.5Q196 120 137.0 244.5Q78 369 78 529V551Q78 711 137.0 835.5Q196 960 304.5 1031.0Q413 1102 561 1102Q711 1102 819.5 1031.0Q928 960 987.0 836.0Q1046 712 1046 551V529Q1046 368 987.0 243.5Q928 119 820.0 49.0Q712 -21 563 -21ZM563 133Q657 133 720.5 184.5Q784 236 816.5 325.5Q849 415 849 529V551Q849 665 816.5 754.5Q784 844 720.0 895.5Q656 947 561 947Q467 947 403.0 895.5Q339 844 307.0 754.5Q275 665 275 551V529Q275 415 307.0 325.5Q339 236 403.5 184.5Q468 133 563 133Z" transform="translate(183.32, 102.00) scale(0.012695, -0.012695)"/>
    <path d="M72 0V126L235 154V927L72 955V1082H411L428 944L430 925Q476 1008 543.5 1055.0Q611 1102 698 1102Q729 1102 761.5 1096.5Q794 1091 808 1086L782 903L645 911Q567 916 514.0 875.5Q461 835 432 767V154L595 126V0Z" transform="translate(197.59, 102.00) scale(0.012695, -0.012695)"/>
    <path d="M64 0V126L227 154V1405L64 1433V1560H424V154L587 126V0ZM759 0V126L869 139L866 143L553 547L655 704L1092 150L1248 126V0ZM410 313 337 468 807 936 812 942 696 955V1082H1162V955L1023 929Z" transform="translate(208.43, 102.00) scale(0.012695, -0.012695)"/>
    <path d="M606 -21Q473 -21 350.0 18.0Q227 57 115 138V449H268L301 220Q366 180 442.0 158.0Q518 136 606 136Q706 136 775.5 166.5Q845 197 882.0 251.0Q919 305 919 377Q919 444 887.0 495.0Q855 546 781.5 584.5Q708 623 581 652Q431 687 327.5 745.5Q224 804 170.5 887.5Q117 971 117 1079Q117 1193 177.5 1283.0Q238 1373 346.0 1425.0Q454 1477 598 1477Q751 1477 868.5 1430.5Q986 1384 1062 1318V1027H909L876 1235Q831 1271 764.0 1295.0Q697 1319 598 1319Q514 1319 450.0 1289.5Q386 1260 350.0 1207.0Q314 1154 314 1082Q314 1019 346.5 972.0Q379 925 452.5 889.5Q526 854 649 823Q879 766 997.5 654.5Q1116 543 1116 379Q1116 262 1053.0 171.5Q990 81 875.5 30.0Q761 -21 606 -21Z" transform="translate(229.85, 102.00) scale(0.012695, -0.012695)"/>
    <path d="M567 -21Q417 -21 306.0 47.5Q195 116 134.5 238.0Q74 360 74 520V564Q74 718 137.5 839.5Q201 961 306.5 1031.5Q412 1102 537 1102Q683 1102 781.5 1042.0Q880 982 930.0 873.5Q980 765 980 618V495H278L275 490Q277 386 311.5 305.5Q346 225 411.0 179.0Q476 133 567 133Q667 133 742.5 161.5Q818 190 873 240L950 112Q892 56 796.5 17.5Q701 -21 567 -21ZM284 649H783V675Q783 753 755.5 814.5Q728 876 673.5 911.5Q619 947 537 947Q471 947 417.0 908.5Q363 870 328.0 804.0Q293 738 282 654Z" transform="translate(245.16, 102.00) scale(0.012695, -0.012695)"/>
    <path d="M563 -21Q416 -21 307.0 47.5Q198 116 138.0 238.0Q78 360 78 520V562Q78 716 136.0 838.0Q194 960 303.0 1031.0Q412 1102 563 1102Q694 1102 792.5 1059.0Q891 1016 958 941L963 681H809L775 870Q741 905 690.0 926.0Q639 947 570 947Q482 947 415.5 895.0Q349 843 312.0 756.0Q275 669 275 562V520Q275 402 309.5 315.0Q344 228 408.5 180.5Q473 133 562 133Q662 133 728.0 188.0Q794 243 809 339H986L988 333Q983 240 933.0 159.0Q883 78 790.5 28.5Q698 -21 563 -21Z" transform="translate(258.61, 102.00) scale(0.012695, -0.012695)"/>
    <path d="M550 -21Q374 -21 275.0 92.0Q176 205 176 444V927L52 955V1082H176H373V442Q373 269 424.0 204.0Q475 139 583 139Q688 139 756.5 181.5Q825 224 860 302V927L715 955V1082H860H1057V154L1181 126V0H880L867 160Q816 73 735.5 26.0Q655 -21 550 -21Z" transform="translate(272.15, 102.00) scale(0.012695, -0.012695)"/>
    <path d="M72 0V126L235 154V927L72 955V1082H411L428 944L430 925Q476 1008 543.5 1055.0Q611 1102 698 1102Q729 1102 761.5 1096.5Q794 1091 808 1086L782 903L645 911Q567 916 514.0 875.5Q461 835 432 767V154L595 126V0Z" transform="translate(287.96, 102.00) scale(0.012695, -0.012695)"/>
    <path d="M67 0V126L230 154V927L67 955V1082H427V154L590 126V0ZM220 1349V1560H427V1349Z" transform="translate(298.80, 102.00) scale(0.012695, -0.012695)"/>
    <path d="M456 -17Q336 -17 265.5 53.5Q195 124 195 279V936H24V1082H195V1343H392V1082H627V936H392V279Q392 201 423.0 164.0Q454 127 506 127Q541 127 584.0 133.5Q627 140 651 145L678 16Q635 3 572.5 -7.0Q510 -17 456 -17Z" transform="translate(307.07, 102.00) scale(0.012695, -0.012695)"/>
    <path d="M309 -437Q286 -437 249.0 -431.5Q212 -426 192 -421L212 -266Q229 -268 259.0 -269.5Q289 -271 300 -271Q363 -271 402.5 -223.0Q442 -175 476 -92L523 22L140 939L24 955V1082H478V955L347 935L558 394L609 253H615L865 935L727 955V1082H1172V955L1060 939L634 -166Q604 -244 561.5 -305.5Q519 -367 457.5 -402.0Q396 -437 309 -437Z" transform="translate(316.34, 102.00) scale(0.012695, -0.012695)"/>
  </g>
</svg>