<svg xmlns="http://www.w3.org/2000/svg" viewBox="0 0 399 115" width="399" height="115">
  <!-- Left border (theme color, full height) -->
  <rect x="0" y="0" width="4" height="115" fill="#FEC618"/>
  
  <!-- Keyword block -->
  <rect x="4" y="0" width="206" height="70" fill="#FEC618"/>
  
  <!-- Secondary block -->
  <rect x="210" y="0" width="120" height="70" fill="#000000"/>
  
  <!-- Subtitle bar (only as wide as needed) -->
  <rect x="4" y="70" width="385" height="45" fill="#FEC618"/>
  
  <!-- Keyword text -->
  <g fill="#FFFFFF">
    <path d="M549 -437Q471 -437 380.0 -415.5Q289 -394 220 -357L271 -204Q326 -233 401.0 -252.0Q476 -271 547 -271Q679 -271 740.5 -197.0Q802 -123 802 14V117Q749 49 675.0 14.0Q601 -21 505 -21Q373 -21 277.0 44.5Q181 110 129.5 227.5Q78 345 78 500V521Q78 695 129.5 826.0Q181 957 277.0 1029.5Q373 1102 507 1102Q609 1102 686.0 1062.0Q763 1022 815 946L833 1082H999V14Q999 -126 946.5 -227.0Q894 -328 793.5 -382.5Q693 -437 549 -437ZM554 139Q643 139 703.0 179.5Q763 220 802 294V792Q764 861 703.0 901.5Q642 942 556 942Q462 942 399.5 888.0Q337 834 306.0 739.5Q275 645 275 521V500Q275 337 344.0 238.0Q413 139 554 139ZM969 921 892 1082H1133V956Z" transform="translate(19.00, 52.00) scale(0.023438, -0.023438)"/>
    <path d="M72 0V126L235 154V927L72 955V1082H411L428 944L430 925Q476 1008 543.5 1055.0Q611 1102 698 1102Q729 1102 761.5 1096.5Q794 1091 808 1086L782 903L645 911Q567 916 514.0 875.5Q461 835 432 767V154L595 126V0Z" transform="translate(46.12, 52.00) scale(0.023438, -0.023438)"/>
    <path d="M424 -21Q255 -21 167.0 61.5Q79 144 79 294Q79 448 205.0 541.5Q331 635 555 635H748V741Q748 839 688.5 893.0Q629 947 521 947Q453 947 403.0 930.5Q353 914 312 885L291 734H139V982Q212 1041 309.0 1071.5Q406 1102 524 1102Q721 1102 833.0 1008.0Q945 914 945 739V218Q945 197 945.5 177.0Q946 157 948 137L1053 126V0H770Q761 44 756.0 79.0Q751 114 749 149Q692 76 606.5 27.5Q521 -21 424 -21ZM453 144Q551 144 632.0 191.0Q713 238 748 304V500H548Q412 500 344.0 435.0Q276 370 276 290Q276 219 320.0 181.5Q364 144 453 144Z" transform="translate(66.13, 52.00) scale(0.023438, -0.023438)"/>
    <path d="M499 -21Q367 -21 272.5 44.5Q178 110 128.0 227.0Q78 344 78 500V521Q78 695 128.0 826.0Q178 957 273.0 1029.5Q368 1102 501 1102Q597 1102 670.5 1066.5Q744 1031 796 964V1405L633 1433V1560H796H993V154L1156 126V0H822L806 129Q753 55 676.5 17.0Q600 -21 499 -21ZM549 139Q637 139 697.0 179.0Q757 219 796 292V794Q758 862 697.0 902.0Q636 942 551 942Q457 942 396.0 888.5Q335 835 305.0 740.5Q275 646 275 521V500Q275 337 342.0 238.0Q409 139 549 139Z" transform="translate(92.67, 52.00) scale(0.023438, -0.023438)"/>
    <path d="M67 0V126L230 154V927L67 955V1082H427V154L590 126V0ZM220 1349V1560H427V1349Z" transform="translate(121.21, 52.00) scale(0.023438, -0.023438)"/>
    <path d="M74 0V126L237 154V927L74 955V1082H413L427 921Q481 1007 562.5 1054.5Q644 1102 748 1102Q923 1102 1019.0 999.5Q1115 897 1115 683V154L1278 126V0H755V126L918 154V679Q918 822 861.5 882.0Q805 942 689 942Q604 942 538.5 901.0Q473 860 434 789V154L597 126V0Z" transform="translate(136.49, 52.00) scale(0.023438, -0.023438)"/>
    <path d="M549 -437Q471 -437 380.0 -415.5Q289 -394 220 -357L271 -204Q326 -233 401.0 -252.0Q476 -271 547 -271Q679 -271 740.5 -197.0Q802 -123 802 14V117Q749 49 675.0 14.0Q601 -21 505 -21Q373 -21 277.0 44.5Q181 110 129.5 227.5Q78 345 78 500V521Q78 695 129.5 826.0Q181 957 277.0 1029.5Q373 1102 507 1102Q609 1102 686.0 1062.0Q763 1022 815 946L833 1082H999V14Q999 -126 946.5 -227.0Q894 -328 793.5 -382.5Q693 -437 549 -437ZM554 139Q643 139 703.0 179.5Q763 220 802 294V792Q764 861 703.0 901.5Q642 942 556 942Q462 942 399.5 888.0Q337 834 306.0 739.5Q275 645 275 521V500Q275 337 344.0 238.0Q413 139 554 139ZM969 921 892 1082H1133V956Z" transform="translate(167.97, 52.00) scale(0.023438, -0.023438)"/>
  </g>
  
  <!-- Secondary text -->
  <g fill="#FFFFFF">
    <path d="M67 0V126L230 154V927L67 955V1082H427V154L590 126V0ZM220 1349V1560H427V1349Z" transform="translate(225.00, 52.00) scale(0.023438, -0.023438)"/>
    <path d="M74 0V126L237 154V927L74 955V1082H413L427 921Q481 1007 562.5 1054.5Q644 1102 748 1102Q923 1102 1019.0 999.5Q1115 897 1115 683V154L1278 126V0H755V126L918 154V679Q918 822 861.5 882.0Q805 942 689 942Q604 942 538.5 901.0Q473 860 434 789V154L597 126V0Z" transform="translate(240.28, 52.00) scale(0.023438, -0.023438)"/>
    <path d="M70 0V126L233 154V936H64V1082H233V1219Q233 1392 323.5 1486.5Q414 1581 576 1581Q610 1581 649.5 1575.5Q689 1570 731 1560L707 1410Q689 1414 658.5 1417.0Q628 1420 601 1420Q514 1420 472.0 1368.5Q430 1317 430 1219V1082H666V936H430V154L616 126V0Z" transform="translate(271.76, 52.00) scale(0.023438, -0.023438)"/>
    <path d="M563 -21Q413 -21 304.5 49.5Q196 120 137.0 244.5Q78 369 78 529V551Q78 711 137.0 835.5Q196 960 304.5 1031.0Q413 1102 561 1102Q711 1102 819.5 1031.0Q928 960 987.0 836.0Q1046 712 1046 551V529Q1046 368 987.0 243.5Q928 119 820.0 49.0Q712 -21 563 -21ZM563 133Q657 133 720.5 184.5Q784 236 816.5 325.5Q849 415 849 529V551Q849 665 816.5 754.5Q784 844 720.0 895.5Q656 947 561 947Q467 947 403.0 895.5Q339 844 307.0 754.5Q275 665 275 551V529Q275 415 307.0 325.5Q339 236 403.5 184.5Q468 133 563 133Z" transform="translate(288.75, 52.00) scale(0.023438, -0.023438)"/>
  </g>
  
  <!-- Subtitle text -->
  <g fill="#000000">
    <path d="M81 0V126L244 154V1301L81 1329V1456H604V1329L441 1301V798H1137V1301L974 1329V1456H1137H1334H1497V1329L1334 1301V154L1497 126V0H974V126L1137 154V643H441V154L604 126V0Z" transform="translate(19.00, 102.00) scale(0.012695, -0.012695)"/>
    <path d="M563 -21Q413 -21 304.5 49.5Q196 120 137.0 244.5Q78 369 78 529V551Q78 711 137.0 835.5Q196 960 304.5 1031.0Q413 1102 561 1102Q711 1102 819.5 1031.0Q928 960 987.0 836.0Q1046 712 1046 551V529Q1046 368 987.0 243.5Q928 119 820.0 49.0Q712 -21 563 -21ZM563 133Q657 133 720.5 184.5Q784 236 816.5 325.5Q849 415 849 529V551Q849 665 816.5 754.5Q784 844 720.0 895.5Q656 947 561 947Q467 947 403.0 895.5Q339 844 307.0 754.5Q275 665 275 551V529Q275 415 307.0 325.5Q339 236 403.5 184.5Q468 133 563 133Z" transform="translate(39.03, 102.00) scale(0.012695, -0.012695)"/>
    <path d="M458 0 173 941 52 955V1082H499V955L366 933L515 394L549 266H555L599 394L834 1082H1000L1224 396L1272 244H1278L1325 396L1476 934L1340 955V1082H1777V955L1657 938L1377 0H1190L971 650L919 824L913 823L862 650L627 0Z" transform="translate(53.30, 102.00) scale(0.012695, -0.012695)"/>
    <path d="M470 0V126L633 154V530L185 1310L65 1329V1456H567V1329L401 1310L710 738L731 699L732 701L752 738L1076 1310L904 1329V1456H1396V1329L1269 1310L829 545V154L992 126V0Z" transform="translate(82.94, 102.00) scale(0.012695, -0.012695)"/>
    <path d="M563 -21Q413 -21 304.5 49.5Q196 120 137.0 244.5Q78 369 78 529V551Q78 711 137.0 835.5Q196 960 304.5 1031.0Q413 1102 561 1102Q711 1102 819.5 1031.0Q928 960 987.0 836.0Q1046 712 1046 551V529Q1046 368 987.0 243.5Q928 119 820.0 49.0Q712 -21 563 -21ZM563 133Q657 133 720.5 184.5Q784 236 816.5 325.5Q849 415 849 529V551Q849 665 816.5 754.5Q784 844 720.0 895.5Q656 947 561 947Q467 947 403.0 895.5Q339 844 307.0 754.5Q275 665 275 551V529Q275 415 307.0 325.5Q339 236 403.5 184.5Q468 133 563 133Z" transform="translate(101.49, 102.00) scale(0.012695, -0.012695)"/>
    <path d="M550 -21Q374 -21 275.0 92.0Q176 205 176 444V927L52 955V1082H176H373V442Q373 269 424.0 204.0Q475 139 583 139Q688 139 756.5 181.5Q825 224 860 302V927L715 955V1082H860H1057V154L1181 126V0H880L867 160Q816 73 735.5 26.0Q655 -21 550 -21Z" transform="translate(115.76, 102.00) scale(0.012695, -0.012695)"/>
    <path d="M72 0V126L235 154V927L72 955V1082H411L428 944L430 925Q476 1008 543.5 1055.0Q611 1102 698 1102Q729 1102 761.5 1096.5Q794 1091 808 1086L782 903L645 911Q567 916 514.0 875.5Q461 835 432 767V154L595 126V0Z" transform="translate(131.57, 102.00) scale(0.012695, -0.012695)"/>
    <path d="M535 0 195 1314 72 1329V1456H544V1329L393 1306L583 505L627 318L633 317L691 504L984 1456H1157L1453 504L1510 306H1516L1568 504L1756 1306L1593 1329V1456H2057V1329L1942 1314L1616 0H1429L1113 1008L1073 1155H1067L1028 1008L711 0Z" transform="translate(148.91, 102.00) scale(0.012695, -0.012695)"/>
    <path d="M563 -21Q413 -21 304.5 49.5Q196 120 137.0 244.5Q78 369 78 529V551Q78 711 137.0 835.5Q196 960 304.5 1031.0Q413 1102 561 1102Q711 1102 819.5 1031.0Q928 960 987.0 836.0Q1046 712 1046 551V529Q1046 368 987.0 243.5Q928 119 820.0 49.0Q712 -21 563 -21ZM563 133Q657 133 720.5 184.5Q784 236 816.5 325.5Q849 415 849 529V551Q849 665 816.5 754.5Q784 844 720.0 895.5Q656 947 561 947Q467 947 403.0 895.5Q339 844 307.0 754.5Q275 665 275 551V529Q275 415 307.0 325.5Q339 236 403.5 184.5Q468 133 563 133Z" transform="translate(175.94, 102.00) scale(0.012695, -0.012695)"/>
    <path d="M72 0V126L235 154V927L72 955V1082H411L428 944L430 925Q476 1008 543.5 1055.0Q611 1102 698 1102Q729 1102 761.5 1096.5Q794 1091 808 1086L782 903L645 911Q567 916 514.0 875.5Q461 835 432 767V154L595 126V0Z" transform="translate(190.20, 102.00) scale(0.012695, -0.012695)"/>
    <path d="M64 0V126L227 154V1405L64 1433V1560H424V154L587 126V0ZM759 0V126L869 139L866 143L553 547L655 704L1092 150L1248 126V0ZM410 313 337 468 807 936 812 942 696 955V1082H1162V955L1023 929Z" transform="translate(201.05, 102.00) scale(0.012695, -0.012695)"/>
    <path d="M81 0V126L244 154V1301L81 1329V1456H604V1329L441 1301V154L604 126V0Z" transform="translate(223.88, 102.00) scale(0.012695, -0.012695)"/>
    <path d="M512 -21Q403 -21 308.0 1.0Q213 23 106 69L104 326H253L290 171Q346 148 398.5 137.5Q451 127 512 127Q632 127 684.0 173.0Q736 219 736 287Q736 351 683.5 395.5Q631 440 493 471Q297 516 204.5 591.5Q112 667 112 793Q112 881 163.0 950.5Q214 1020 305.0 1061.0Q396 1102 517 1102Q640 1102 727.5 1074.0Q815 1046 880 999L890 752H742L710 896Q675 922 627.0 936.0Q579 950 517 950Q425 950 367.5 907.0Q310 864 310 799Q310 761 326.5 733.0Q343 705 390.0 682.5Q437 660 528 638Q754 585 843.5 503.0Q933 421 933 301Q933 164 831.5 71.5Q730 -21 512 -21Z" transform="translate(232.58, 102.00) scale(0.012695, -0.012695)"/>
    <path d="M81 0V126L244 154V1301L81 1329V1456H1159V1106H1001L979 1304H441V830H978V675H441V148H1011L1033 349H1190V0Z" transform="translate(252.05, 102.00) scale(0.012695, -0.012695)"/>
    <path d="M523 0 138 940 26 955V1082H480V955L339 935L579 319L607 232H613L645 319L868 935L723 955V1082H1176V955L1062 940L696 0Z" transform="translate(268.63, 102.00) scale(0.012695, -0.012695)"/>
    <path d="M424 -21Q255 -21 167.0 61.5Q79 144 79 294Q79 448 205.0 541.5Q331 635 555 635H748V741Q748 839 688.5 893.0Q629 947 521 947Q453 947 403.0 930.5Q353 914 312 885L291 734H139V982Q212 1041 309.0 1071.5Q406 1102 524 1102Q721 1102 833.0 1008.0Q945 914 945 739V218Q945 197 945.5 177.0Q946 157 948 137L1053 126V0H770Q761 44 756.0 79.0Q751 114 749 149Q692 76 606.5 27.5Q521 -21 424 -21ZM453 144Q551 144 632.0 191.0Q713 238 748 304V500H548Q412 500 344.0 435.0Q276 370 276 290Q276 219 320.0 181.5Q364 144 453 144Z" transform="translate(283.94, 102.00) scale(0.012695, -0.012695)"/>
    <path d="M64 0V126L227 154V1405L64 1433V1560H424V154L587 126V0Z" transform="translate(298.32, 102.00) scale(0.012695, -0.012695)"/>
    <path d="M550 -21Q374 -21 275.0 92.0Q176 205 176 444V927L52 955V1082H176H373V442Q373 269 424.0 204.0Q475 139 583 139Q688 139 756.5 181.5Q825 224 860 302V927L715 955V1082H860H1057V154L1181 126V0H880L867 160Q816 73 735.5 26.0Q655 -21 550 -21Z" transform="translate(306.61, 102.00) scale(0.012695, -0.012695)"/>
    <path d="M424 -21Q255 -21 167.0 61.5Q79 144 79 294Q79 448 205.0 541.5Q331 635 555 635H748V741Q748 839 688.5 893.0Q629 947 521 947Q453 947 403.0 930.5Q353 914 312 885L291 734H139V982Q212 1041 309.0 1071.5Q406 1102 524 1102Q721 1102 833.0 1008.0Q945 914 945 739V218Q945 197 945.5 177.0Q946 157 948 137L1053 126V0H770Q761 44 756.0 79.0Q751 114 749 149Q692 76 606.5 27.5Q521 -21 424 -21ZM453 144Q551 144 632.0 191.0Q713 238 748 304V500H548Q412 500 344.0 435.0Q276 370 276 290Q276 219 320.0 181.5Q364 144 453 144Z" transform="translate(322.41, 102.00) scale(0.012695, -0.012695)"/>
    <path d="M456 -17Q336 -17 265.5 53.5Q195 124 195 279V936H24V1082H195V1343H392V1082H627V936H392V279Q392 201 423.0 164.0Q454 127 506 127Q541 127 584.0 133.5Q627 140 651 145L678 16Q635 3 572.5 -7.0Q510 -17 456 -17Z" transform="translate(336.78, 102.00) scale(0.012695, -0.012695)"/>
    <path d="M567 -21Q417 -21 306.0 47.5Q195 116 134.5 238.0Q74 360 74 520V564Q74 718 137.5 839.5Q201 961 306.5 1031.5Q412 1102 537 1102Q683 1102 781.5 1042.0Q880 982 930.0 873.5Q980 765 980 618V495H278L275 490Q277 386 311.5 305.5Q346 225 411.0 179.0Q476 133 567 133Q667 133 742.5 161.5Q818 190 873 240L950 112Q892 56 796.5 17.5Q701 -21 567 -21ZM284 649H783V675Q783 753 755.5 814.5Q728 876 673.5 911.5Q619 947 537 947Q471 947 417.0 908.5Q363 870 328.0 804.0Q293 738 282 654Z" transform="translate(346.05, 102.00) scale(0.012695, -0.012695)"/>
    <path d="M499 -21Q367 -21 272.5 44.5Q178 110 128.0 227.0Q78 344 78 500V521Q78 695 128.0 826.0Q178 957 273.0 1029.5Q368 1102 501 1102Q597 1102 670.5 1066.5Q744 1031 796 964V1405L633 1433V1560H796H993V154L1156 126V0H822L806 129Q753 55 676.5 17.0Q600 -21 499 -21ZM549 139Q637 139 697.0 179.0Q757 219 796 292V794Q758 862 697.0 902.0Q636 942 551 942Q457 942 396.0 888.5Q335 835 305.0 740.5Q275 646 275 521V500Q275 337 342.0 238.0Q409 139 549 139Z" transform="translate(359.49, 102.00) scale(0.012695, -0.012695)"/>
  </g>
</svg>