<svg xmlns="http://www.w3.org/2000/svg" viewBox="0 0 523 115" width="523" height="115">
  <!-- Left border (theme color, full height) -->
  <rect x="0" y="0" width="4" height="115" fill="#FF2641"/>
  
  <!-- Keyword block "important" -->
  <rect x="4" y="0" width="302" height="70" fill="#000000"/>
  
  <!-- Secondary block "notice" -->
  <rect x="306" y="0" width="197" height="70" fill="#FF2641"/>
  
  <!-- Subtitle bar -->
  <rect x="4" y="70" width="519" height="45" fill="#FF2641"/>
  
  <!-- Keyword text -->
  <g fill="#FFFFFF">
    <path d="M67 0V126L230 154V927L67 955V1082H427V154L590 126V0ZM220 1349V1560H427V1349Z" transform="translate(20.00, 52.00) scale(0.028000, -0.028000)"/>
    <path d="M74 0V126L237 154V927L74 955V1082H414L427 941Q479 1018 561.0 1060.0Q643 1102 751 1102Q859 1102 936.5 1052.0Q1014 1002 1053 902Q1104 994 1188.0 1048.0Q1272 1102 1384 1102Q1550 1102 1646.0 988.5Q1742 875 1742 647V154L1905 126V0H1381V126L1544 154V649Q1544 809 1489.0 875.5Q1434 942 1326 942Q1223 942 1160.5 869.5Q1098 797 1088 687V154L1251 126V0H728V126L891 154V649Q891 801 834.5 871.5Q778 942 671 942Q581 942 523.0 905.0Q465 868 434 801V154L597 126V0Z" transform="translate(38.26, 52.00) scale(0.028000, -0.028000)"/>
    <path d="M44 -416V-289L197 -261V927L34 955V1082H366L384 950Q438 1024 515.5 1063.0Q593 1102 695 1102Q829 1102 924.0 1029.5Q1019 957 1069.0 826.5Q1119 696 1119 521V500Q1119 344 1068.5 227.0Q1018 110 924.0 44.5Q830 -21 698 -21Q598 -21 522.5 12.5Q447 46 394 112V-261L566 -289V-416ZM637 133Q777 133 849.0 235.0Q921 337 921 500V521Q921 645 889.0 739.5Q857 834 793.5 888.0Q730 942 635 942Q551 942 491.0 904.0Q431 866 394 800V273Q431 206 490.5 169.5Q550 133 637 133Z" transform="translate(93.61, 52.00) scale(0.028000, -0.028000)"/>
    <path d="M563 -21Q413 -21 304.5 49.5Q196 120 137.0 244.5Q78 369 78 529V551Q78 711 137.0 835.5Q196 960 304.5 1031.0Q413 1102 561 1102Q711 1102 819.5 1031.0Q928 960 987.0 836.0Q1046 712 1046 551V529Q1046 368 987.0 243.5Q928 119 820.0 49.0Q712 -21 563 -21ZM563 133Q657 133 720.5 184.5Q784 236 816.5 325.5Q849 415 849 529V551Q849 665 816.5 754.5Q784 844 720.0 895.5Q656 947 561 947Q467 947 403.0 895.5Q339 844 307.0 754.5Q275 665 275 551V529Q275 415 307.0 325.5Q339 236 403.5 184.5Q468 133 563 133Z" transform="translate(127.13, 52.00) scale(0.028000, -0.028000)"/>
    <path d="M72 0V126L235 154V927L72 955V1082H411L428 944L430 925Q476 1008 543.5 1055.0Q611 1102 698 1102Q729 1102 761.5 1096.5Q794 1091 808 1086L782 903L645 911Q567 916 514.0 875.5Q461 835 432 767V154L595 126V0Z" transform="translate(158.60, 52.00) scale(0.028000, -0.028000)"/>
    <path d="M456 -17Q336 -17 265.5 53.5Q195 124 195 279V936H24V1082H195V1343H392V1082H627V936H392V279Q392 201 423.0 164.0Q454 127 506 127Q541 127 584.0 133.5Q627 140 651 145L678 16Q635 3 572.5 -7.0Q510 -17 456 -17Z" transform="translate(182.51, 52.00) scale(0.028000, -0.028000)"/>
    <path d="M424 -21Q255 -21 167.0 61.5Q79 144 79 294Q79 448 205.0 541.5Q331 635 555 635H748V741Q748 839 688.5 893.0Q629 947 521 947Q453 947 403.0 930.5Q353 914 312 885L291 734H139V982Q212 1041 309.0 1071.5Q406 1102 524 1102Q721 1102 833.0 1008.0Q945 914 945 739V218Q945 197 945.5 177.0Q946 157 948 137L1053 126V0H770Q761 44 756.0 79.0Q751 114 749 149Q692 76 606.5 27.5Q521 -21 424 -21ZM453 144Q551 144 632.0 191.0Q713 238 748 304V500H548Q412 500 344.0 435.0Q276 370 276 290Q276 219 320.0 181.5Q364 144 453 144Z" transform="translate(202.95, 52.00) scale(0.028000, -0.028000)"/>
    <path d="M74 0V126L237 154V927L74 955V1082H413L427 921Q481 1007 562.5 1054.5Q644 1102 748 1102Q923 1102 1019.0 999.5Q1115 897 1115 683V154L1278 126V0H755V126L918 154V679Q918 822 861.5 882.0Q805 942 689 942Q604 942 538.5 901.0Q473 860 434 789V154L597 126V0Z" transform="translate(234.65, 52.00) scale(0.028000, -0.028000)"/>
    <path d="M456 -17Q336 -17 265.5 53.5Q195 124 195 279V936H24V1082H195V1343H392V1082H627V936H392V279Q392 201 423.0 164.0Q454 127 506 127Q541 127 584.0 133.5Q627 140 651 145L678 16Q635 3 572.5 -7.0Q510 -17 456 -17Z" transform="translate(272.25, 52.00) scale(0.028000, -0.028000)"/>
  </g>
  
  <!-- Secondary text -->
  <g fill="#FFFFFF">
    <path d="M74 0V126L237 154V927L74 955V1082H413L427 921Q481 1007 562.5 1054.5Q644 1102 748 1102Q923 1102 1019.0 999.5Q1115 897 1115 683V154L1278 126V0H755V126L918 154V679Q918 822 861.5 882.0Q805 942 689 942Q604 942 538.5 901.0Q473 860 434 789V154L597 126V0Z" transform="translate(318.00, 52.00) scale(0.028000, -0.028000)"/>
    <path d="M563 -21Q413 -21 304.5 49.5Q196 120 137.0 244.5Q78 369 78 529V551Q78 711 137.0 835.5Q196 960 304.5 1031.0Q413 1102 561 1102Q711 1102 819.5 1031.0Q928 960 987.0 836.0Q1046 712 1046 551V529Q1046 368 987.0 243.5Q928 119 820.0 49.0Q712 -21 563 -21ZM563 133Q657 133 720.5 184.5Q784 236 816.5 325.5Q849 415 849 529V551Q849 665 816.5 754.5Q784 844 720.0 895.5Q656 947 561 947Q467 947 403.0 895.5Q339 844 307.0 754.5Q275 665 275 551V529Q275 415 307.0 325.5Q339 236 403.5 184.5Q468 133 563 133Z" transform="translate(355.60, 52.00) scale(0.028000, -0.028000)"/>
    <path d="M456 -17Q336 -17 265.5 53.5Q195 124 195 279V936H24V1082H195V1343H392V1082H627V936H392V279Q392 201 423.0 164.0Q454 127 506 127Q541 127 584.0 133.5Q627 140 651 145L678 16Q635 3 572.5 -7.0Q510 -17 456 -17Z" transform="translate(387.08, 52.00) scale(0.028000, -0.028000)"/>
    <path d="M67 0V126L230 154V927L67 955V1082H427V154L590 126V0ZM220 1349V1560H427V1349Z" transform="translate(407.52, 52.00) scale(0.028000, -0.028000)"/>
    <path d="M563 -21Q416 -21 307.0 47.5Q198 116 138.0 238.0Q78 360 78 520V562Q78 716 136.0 838.0Q194 960 303.0 1031.0Q412 1102 563 1102Q694 1102 792.5 1059.0Q891 1016 958 941L963 681H809L775 870Q741 905 690.0 926.0Q639 947 570 947Q482 947 415.5 895.0Q349 843 312.0 756.0Q275 669 275 562V520Q275 402 309.5 315.0Q344 228 408.5 180.5Q473 133 562 133Q662 133 728.0 188.0Q794 243 809 339H986L988 333Q983 240 933.0 159.0Q883 78 790.5 28.5Q698 -21 563 -21Z" transform="translate(425.77, 52.00) scale(0.028000, -0.028000)"/>
    <path d="M567 -21Q417 -21 306.0 47.5Q195 116 134.5 238.0Q74 360 74 520V564Q74 718 137.5 839.5Q201 961 306.5 1031.5Q412 1102 537 1102Q683 1102 781.5 1042.0Q880 982 930.0 873.5Q980 765 980 618V495H278L275 490Q277 386 311.5 305.5Q346 225 411.0 179.0Q476 133 567 133Q667 133 742.5 161.5Q818 190 873 240L950 112Q892 56 796.5 17.5Q701 -21 567 -21ZM284 649H783V675Q783 753 755.5 814.5Q728 876 673.5 911.5Q619 947 537 947Q471 947 417.0 908.5Q363 870 328.0 804.0Q293 738 282 654Z" transform="translate(455.65, 52.00) scale(0.028000, -0.028000)"/>
  </g>
  
  <!-- Subtitle text -->
  <g fill="#FFFFFF">
    <path d="M606 -21Q473 -21 350.0 18.0Q227 57 115 138V449H268L301 220Q366 180 442.0 158.0Q518 136 606 136Q706 136 775.5 166.5Q845 197 882.0 251.0Q919 305 919 377Q919 444 887.0 495.0Q855 546 781.5 584.5Q708 623 581 652Q431 687 327.5 745.5Q224 804 170.5 887.5Q117 971 117 1079Q117 1193 177.5 1283.0Q238 1373 346.0 1425.0Q454 1477 598 1477Q751 1477 868.5 1430.5Q986 1384 1062 1318V1027H909L876 1235Q831 1271 764.0 1295.0Q697 1319 598 1319Q514 1319 450.0 1289.5Q386 1260 350.0 1207.0Q314 1154 314 1082Q314 1019 346.5 972.0Q379 925 452.5 889.5Q526 854 649 823Q879 766 997.5 654.5Q1116 543 1116 379Q1116 262 1053.0 171.5Q990 81 875.5 30.0Q761 -21 606 -21Z" transform="translate(20.00, 102.00) scale(0.015500, -0.015500)"/>
    <path d="M550 -21Q374 -21 275.0 92.0Q176 205 176 444V927L52 955V1082H176H373V442Q373 269 424.0 204.0Q475 139 583 139Q688 139 756.5 181.5Q825 224 860 302V927L715 955V1082H860H1057V154L1181 126V0H880L867 160Q816 73 735.5 26.0Q655 -21 550 -21Z" transform="translate(38.69, 102.00) scale(0.015500, -0.015500)"/>
    <path d="M649 -21Q543 -21 465.0 19.5Q387 60 335 139L317 0H147V1405L-16 1433V1560H344V954Q395 1026 470.5 1064.0Q546 1102 647 1102Q781 1102 875.5 1029.5Q970 957 1020.5 826.0Q1071 695 1071 521V500Q1071 344 1020.5 227.0Q970 110 875.5 44.5Q781 -21 649 -21ZM599 139Q738 139 805.5 238.0Q873 337 873 500V521Q873 646 843.0 740.5Q813 835 752.0 888.5Q691 942 597 942Q506 942 443.5 898.0Q381 854 344 780V302Q381 227 444.5 183.0Q508 139 599 139Z" transform="translate(57.99, 102.00) scale(0.015500, -0.015500)"/>
    <path d="M74 0V126L237 154V927L74 955V1082H414L427 941Q479 1018 561.0 1060.0Q643 1102 751 1102Q859 1102 936.5 1052.0Q1014 1002 1053 902Q1104 994 1188.0 1048.0Q1272 1102 1384 1102Q1550 1102 1646.0 988.5Q1742 875 1742 647V154L1905 126V0H1381V126L1544 154V649Q1544 809 1489.0 875.5Q1434 942 1326 942Q1223 942 1160.5 869.5Q1098 797 1088 687V154L1251 126V0H728V126L891 154V649Q891 801 834.5 871.5Q778 942 671 942Q581 942 523.0 905.0Q465 868 434 801V154L597 126V0Z" transform="translate(75.74, 102.00) scale(0.015500, -0.015500)"/>
    <path d="M67 0V126L230 154V927L67 955V1082H427V154L590 126V0ZM220 1349V1560H427V1349Z" transform="translate(106.38, 102.00) scale(0.015500, -0.015500)"/>
    <path d="M512 -21Q403 -21 308.0 1.0Q213 23 106 69L104 326H253L290 171Q346 148 398.5 137.5Q451 127 512 127Q632 127 684.0 173.0Q736 219 736 287Q736 351 683.5 395.5Q631 440 493 471Q297 516 204.5 591.5Q112 667 112 793Q112 881 163.0 950.5Q214 1020 305.0 1061.0Q396 1102 517 1102Q640 1102 727.5 1074.0Q815 1046 880 999L890 752H742L710 896Q675 922 627.0 936.0Q579 950 517 950Q425 950 367.5 907.0Q310 864 310 799Q310 761 326.5 733.0Q343 705 390.0 682.5Q437 660 528 638Q754 585 843.5 503.0Q933 421 933 301Q933 164 831.5 71.5Q730 -21 512 -21Z" transform="translate(116.49, 102.00) scale(0.015500, -0.015500)"/>
    <path d="M512 -21Q403 -21 308.0 1.0Q213 23 106 69L104 326H253L290 171Q346 148 398.5 137.5Q451 127 512 127Q632 127 684.0 173.0Q736 219 736 287Q736 351 683.5 395.5Q631 440 493 471Q297 516 204.5 591.5Q112 667 112 793Q112 881 163.0 950.5Q214 1020 305.0 1061.0Q396 1102 517 1102Q640 1102 727.5 1074.0Q815 1046 880 999L890 752H742L710 896Q675 922 627.0 936.0Q579 950 517 950Q425 950 367.5 907.0Q310 864 310 799Q310 761 326.5 733.0Q343 705 390.0 682.5Q437 660 528 638Q754 585 843.5 503.0Q933 421 933 301Q933 164 831.5 71.5Q730 -21 512 -21Z" transform="translate(132.33, 102.00) scale(0.015500, -0.015500)"/>
    <path d="M67 0V126L230 154V927L67 955V1082H427V154L590 126V0ZM220 1349V1560H427V1349Z" transform="translate(148.17, 102.00) scale(0.015500, -0.015500)"/>
    <path d="M563 -21Q413 -21 304.5 49.5Q196 120 137.0 244.5Q78 369 78 529V551Q78 711 137.0 835.5Q196 960 304.5 1031.0Q413 1102 561 1102Q711 1102 819.5 1031.0Q928 960 987.0 836.0Q1046 712 1046 551V529Q1046 368 987.0 243.5Q928 119 820.0 49.0Q712 -21 563 -21ZM563 133Q657 133 720.5 184.5Q784 236 816.5 325.5Q849 415 849 529V551Q849 665 816.5 754.5Q784 844 720.0 895.5Q656 947 561 947Q467 947 403.0 895.5Q339 844 307.0 754.5Q275 665 275 551V529Q275 415 307.0 325.5Q339 236 403.5 184.5Q468 133 563 133Z" transform="translate(158.28, 102.00) scale(0.015500, -0.015500)"/>
    <path d="M74 0V126L237 154V927L74 955V1082H413L427 921Q481 1007 562.5 1054.5Q644 1102 748 1102Q923 1102 1019.0 999.5Q1115 897 1115 683V154L1278 126V0H755V126L918 154V679Q918 822 861.5 882.0Q805 942 689 942Q604 942 538.5 901.0Q473 860 434 789V154L597 126V0Z" transform="translate(175.70, 102.00) scale(0.015500, -0.015500)"/>
    <path d="M81 0V126L244 154V1301L81 1329V1455H730Q889 1455 998.5 1407.5Q1108 1360 1165.0 1270.0Q1222 1180 1222 1050Q1222 922 1166.5 835.0Q1111 748 1009.0 703.5Q907 659 767 656L441 650V154L604 126V0ZM1042 0 718 727 915 729 1184 147 1285 129V0ZM441 805H710Q875 805 950.0 868.0Q1025 931 1025 1052Q1025 1167 953.0 1234.0Q881 1301 730 1301H441Z" transform="translate(201.16, 102.00) scale(0.015500, -0.015500)"/>
    <path d="M567 -21Q417 -21 306.0 47.5Q195 116 134.5 238.0Q74 360 74 520V564Q74 718 137.5 839.5Q201 961 306.5 1031.5Q412 1102 537 1102Q683 1102 781.5 1042.0Q880 982 930.0 873.5Q980 765 980 618V495H278L275 490Q277 386 311.5 305.5Q346 225 411.0 179.0Q476 133 567 133Q667 133 742.5 161.5Q818 190 873 240L950 112Q892 56 796.5 17.5Q701 -21 567 -21ZM284 649H783V675Q783 753 755.5 814.5Q728 876 673.5 911.5Q619 947 537 947Q471 947 417.0 908.5Q363 870 328.0 804.0Q293 738 282 654Z" transform="translate(222.63, 102.00) scale(0.015500, -0.015500)"/>
    <path d="M622 -416V-289L785 -261V102Q733 41 661.5 10.0Q590 -21 499 -21Q367 -21 272.5 44.5Q178 110 128.0 227.0Q78 344 78 500V521Q78 695 128.0 826.0Q178 957 273.0 1029.5Q368 1102 501 1102Q596 1102 670.0 1066.5Q744 1031 796 963L812 1082H982V-261L1135 -289V-416ZM549 133Q631 133 688.5 169.0Q746 205 785 271V814Q746 875 688.0 911.0Q630 947 551 947Q457 947 396.0 892.5Q335 838 305.0 742.0Q275 646 275 521V500Q275 336 342.0 234.5Q409 133 549 133Z" transform="translate(239.05, 102.00) scale(0.015500, -0.015500)"/>
    <path d="M550 -21Q374 -21 275.0 92.0Q176 205 176 444V927L52 955V1082H176H373V442Q373 269 424.0 204.0Q475 139 583 139Q688 139 756.5 181.5Q825 224 860 302V927L715 955V1082H860H1057V154L1181 126V0H880L867 160Q816 73 735.5 26.0Q655 -21 550 -21Z" transform="translate(256.70, 102.00) scale(0.015500, -0.015500)"/>
    <path d="M67 0V126L230 154V927L67 955V1082H427V154L590 126V0ZM220 1349V1560H427V1349Z" transform="translate(276.00, 102.00) scale(0.015500, -0.015500)"/>
    <path d="M72 0V126L235 154V927L72 955V1082H411L428 944L430 925Q476 1008 543.5 1055.0Q611 1102 698 1102Q729 1102 761.5 1096.5Q794 1091 808 1086L782 903L645 911Q567 916 514.0 875.5Q461 835 432 767V154L595 126V0Z" transform="translate(286.10, 102.00) scale(0.015500, -0.015500)"/>
    <path d="M567 -21Q417 -21 306.0 47.5Q195 116 134.5 238.0Q74 360 74 520V564Q74 718 137.5 839.5Q201 961 306.5 1031.5Q412 1102 537 1102Q683 1102 781.5 1042.0Q880 982 930.0 873.5Q980 765 980 618V495H278L275 490Q277 386 311.5 305.5Q346 225 411.0 179.0Q476 133 567 133Q667 133 742.5 161.5Q818 190 873 240L950 112Q892 56 796.5 17.5Q701 -21 567 -21ZM284 649H783V675Q783 753 755.5 814.5Q728 876 673.5 911.5Q619 947 537 947Q471 947 417.0 908.5Q363 870 328.0 804.0Q293 738 282 654Z" transform="translate(299.34, 102.00) scale(0.015500, -0.015500)"/>
    <path d="M74 0V126L237 154V927L74 955V1082H414L427 941Q479 1018 561.0 1060.0Q643 1102 751 1102Q859 1102 936.5 1052.0Q1014 1002 1053 902Q1104 994 1188.0 1048.0Q1272 1102 1384 1102Q1550 1102 1646.0 988.5Q1742 875 1742 647V154L1905 126V0H1381V126L1544 154V649Q1544 809 1489.0 875.5Q1434 942 1326 942Q1223 942 1160.5 869.5Q1098 797 1088 687V154L1251 126V0H728V126L891 154V649Q891 801 834.5 871.5Q778 942 671 942Q581 942 523.0 905.0Q465 868 434 801V154L597 126V0Z" transform="translate(315.76, 102.00) scale(0.015500, -0.015500)"/>
    <path d="M567 -21Q417 -21 306.0 47.5Q195 116 134.5 238.0Q74 360 74 520V564Q74 718 137.5 839.5Q201 961 306.5 1031.5Q412 1102 537 1102Q683 1102 781.5 1042.0Q880 982 930.0 873.5Q980 765 980 618V495H278L275 490Q277 386 311.5 305.5Q346 225 411.0 179.0Q476 133 567 133Q667 133 742.5 161.5Q818 190 873 240L950 112Q892 56 796.5 17.5Q701 -21 567 -21ZM284 649H783V675Q783 753 755.5 814.5Q728 876 673.5 911.5Q619 947 537 947Q471 947 417.0 908.5Q363 870 328.0 804.0Q293 738 282 654Z" transform="translate(346.40, 102.00) scale(0.015500, -0.015500)"/>
    <path d="M74 0V126L237 154V927L74 955V1082H413L427 921Q481 1007 562.5 1054.5Q644 1102 748 1102Q923 1102 1019.0 999.5Q1115 897 1115 683V154L1278 126V0H755V126L918 154V679Q918 822 861.5 882.0Q805 942 689 942Q604 942 538.5 901.0Q473 860 434 789V154L597 126V0Z" transform="translate(362.81, 102.00) scale(0.015500, -0.015500)"/>
    <path d="M456 -17Q336 -17 265.5 53.5Q195 124 195 279V936H24V1082H195V1343H392V1082H627V936H392V279Q392 201 423.0 164.0Q454 127 506 127Q541 127 584.0 133.5Q627 140 651 145L678 16Q635 3 572.5 -7.0Q510 -17 456 -17Z" transform="translate(383.63, 102.00) scale(0.015500, -0.015500)"/>
    <path d="M512 -21Q403 -21 308.0 1.0Q213 23 106 69L104 326H253L290 171Q346 148 398.5 137.5Q451 127 512 127Q632 127 684.0 173.0Q736 219 736 287Q736 351 683.5 395.5Q631 440 493 471Q297 516 204.5 591.5Q112 667 112 793Q112 881 163.0 950.5Q214 1020 305.0 1061.0Q396 1102 517 1102Q640 1102 727.5 1074.0Q815 1046 880 999L890 752H742L710 896Q675 922 627.0 936.0Q579 950 517 950Q425 950 367.5 907.0Q310 864 310 799Q310 761 326.5 733.0Q343 705 390.0 682.5Q437 660 528 638Q754 585 843.5 503.0Q933 421 933 301Q933 164 831.5 71.5Q730 -21 512 -21Z" transform="translate(394.94, 102.00) scale(0.015500, -0.015500)"/>
  </g>
</svg>