<svg xmlns="http://www.w3.org/2000/svg" viewBox="0 0 900 100" width="900" height="100">
  <defs>
    <linearGradient id="headerGrad" x1="0%" y1="0%" x2="100%" y2="100%">
      <stop offset="0%" style="stop-color:#4169E1;stop-opacity:1" />
      <stop offset="100%" style="stop-color:#0A0E17;stop-opacity:1" />
    </linearGradient>
  </defs>
  
  <!-- Background -->
  <rect width="900" height="100" fill="#0A0E17" rx="8" ry="8"/>
  
  <!-- Accent bar -->
  <rect x="0" y="0" width="6" height="100" fill="#4169E1" rx="3" ry="0"/>
  
  <!-- Decorative gradient overlay -->
  <rect x="0" y="0" width="900" height="100" fill="url(#headerGrad)" opacity="0.12" rx="8" ry="8"/>
  
  <!-- Title text -->
  <g fill="#ffffff">
    <path d="M606 -21Q473 -21 350.0 18.0Q227 57 115 138V449H268L301 220Q366 180 442.0 158.0Q518 136 606 136Q706 136 775.5 166.5Q845 197 882.0 251.0Q919 305 919 377Q919 444 887.0 495.0Q855 546 781.5 584.5Q708 623 581 652Q431 687 327.5 745.5Q224 804 170.5 887.5Q117 971 117 1079Q117 1193 177.5 1283.0Q238 1373 346.0 1425.0Q454 1477 598 1477Q751 1477 868.5 1430.5Q986 1384 1062 1318V1027H909L876 1235Q831 1271 764.0 1295.0Q697 1319 598 1319Q514 1319 450.0 1289.5Q386 1260 350.0 1207.0Q314 1154 314 1082Q314 1019 346.5 972.0Q379 925 452.5 889.5Q526 854 649 823Q879 766 997.5 654.5Q1116 543 1116 379Q1116 262 1053.0 171.5Q990 81 875.5 30.0Q761 -21 606 -21Z" transform="translate(30, 55) scale(0.0126953125, -0.0126953125)"/>
    <path d="M567 -21Q417 -21 306.0 47.5Q195 116 134.5 238.0Q74 360 74 520V564Q74 718 137.5 839.5Q201 961 306.5 1031.5Q412 1102 537 1102Q683 1102 781.5 1042.0Q880 982 930.0 873.5Q980 765 980 618V495H278L275 490Q277 386 311.5 305.5Q346 225 411.0 179.0Q476 133 567 133Q667 133 742.5 161.5Q818 190 873 240L950 112Q892 56 796.5 17.5Q701 -21 567 -21ZM284 649H783V675Q783 753 755.5 814.5Q728 876 673.5 911.5Q619 947 537 947Q471 947 417.0 908.5Q363 870 328.0 804.0Q293 738 282 654Z" transform="translate(45.310546875, 55) scale(0.0126953125, -0.0126953125)"/>
    <path d="M563 -21Q416 -21 307.0 47.5Q198 116 138.0 238.0Q78 360 78 520V562Q78 716 136.0 838.0Q194 960 303.0 1031.0Q412 1102 563 1102Q694 1102 792.5 1059.0Q891 1016 958 941L963 681H809L775 870Q741 905 690.0 926.0Q639 947 570 947Q482 947 415.5 895.0Q349 843 312.0 756.0Q275 669 275 562V520Q275 402 309.5 315.0Q344 228 408.5 180.5Q473 133 562 133Q662 133 728.0 188.0Q794 243 809 339H986L988 333Q983 240 933.0 159.0Q883 78 790.5 28.5Q698 -21 563 -21Z" transform="translate(58.7548828125, 55) scale(0.0126953125, -0.0126953125)"/>
    <path d="M456 -17Q336 -17 265.5 53.5Q195 124 195 279V936H24V1082H195V1343H392V1082H627V936H392V279Q392 201 423.0 164.0Q454 127 506 127Q541 127 584.0 133.5Q627 140 651 145L678 16Q635 3 572.5 -7.0Q510 -17 456 -17Z" transform="translate(72.30078125, 55) scale(0.0126953125, -0.0126953125)"/>
    <path d="M67 0V126L230 154V927L67 955V1082H427V154L590 126V0ZM220 1349V1560H427V1349Z" transform="translate(81.568359375, 55) scale(0.0126953125, -0.0126953125)"/>
    <path d="M563 -21Q413 -21 304.5 49.5Q196 120 137.0 244.5Q78 369 78 529V551Q78 711 137.0 835.5Q196 960 304.5 1031.0Q413 1102 561 1102Q711 1102 819.5 1031.0Q928 960 987.0 836.0Q1046 712 1046 551V529Q1046 368 987.0 243.5Q928 119 820.0 49.0Q712 -21 563 -21ZM563 133Q657 133 720.5 184.5Q784 236 816.5 325.5Q849 415 849 529V551Q849 665 816.5 754.5Q784 844 720.0 895.5Q656 947 561 947Q467 947 403.0 895.5Q339 844 307.0 754.5Q275 665 275 551V529Q275 415 307.0 325.5Q339 236 403.5 184.5Q468 133 563 133Z" transform="translate(89.845703125, 55) scale(0.0126953125, -0.0126953125)"/>
    <path d="M74 0V126L237 154V927L74 955V1082H413L427 921Q481 1007 562.5 1054.5Q644 1102 748 1102Q923 1102 1019.0 999.5Q1115 897 1115 683V154L1278 126V0H755V126L918 154V679Q918 822 861.5 882.0Q805 942 689 942Q604 942 538.5 901.0Q473 860 434 789V154L597 126V0Z" transform="translate(104.115234375, 55) scale(0.0126953125, -0.0126953125)"/>
    <path d="M121 0V126L346 154V1245L117 1241V1364L543 1456V154L767 126V0Z" transform="translate(128.4450390625, 55) scale(0.0126953125, -0.0126953125)"/>
    <path d="M145 0V202H342V0ZM145 880V1082H342V880Z" transform="translate(139.1598828125, 55) scale(0.0126953125, -0.0126953125)"/>
    <path d="M739 -21Q520 -21 373.5 75.0Q227 171 153.5 338.0Q80 505 80 717V738Q80 952 157.0 1118.5Q234 1285 378.0 1381.0Q522 1477 722 1477Q863 1477 980.0 1433.0Q1097 1389 1174 1321V1007H1017L996 1237Q964 1262 922.5 1279.0Q881 1296 830.5 1305.0Q780 1314 721 1314Q578 1314 479.0 1240.5Q380 1167 329.0 1038.0Q278 909 278 740V717Q278 534 332.5 404.5Q387 275 491.5 207.0Q596 139 746 139Q816 139 883.0 156.0Q950 173 994 200L1016 403H1170V87Q1088 36 974.0 7.5Q860 -21 739 -21Z" transform="translate(151.75921875, 55) scale(0.0126953125, -0.0126953125)"/>
    <path d="M563 -21Q413 -21 304.5 49.5Q196 120 137.0 244.5Q78 369 78 529V551Q78 711 137.0 835.5Q196 960 304.5 1031.0Q413 1102 561 1102Q711 1102 819.5 1031.0Q928 960 987.0 836.0Q1046 712 1046 551V529Q1046 368 987.0 243.5Q928 119 820.0 49.0Q712 -21 563 -21ZM563 133Q657 133 720.5 184.5Q784 236 816.5 325.5Q849 415 849 529V551Q849 665 816.5 754.5Q784 844 720.0 895.5Q656 947 561 947Q467 947 403.0 895.5Q339 844 307.0 754.5Q275 665 275 551V529Q275 415 307.0 325.5Q339 236 403.5 184.5Q468 133 563 133Z" transform="translate(168.136171875, 55) scale(0.0126953125, -0.0126953125)"/>
    <path d="M523 0 138 940 26 955V1082H480V955L339 935L579 319L607 232H613L645 319L868 935L723 955V1082H1176V955L1062 940L696 0Z" transform="translate(182.405703125, 55) scale(0.0126953125, -0.0126953125)"/>
    <path d="M567 -21Q417 -21 306.0 47.5Q195 116 134.5 238.0Q74 360 74 520V564Q74 718 137.5 839.5Q201 961 306.5 1031.5Q412 1102 537 1102Q683 1102 781.5 1042.0Q880 982 930.0 873.5Q980 765 980 618V495H278L275 490Q277 386 311.5 305.5Q346 225 411.0 179.0Q476 133 567 133Q667 133 742.5 161.5Q818 190 873 240L950 112Q892 56 796.5 17.5Q701 -21 567 -21ZM284 649H783V675Q783 753 755.5 814.5Q728 876 673.5 911.5Q619 947 537 947Q471 947 417.0 908.5Q363 870 328.0 804.0Q293 738 282 654Z" transform="translate(197.71625, 55) scale(0.0126953125, -0.0126953125)"/>
    <path d="M72 0V126L235 154V927L72 955V1082H411L428 944L430 925Q476 1008 543.5 1055.0Q611 1102 698 1102Q729 1102 761.5 1096.5Q794 1091 808 1086L782 903L645 911Q567 916 514.0 875.5Q461 835 432 767V154L595 126V0Z" transform="translate(211.1605859375, 55) scale(0.0126953125, -0.0126953125)"/>
    <path d="M81 0V126L244 154V1301L81 1329V1456H244H750Q906 1456 1016.0 1401.5Q1126 1347 1184.0 1249.0Q1242 1151 1242 1020Q1242 888 1184.0 790.0Q1126 692 1016.0 638.0Q906 584 750 584H441V154L604 126V0ZM441 738H750Q898 738 971.5 817.5Q1045 897 1045 1018Q1045 1139 971.5 1220.0Q898 1301 750 1301H441Z" transform="translate(229.2823828125, 55) scale(0.0126953125, -0.0126953125)"/>
    <path d="M424 -21Q255 -21 167.0 61.5Q79 144 79 294Q79 448 205.0 541.5Q331 635 555 635H748V741Q748 839 688.5 893.0Q629 947 521 947Q453 947 403.0 930.5Q353 914 312 885L291 734H139V982Q212 1041 309.0 1071.5Q406 1102 524 1102Q721 1102 833.0 1008.0Q945 914 945 739V218Q945 197 945.5 177.0Q946 157 948 137L1053 126V0H770Q761 44 756.0 79.0Q751 114 749 149Q692 76 606.5 27.5Q521 -21 424 -21ZM453 144Q551 144 632.0 191.0Q713 238 748 304V500H548Q412 500 344.0 435.0Q276 370 276 290Q276 219 320.0 181.5Q364 144 453 144Z" transform="translate(245.748203125, 55) scale(0.0126953125, -0.0126953125)"/>
    <path d="M549 -437Q471 -437 380.0 -415.5Q289 -394 220 -357L271 -204Q326 -233 401.0 -252.0Q476 -271 547 -271Q679 -271 740.5 -197.0Q802 -123 802 14V117Q749 49 675.0 14.0Q601 -21 505 -21Q373 -21 277.0 44.5Q181 110 129.5 227.5Q78 345 78 500V521Q78 695 129.5 826.0Q181 957 277.0 1029.5Q373 1102 507 1102Q609 1102 686.0 1062.0Q763 1022 815 946L833 1082H999V14Q999 -126 946.5 -227.0Q894 -328 793.5 -382.5Q693 -437 549 -437ZM554 139Q643 139 703.0 179.5Q763 220 802 294V792Q764 861 703.0 901.5Q642 942 556 942Q462 942 399.5 888.0Q337 834 306.0 739.5Q275 645 275 521V500Q275 337 344.0 238.0Q413 139 554 139ZM969 921 892 1082H1133V956Z" transform="translate(260.11929687500003, 55) scale(0.0126953125, -0.0126953125)"/>
    <path d="M567 -21Q417 -21 306.0 47.5Q195 116 134.5 238.0Q74 360 74 520V564Q74 718 137.5 839.5Q201 961 306.5 1031.5Q412 1102 537 1102Q683 1102 781.5 1042.0Q880 982 930.0 873.5Q980 765 980 618V495H278L275 490Q277 386 311.5 305.5Q346 225 411.0 179.0Q476 133 567 133Q667 133 742.5 161.5Q818 190 873 240L950 112Q892 56 796.5 17.5Q701 -21 567 -21ZM284 649H783V675Q783 753 755.5 814.5Q728 876 673.5 911.5Q619 947 537 947Q471 947 417.0 908.5Q363 870 328.0 804.0Q293 738 282 654Z" transform="translate(274.80777343750003, 55) scale(0.0126953125, -0.0126953125)"/>
  </g>
  
</svg>