<svg xmlns="http://www.w3.org/2000/svg" viewBox="0 0 900 100" width="900" height="100">
  <defs>
    <linearGradient id="headerGrad" x1="0%" y1="0%" x2="100%" y2="100%">
      <stop offset="0%" style="stop-color:#6C757D;stop-opacity:1" />
      <stop offset="100%" style="stop-color:#0A0E17;stop-opacity:1" />
    </linearGradient>
  </defs>
  
  <!-- Background -->
  <rect width="900" height="100" fill="#0A0E17" rx="8" ry="8"/>
  
  <!-- Accent bar -->
  <rect x="0" y="0" width="6" height="100" fill="#6C757D" rx="3" ry="0"/>
  
  <!-- Decorative gradient overlay -->
  <rect x="0" y="0" width="900" height="100" fill="url(#headerGrad)" opacity="0.12" rx="8" ry="8"/>
  
  <!-- Title text -->
  <g fill="#ffffff">
    <path d="M606 -21Q473 -21 350.0 18.0Q227 57 115 138V449H268L301 220Q366 180 442.0 158.0Q518 136 606 136Q706 136 775.5 166.5Q845 197 882.0 251.0Q919 305 919 377Q919 444 887.0 495.0Q855 546 781.5 584.5Q708 623 581 652Q431 687 327.5 745.5Q224 804 170.5 887.5Q117 971 117 1079Q117 1193 177.5 1283.0Q238 1373 346.0 1425.0Q454 1477 598 1477Q751 1477 868.5 1430.5Q986 1384 1062 1318V1027H909L876 1235Q831 1271 764.0 1295.0Q697 1319 598 1319Q514 1319 450.0 1289.5Q386 1260 350.0 1207.0Q314 1154 314 1082Q314 1019 346.5 972.0Q379 925 452.5 889.5Q526 854 649 823Q879 766 997.5 654.5Q1116 543 1116 379Q1116 262 1053.0 171.5Q990 81 875.5 30.0Q761 -21 606 -21Z" transform="translate(30, 55) scale(0.0126953125, -0.0126953125)"/>
    <path d="M567 -21Q417 -21 306.0 47.5Q195 116 134.5 238.0Q74 360 74 520V564Q74 718 137.5 839.5Q201 961 306.5 1031.5Q412 1102 537 1102Q683 1102 781.5 1042.0Q880 982 930.0 873.5Q980 765 980 618V495H278L275 490Q277 386 311.5 305.5Q346 225 411.0 179.0Q476 133 567 133Q667 133 742.5 161.5Q818 190 873 240L950 112Q892 56 796.5 17.5Q701 -21 567 -21ZM284 649H783V675Q783 753 755.5 814.5Q728 876 673.5 911.5Q619 947 537 947Q471 947 417.0 908.5Q363 870 328.0 804.0Q293 738 282 654Z" transform="translate(45.310546875, 55) scale(0.0126953125, -0.0126953125)"/>
    <path d="M563 -21Q416 -21 307.0 47.5Q198 116 138.0 238.0Q78 360 78 520V562Q78 716 136.0 838.0Q194 960 303.0 1031.0Q412 1102 563 1102Q694 1102 792.5 1059.0Q891 1016 958 941L963 681H809L775 870Q741 905 690.0 926.0Q639 947 570 947Q482 947 415.5 895.0Q349 843 312.0 756.0Q275 669 275 562V520Q275 402 309.5 315.0Q344 228 408.5 180.5Q473 133 562 133Q662 133 728.0 188.0Q794 243 809 339H986L988 333Q983 240 933.0 159.0Q883 78 790.5 28.5Q698 -21 563 -21Z" transform="translate(58.7548828125, 55) scale(0.0126953125, -0.0126953125)"/>
    <path d="M456 -17Q336 -17 265.5 53.5Q195 124 195 279V936H24V1082H195V1343H392V1082H627V936H392V279Q392 201 423.0 164.0Q454 127 506 127Q541 127 584.0 133.5Q627 140 651 145L678 16Q635 3 572.5 -7.0Q510 -17 456 -17Z" transform="translate(72.30078125, 55) scale(0.0126953125, -0.0126953125)"/>
    <path d="M67 0V126L230 154V927L67 955V1082H427V154L590 126V0ZM220 1349V1560H427V1349Z" transform="translate(81.568359375, 55) scale(0.0126953125, -0.0126953125)"/>
    <path d="M563 -21Q413 -21 304.5 49.5Q196 120 137.0 244.5Q78 369 78 529V551Q78 711 137.0 835.5Q196 960 304.5 1031.0Q413 1102 561 1102Q711 1102 819.5 1031.0Q928 960 987.0 836.0Q1046 712 1046 551V529Q1046 368 987.0 243.5Q928 119 820.0 49.0Q712 -21 563 -21ZM563 133Q657 133 720.5 184.5Q784 236 816.5 325.5Q849 415 849 529V551Q849 665 816.5 754.5Q784 844 720.0 895.5Q656 947 561 947Q467 947 403.0 895.5Q339 844 307.0 754.5Q275 665 275 551V529Q275 415 307.0 325.5Q339 236 403.5 184.5Q468 133 563 133Z" transform="translate(89.845703125, 55) scale(0.0126953125, -0.0126953125)"/>
    <path d="M74 0V126L237 154V927L74 955V1082H413L427 921Q481 1007 562.5 1054.5Q644 1102 748 1102Q923 1102 1019.0 999.5Q1115 897 1115 683V154L1278 126V0H755V126L918 154V679Q918 822 861.5 882.0Q805 942 689 942Q604 942 538.5 901.0Q473 860 434 789V154L597 126V0Z" transform="translate(104.115234375, 55) scale(0.0126953125, -0.0126953125)"/>
    <path d="M97 0V135L574 665Q660 761 707.5 828.0Q755 895 774.0 950.5Q793 1006 793 1064Q793 1173 727.0 1247.5Q661 1322 538 1322Q410 1322 338.5 1245.0Q267 1168 267 1027H78L76 1033Q73 1159 129.0 1259.5Q185 1360 291.5 1418.5Q398 1477 545 1477Q683 1477 782.5 1424.5Q882 1372 936.0 1281.0Q990 1190 990 1072Q990 992 958.5 913.0Q927 834 867.0 751.0Q807 668 721 576L338 159L340 154H857L873 321H1040V0Z" transform="translate(128.4450390625, 55) scale(0.0126953125, -0.0126953125)"/>
    <path d="M145 0V202H342V0ZM145 880V1082H342V880Z" transform="translate(142.8034375, 55) scale(0.0126953125, -0.0126953125)"/>
    <path d="M739 -21Q520 -21 373.5 75.0Q227 171 153.5 338.0Q80 505 80 717V738Q80 952 157.0 1118.5Q234 1285 378.0 1381.0Q522 1477 722 1477Q863 1477 980.0 1433.0Q1097 1389 1174 1321V1007H1017L996 1237Q964 1262 922.5 1279.0Q881 1296 830.5 1305.0Q780 1314 721 1314Q578 1314 479.0 1240.5Q380 1167 329.0 1038.0Q278 909 278 740V717Q278 534 332.5 404.5Q387 275 491.5 207.0Q596 139 746 139Q816 139 883.0 156.0Q950 173 994 200L1016 403H1170V87Q1088 36 974.0 7.5Q860 -21 739 -21Z" transform="translate(155.4027734375, 55) scale(0.0126953125, -0.0126953125)"/>
    <path d="M563 -21Q413 -21 304.5 49.5Q196 120 137.0 244.5Q78 369 78 529V551Q78 711 137.0 835.5Q196 960 304.5 1031.0Q413 1102 561 1102Q711 1102 819.5 1031.0Q928 960 987.0 836.0Q1046 712 1046 551V529Q1046 368 987.0 243.5Q928 119 820.0 49.0Q712 -21 563 -21ZM563 133Q657 133 720.5 184.5Q784 236 816.5 325.5Q849 415 849 529V551Q849 665 816.5 754.5Q784 844 720.0 895.5Q656 947 561 947Q467 947 403.0 895.5Q339 844 307.0 754.5Q275 665 275 551V529Q275 415 307.0 325.5Q339 236 403.5 184.5Q468 133 563 133Z" transform="translate(171.7797265625, 55) scale(0.0126953125, -0.0126953125)"/>
    <path d="M74 0V126L237 154V927L74 955V1082H413L427 921Q481 1007 562.5 1054.5Q644 1102 748 1102Q923 1102 1019.0 999.5Q1115 897 1115 683V154L1278 126V0H755V126L918 154V679Q918 822 861.5 882.0Q805 942 689 942Q604 942 538.5 901.0Q473 860 434 789V154L597 126V0Z" transform="translate(186.0492578125, 55) scale(0.0126953125, -0.0126953125)"/>
    <path d="M70 0V126L233 154V936H64V1082H233V1219Q233 1392 323.5 1486.5Q414 1581 576 1581Q610 1581 649.5 1575.5Q689 1570 731 1560L707 1410Q689 1414 658.5 1417.0Q628 1420 601 1420Q514 1420 472.0 1368.5Q430 1317 430 1219V1082H666V936H430V154L616 126V0Z" transform="translate(203.0990625, 55) scale(0.0126953125, -0.0126953125)"/>
    <path d="M67 0V126L230 154V927L67 955V1082H427V154L590 126V0ZM220 1349V1560H427V1349Z" transform="translate(212.3031640625, 55) scale(0.0126953125, -0.0126953125)"/>
    <path d="M499 -21Q367 -21 272.5 44.5Q178 110 128.0 227.0Q78 344 78 500V521Q78 695 128.0 826.0Q178 957 273.0 1029.5Q368 1102 501 1102Q597 1102 670.5 1066.5Q744 1031 796 964V1405L633 1433V1560H796H993V154L1156 126V0H822L806 129Q753 55 676.5 17.0Q600 -21 499 -21ZM549 139Q637 139 697.0 179.0Q757 219 796 292V794Q758 862 697.0 902.0Q636 942 551 942Q457 942 396.0 888.5Q335 835 305.0 740.5Q275 646 275 521V500Q275 337 342.0 238.0Q409 139 549 139Z" transform="translate(220.5805078125, 55) scale(0.0126953125, -0.0126953125)"/>
    <path d="M567 -21Q417 -21 306.0 47.5Q195 116 134.5 238.0Q74 360 74 520V564Q74 718 137.5 839.5Q201 961 306.5 1031.5Q412 1102 537 1102Q683 1102 781.5 1042.0Q880 982 930.0 873.5Q980 765 980 618V495H278L275 490Q277 386 311.5 305.5Q346 225 411.0 179.0Q476 133 567 133Q667 133 742.5 161.5Q818 190 873 240L950 112Q892 56 796.5 17.5Q701 -21 567 -21ZM284 649H783V675Q783 753 755.5 814.5Q728 876 673.5 911.5Q619 947 537 947Q471 947 417.0 908.5Q363 870 328.0 804.0Q293 738 282 654Z" transform="translate(236.0433984375, 55) scale(0.0126953125, -0.0126953125)"/>
    <path d="M74 0V126L237 154V927L74 955V1082H413L427 921Q481 1007 562.5 1054.5Q644 1102 748 1102Q923 1102 1019.0 999.5Q1115 897 1115 683V154L1278 126V0H755V126L918 154V679Q918 822 861.5 882.0Q805 942 689 942Q604 942 538.5 901.0Q473 860 434 789V154L597 126V0Z" transform="translate(249.487734375, 55) scale(0.0126953125, -0.0126953125)"/>
    <path d="M456 -17Q336 -17 265.5 53.5Q195 124 195 279V936H24V1082H195V1343H392V1082H627V936H392V279Q392 201 423.0 164.0Q454 127 506 127Q541 127 584.0 133.5Q627 140 651 145L678 16Q635 3 572.5 -7.0Q510 -17 456 -17Z" transform="translate(266.5375390625, 55) scale(0.0126953125, -0.0126953125)"/>
    <path d="M67 0V126L230 154V927L67 955V1082H427V154L590 126V0ZM220 1349V1560H427V1349Z" transform="translate(275.8051171875, 55) scale(0.0126953125, -0.0126953125)"/>
    <path d="M424 -21Q255 -21 167.0 61.5Q79 144 79 294Q79 448 205.0 541.5Q331 635 555 635H748V741Q748 839 688.5 893.0Q629 947 521 947Q453 947 403.0 930.5Q353 914 312 885L291 734H139V982Q212 1041 309.0 1071.5Q406 1102 524 1102Q721 1102 833.0 1008.0Q945 914 945 739V218Q945 197 945.5 177.0Q946 157 948 137L1053 126V0H770Q761 44 756.0 79.0Q751 114 749 149Q692 76 606.5 27.5Q521 -21 424 -21ZM453 144Q551 144 632.0 191.0Q713 238 748 304V500H548Q412 500 344.0 435.0Q276 370 276 290Q276 219 320.0 181.5Q364 144 453 144Z" transform="translate(284.0824609375, 55) scale(0.0126953125, -0.0126953125)"/>
    <path d="M64 0V126L227 154V1405L64 1433V1560H424V154L587 126V0Z" transform="translate(298.4535546875, 55) scale(0.0126953125, -0.0126953125)"/>
    <path d="M67 0V126L230 154V927L67 955V1082H427V154L590 126V0ZM220 1349V1560H427V1349Z" transform="translate(306.74359375, 55) scale(0.0126953125, -0.0126953125)"/>
    <path d="M456 -17Q336 -17 265.5 53.5Q195 124 195 279V936H24V1082H195V1343H392V1082H627V936H392V279Q392 201 423.0 164.0Q454 127 506 127Q541 127 584.0 133.5Q627 140 651 145L678 16Q635 3 572.5 -7.0Q510 -17 456 -17Z" transform="translate(315.0209375, 55) scale(0.0126953125, -0.0126953125)"/>
    <path d="M309 -437Q286 -437 249.0 -431.5Q212 -426 192 -421L212 -266Q229 -268 259.0 -269.5Q289 -271 300 -271Q363 -271 402.5 -223.0Q442 -175 476 -92L523 22L140 939L24 955V1082H478V955L347 935L558 394L609 253H615L865 935L727 955V1082H1172V955L1060 939L634 -166Q604 -244 561.5 -305.5Q519 -367 457.5 -402.0Q396 -437 309 -437Z" transform="translate(324.288515625, 55) scale(0.0126953125, -0.0126953125)"/>
    <path d="M548 -21Q404 -21 297.5 31.5Q191 84 132.5 177.0Q74 270 74 392Q74 512 142.0 602.0Q210 692 345 783Q348 785 350.5 786.5Q353 788 355 789Q277 888 239.0 965.5Q201 1043 201 1125Q201 1238 245.0 1316.5Q289 1395 371.0 1436.0Q453 1477 567 1477Q673 1477 753.0 1435.0Q833 1393 878.0 1323.0Q923 1253 923 1167Q923 1069 870.5 997.5Q818 926 715 851L606 771L946 362Q987 427 1010.0 506.0Q1033 585 1033 673H1209Q1209 542 1170.0 430.0Q1131 318 1057 229L1242 5L1240 0H1011L926 102Q846 42 749.0 10.5Q652 -21 548 -21ZM548 133Q620 133 690.0 157.5Q760 182 822 228L461 663L421 634Q330 566 300.5 504.0Q271 442 271 392Q271 279 342.0 206.0Q413 133 548 133ZM506 891 644 986Q701 1024 721.5 1068.5Q742 1113 742 1167Q742 1228 693.5 1275.0Q645 1322 567 1322Q486 1322 442.0 1265.5Q398 1209 398 1127Q398 1074 425.0 1016.5Q452 959 506 891Z" transform="translate(346.70132812500003, 55) scale(0.0126953125, -0.0126953125)"/>
    <path d="M81 0V126L244 154V1301L81 1329V1456H244H651Q844 1456 987.5 1364.0Q1131 1272 1211.0 1111.0Q1291 950 1291 743V712Q1291 510 1214.0 348.5Q1137 187 995.5 93.5Q854 0 661 0ZM441 154H651Q789 154 888.0 229.5Q987 305 1040.5 431.5Q1094 558 1094 712V745Q1094 904 1040.5 1029.5Q987 1155 888.0 1228.0Q789 1301 651 1301H441Z" transform="translate(370.3455859375, 55) scale(0.0126953125, -0.0126953125)"/>
    <path d="M67 0V126L230 154V927L67 955V1082H427V154L590 126V0ZM220 1349V1560H427V1349Z" transform="translate(387.5604296875, 55) scale(0.0126953125, -0.0126953125)"/>
    <path d="M512 -21Q403 -21 308.0 1.0Q213 23 106 69L104 326H253L290 171Q346 148 398.5 137.5Q451 127 512 127Q632 127 684.0 173.0Q736 219 736 287Q736 351 683.5 395.5Q631 440 493 471Q297 516 204.5 591.5Q112 667 112 793Q112 881 163.0 950.5Q214 1020 305.0 1061.0Q396 1102 517 1102Q640 1102 727.5 1074.0Q815 1046 880 999L890 752H742L710 896Q675 922 627.0 936.0Q579 950 517 950Q425 950 367.5 907.0Q310 864 310 799Q310 761 326.5 733.0Q343 705 390.0 682.5Q437 660 528 638Q754 585 843.5 503.0Q933 421 933 301Q933 164 831.5 71.5Q730 -21 512 -21Z" transform="translate(395.8377734375, 55) scale(0.0126953125, -0.0126953125)"/>
    <path d="M563 -21Q416 -21 307.0 47.5Q198 116 138.0 238.0Q78 360 78 520V562Q78 716 136.0 838.0Q194 960 303.0 1031.0Q412 1102 563 1102Q694 1102 792.5 1059.0Q891 1016 958 941L963 681H809L775 870Q741 905 690.0 926.0Q639 947 570 947Q482 947 415.5 895.0Q349 843 312.0 756.0Q275 669 275 562V520Q275 402 309.5 315.0Q344 228 408.5 180.5Q473 133 562 133Q662 133 728.0 188.0Q794 243 809 339H986L988 333Q983 240 933.0 159.0Q883 78 790.5 28.5Q698 -21 563 -21Z" transform="translate(408.8123828125, 55) scale(0.0126953125, -0.0126953125)"/>
    <path d="M64 0V126L227 154V1405L64 1433V1560H424V154L587 126V0Z" transform="translate(422.35828125, 55) scale(0.0126953125, -0.0126953125)"/>
    <path d="M424 -21Q255 -21 167.0 61.5Q79 144 79 294Q79 448 205.0 541.5Q331 635 555 635H748V741Q748 839 688.5 893.0Q629 947 521 947Q453 947 403.0 930.5Q353 914 312 885L291 734H139V982Q212 1041 309.0 1071.5Q406 1102 524 1102Q721 1102 833.0 1008.0Q945 914 945 739V218Q945 197 945.5 177.0Q946 157 948 137L1053 126V0H770Q761 44 756.0 79.0Q751 114 749 149Q692 76 606.5 27.5Q521 -21 424 -21ZM453 144Q551 144 632.0 191.0Q713 238 748 304V500H548Q412 500 344.0 435.0Q276 370 276 290Q276 219 320.0 181.5Q364 144 453 144Z" transform="translate(430.6483203125, 55) scale(0.0126953125, -0.0126953125)"/>
    <path d="M67 0V126L230 154V927L67 955V1082H427V154L590 126V0ZM220 1349V1560H427V1349Z" transform="translate(445.0194140625, 55) scale(0.0126953125, -0.0126953125)"/>
    <path d="M74 0V126L237 154V927L74 955V1082H414L427 941Q479 1018 561.0 1060.0Q643 1102 751 1102Q859 1102 936.5 1052.0Q1014 1002 1053 902Q1104 994 1188.0 1048.0Q1272 1102 1384 1102Q1550 1102 1646.0 988.5Q1742 875 1742 647V154L1905 126V0H1381V126L1544 154V649Q1544 809 1489.0 875.5Q1434 942 1326 942Q1223 942 1160.5 869.5Q1098 797 1088 687V154L1251 126V0H728V126L891 154V649Q891 801 834.5 871.5Q778 942 671 942Q581 942 523.0 905.0Q465 868 434 801V154L597 126V0Z" transform="translate(453.2967578125, 55) scale(0.0126953125, -0.0126953125)"/>
    <path d="M567 -21Q417 -21 306.0 47.5Q195 116 134.5 238.0Q74 360 74 520V564Q74 718 137.5 839.5Q201 961 306.5 1031.5Q412 1102 537 1102Q683 1102 781.5 1042.0Q880 982 930.0 873.5Q980 765 980 618V495H278L275 490Q277 386 311.5 305.5Q346 225 411.0 179.0Q476 133 567 133Q667 133 742.5 161.5Q818 190 873 240L950 112Q892 56 796.5 17.5Q701 -21 567 -21ZM284 649H783V675Q783 753 755.5 814.5Q728 876 673.5 911.5Q619 947 537 947Q471 947 417.0 908.5Q363 870 328.0 804.0Q293 738 282 654Z" transform="translate(478.395390625, 55) scale(0.0126953125, -0.0126953125)"/>
    <path d="M72 0V126L235 154V927L72 955V1082H411L428 944L430 925Q476 1008 543.5 1055.0Q611 1102 698 1102Q729 1102 761.5 1096.5Q794 1091 808 1086L782 903L645 911Q567 916 514.0 875.5Q461 835 432 767V154L595 126V0Z" transform="translate(491.8397265625, 55) scale(0.0126953125, -0.0126953125)"/>
  </g>
  
</svg>