<svg xmlns="http://www.w3.org/2000/svg" viewBox="0 0 269 115" width="269" height="115">
  <!-- Left border (theme color, full height) -->
  <rect x="0" y="0" width="4" height="115" fill="#00D26A"/>
  
  <!-- Keyword block -->
  <rect x="4" y="0" width="134" height="70" fill="#00D26A"/>
  
  <!-- Secondary block -->
  <rect x="138" y="0" width="130" height="70" fill="#000000"/>
  
  <!-- Subtitle bar (only as wide as needed) -->
  <rect x="4" y="70" width="255" height="45" fill="#FEC618"/>
  
  <!-- Keyword text -->
  <g fill="#FFFFFF">
    <path d="M512 -21Q403 -21 308.0 1.0Q213 23 106 69L104 326H253L290 171Q346 148 398.5 137.5Q451 127 512 127Q632 127 684.0 173.0Q736 219 736 287Q736 351 683.5 395.5Q631 440 493 471Q297 516 204.5 591.5Q112 667 112 793Q112 881 163.0 950.5Q214 1020 305.0 1061.0Q396 1102 517 1102Q640 1102 727.5 1074.0Q815 1046 880 999L890 752H742L710 896Q675 922 627.0 936.0Q579 950 517 950Q425 950 367.5 907.0Q310 864 310 799Q310 761 326.5 733.0Q343 705 390.0 682.5Q437 660 528 638Q754 585 843.5 503.0Q933 421 933 301Q933 164 831.5 71.5Q730 -21 512 -21Z" transform="translate(19.00, 52.00) scale(0.023438, -0.023438)"/>
    <path d="M456 -17Q336 -17 265.5 53.5Q195 124 195 279V936H24V1082H195V1343H392V1082H627V936H392V279Q392 201 423.0 164.0Q454 127 506 127Q541 127 584.0 133.5Q627 140 651 145L678 16Q635 3 572.5 -7.0Q510 -17 456 -17Z" transform="translate(42.95, 52.00) scale(0.023438, -0.023438)"/>
    <path d="M424 -21Q255 -21 167.0 61.5Q79 144 79 294Q79 448 205.0 541.5Q331 635 555 635H748V741Q748 839 688.5 893.0Q629 947 521 947Q453 947 403.0 930.5Q353 914 312 885L291 734H139V982Q212 1041 309.0 1071.5Q406 1102 524 1102Q721 1102 833.0 1008.0Q945 914 945 739V218Q945 197 945.5 177.0Q946 157 948 137L1053 126V0H770Q761 44 756.0 79.0Q751 114 749 149Q692 76 606.5 27.5Q521 -21 424 -21ZM453 144Q551 144 632.0 191.0Q713 238 748 304V500H548Q412 500 344.0 435.0Q276 370 276 290Q276 219 320.0 181.5Q364 144 453 144Z" transform="translate(60.06, 52.00) scale(0.023438, -0.023438)"/>
    <path d="M72 0V126L235 154V927L72 955V1082H411L428 944L430 925Q476 1008 543.5 1055.0Q611 1102 698 1102Q729 1102 761.5 1096.5Q794 1091 808 1086L782 903L645 911Q567 916 514.0 875.5Q461 835 432 767V154L595 126V0Z" transform="translate(86.60, 52.00) scale(0.023438, -0.023438)"/>
    <path d="M456 -17Q336 -17 265.5 53.5Q195 124 195 279V936H24V1082H195V1343H392V1082H627V936H392V279Q392 201 423.0 164.0Q454 127 506 127Q541 127 584.0 133.5Q627 140 651 145L678 16Q635 3 572.5 -7.0Q510 -17 456 -17Z" transform="translate(106.61, 52.00) scale(0.023438, -0.023438)"/>
  </g>
  
  <!-- Secondary text -->
  <g fill="#FFFFFF">
    <path d="M49 0V126L212 154V1405L49 1433V1560H409V938Q465 1016 546.0 1059.0Q627 1102 726 1102Q900 1102 996.0 998.0Q1092 894 1092 678V154L1255 126V0H732V126L895 154V680Q895 814 837.5 878.0Q780 942 666 942Q585 942 518.5 903.5Q452 865 409 799V154L572 126V0Z" transform="translate(153.72, 52.00) scale(0.023438, -0.023438)"/>
    <path d="M567 -21Q417 -21 306.0 47.5Q195 116 134.5 238.0Q74 360 74 520V564Q74 718 137.5 839.5Q201 961 306.5 1031.5Q412 1102 537 1102Q683 1102 781.5 1042.0Q880 982 930.0 873.5Q980 765 980 618V495H278L275 490Q277 386 311.5 305.5Q346 225 411.0 179.0Q476 133 567 133Q667 133 742.5 161.5Q818 190 873 240L950 112Q892 56 796.5 17.5Q701 -21 567 -21ZM284 649H783V675Q783 753 755.5 814.5Q728 876 673.5 911.5Q619 947 537 947Q471 947 417.0 908.5Q363 870 328.0 804.0Q293 738 282 654Z" transform="translate(184.54, 52.00) scale(0.023438, -0.023438)"/>
    <path d="M72 0V126L235 154V927L72 955V1082H411L428 944L430 925Q476 1008 543.5 1055.0Q611 1102 698 1102Q729 1102 761.5 1096.5Q794 1091 808 1086L782 903L645 911Q567 916 514.0 875.5Q461 835 432 767V154L595 126V0Z" transform="translate(209.36, 52.00) scale(0.023438, -0.023438)"/>
    <path d="M567 -21Q417 -21 306.0 47.5Q195 116 134.5 238.0Q74 360 74 520V564Q74 718 137.5 839.5Q201 961 306.5 1031.5Q412 1102 537 1102Q683 1102 781.5 1042.0Q880 982 930.0 873.5Q980 765 980 618V495H278L275 490Q277 386 311.5 305.5Q346 225 411.0 179.0Q476 133 567 133Q667 133 742.5 161.5Q818 190 873 240L950 112Q892 56 796.5 17.5Q701 -21 567 -21ZM284 649H783V675Q783 753 755.5 814.5Q728 876 673.5 911.5Q619 947 537 947Q471 947 417.0 908.5Q363 870 328.0 804.0Q293 738 282 654Z" transform="translate(229.38, 52.00) scale(0.023438, -0.023438)"/>
  </g>
  
  <!-- Subtitle text -->
  <g fill="#000000">
    <path d="M81 0V126L244 154V1301L81 1329V1456H604V1329L441 1301V154L604 126V0Z" transform="translate(19.00, 102.00) scale(0.012695, -0.012695)"/>
    <path d="M606 -21Q473 -21 350.0 18.0Q227 57 115 138V449H268L301 220Q366 180 442.0 158.0Q518 136 606 136Q706 136 775.5 166.5Q845 197 882.0 251.0Q919 305 919 377Q919 444 887.0 495.0Q855 546 781.5 584.5Q708 623 581 652Q431 687 327.5 745.5Q224 804 170.5 887.5Q117 971 117 1079Q117 1193 177.5 1283.0Q238 1373 346.0 1425.0Q454 1477 598 1477Q751 1477 868.5 1430.5Q986 1384 1062 1318V1027H909L876 1235Q831 1271 764.0 1295.0Q697 1319 598 1319Q514 1319 450.0 1289.5Q386 1260 350.0 1207.0Q314 1154 314 1082Q314 1019 346.5 972.0Q379 925 452.5 889.5Q526 854 649 823Q879 766 997.5 654.5Q1116 543 1116 379Q1116 262 1053.0 171.5Q990 81 875.5 30.0Q761 -21 606 -21Z" transform="translate(27.70, 102.00) scale(0.012695, -0.012695)"/>
    <path d="M530 -21Q397 -21 292.5 27.5Q188 76 130.0 165.5Q72 255 75 378L78 384H266Q266 308 298.0 251.5Q330 195 389.0 164.0Q448 133 530 133Q655 133 726.0 201.0Q797 269 797 402Q797 537 734.0 601.0Q671 665 535 665H363V819H535Q623 819 675.5 848.5Q728 878 751.5 933.5Q775 989 775 1067Q775 1192 713.0 1257.0Q651 1322 530 1322Q454 1322 396.5 1291.5Q339 1261 307.5 1205.5Q276 1150 276 1075H87L85 1081Q82 1191 137.5 1281.0Q193 1371 294.5 1424.0Q396 1477 530 1477Q732 1477 852.0 1369.5Q972 1262 972 1063Q972 973 917.5 883.5Q863 794 754 747Q885 704 939.5 612.0Q994 520 994 406Q994 274 934.5 178.0Q875 82 770.5 30.5Q666 -21 530 -21Z" transform="translate(43.01, 102.00) scale(0.012695, -0.012695)"/>
    <path d="M522 -21Q399 -21 301.5 24.0Q204 69 149.0 158.0Q94 247 97 377L99 383H277Q277 265 345.5 199.0Q414 133 522 133Q647 133 716.0 221.0Q785 309 785 462Q785 603 715.5 692.5Q646 782 523 782Q407 782 354.5 747.0Q302 712 278 640L114 657L198 1456H967V1168H819L800 1281H365L318 872Q348 895 383.0 912.5Q418 930 459.5 941.0Q501 952 550 953Q684 955 781.0 895.0Q878 835 930.0 724.5Q982 614 982 464Q982 318 929.5 209.0Q877 100 774.5 39.5Q672 -21 522 -21Z" transform="translate(57.05, 102.00) scale(0.012695, -0.012695)"/>
    <path d="M121 0V126L346 154V1245L117 1241V1364L543 1456V154L767 126V0Z" transform="translate(70.77, 102.00) scale(0.012695, -0.012695)"/>
    <path d="M530 -21Q397 -21 292.5 27.5Q188 76 130.0 165.5Q72 255 75 378L78 384H266Q266 308 298.0 251.5Q330 195 389.0 164.0Q448 133 530 133Q655 133 726.0 201.0Q797 269 797 402Q797 537 734.0 601.0Q671 665 535 665H363V819H535Q623 819 675.5 848.5Q728 878 751.5 933.5Q775 989 775 1067Q775 1192 713.0 1257.0Q651 1322 530 1322Q454 1322 396.5 1291.5Q339 1261 307.5 1205.5Q276 1150 276 1075H87L85 1081Q82 1191 137.5 1281.0Q193 1371 294.5 1424.0Q396 1477 530 1477Q732 1477 852.0 1369.5Q972 1262 972 1063Q972 973 917.5 883.5Q863 794 754 747Q885 704 939.5 612.0Q994 520 994 406Q994 274 934.5 178.0Q875 82 770.5 30.5Q666 -21 530 -21Z" transform="translate(81.48, 102.00) scale(0.012695, -0.012695)"/>
    <path d="M675 -21Q534 -21 422.0 33.0Q310 87 231.5 185.5Q153 284 111.5 419.0Q70 554 70 717V738Q70 900 111.5 1035.5Q153 1171 231.5 1270.0Q310 1369 422.0 1423.0Q534 1477 675 1477Q824 1477 937.0 1423.0Q1050 1369 1126.5 1270.0Q1203 1171 1242.0 1035.5Q1281 900 1281 738V717Q1281 554 1242.0 419.0Q1203 284 1126.5 185.5Q1050 87 937.0 33.0Q824 -21 675 -21ZM675 143Q820 143 909.5 215.0Q999 287 1041.0 416.5Q1083 546 1083 717V740Q1083 910 1040.5 1038.5Q998 1167 908.0 1239.5Q818 1312 675 1312Q544 1312 453.0 1239.0Q362 1166 315.0 1037.5Q268 909 268 740V717Q268 547 315.0 417.5Q362 288 453.0 215.5Q544 143 675 143Z" transform="translate(100.60, 102.00) scale(0.012695, -0.012695)"/>
    <path d="M74 0V126L237 154V927L74 955V1082H413L427 921Q481 1007 562.5 1054.5Q644 1102 748 1102Q923 1102 1019.0 999.5Q1115 897 1115 683V154L1278 126V0H755V126L918 154V679Q918 822 861.5 882.0Q805 942 689 942Q604 942 538.5 901.0Q473 860 434 789V154L597 126V0Z" transform="translate(117.75, 102.00) scale(0.012695, -0.012695)"/>
    <path d="M649 -21Q543 -21 465.0 19.5Q387 60 335 139L317 0H147V1405L-16 1433V1560H344V954Q395 1026 470.5 1064.0Q546 1102 647 1102Q781 1102 875.5 1029.5Q970 957 1020.5 826.0Q1071 695 1071 521V500Q1071 344 1020.5 227.0Q970 110 875.5 44.5Q781 -21 649 -21ZM599 139Q738 139 805.5 238.0Q873 337 873 500V521Q873 646 843.0 740.5Q813 835 752.0 888.5Q691 942 597 942Q506 942 443.5 898.0Q381 854 344 780V302Q381 227 444.5 183.0Q508 139 599 139Z" transform="translate(134.80, 102.00) scale(0.012695, -0.012695)"/>
    <path d="M563 -21Q413 -21 304.5 49.5Q196 120 137.0 244.5Q78 369 78 529V551Q78 711 137.0 835.5Q196 960 304.5 1031.0Q413 1102 561 1102Q711 1102 819.5 1031.0Q928 960 987.0 836.0Q1046 712 1046 551V529Q1046 368 987.0 243.5Q928 119 820.0 49.0Q712 -21 563 -21ZM563 133Q657 133 720.5 184.5Q784 236 816.5 325.5Q849 415 849 529V551Q849 665 816.5 754.5Q784 844 720.0 895.5Q656 947 561 947Q467 947 403.0 895.5Q339 844 307.0 754.5Q275 665 275 551V529Q275 415 307.0 325.5Q339 236 403.5 184.5Q468 133 563 133Z" transform="translate(149.34, 102.00) scale(0.012695, -0.012695)"/>
    <path d="M424 -21Q255 -21 167.0 61.5Q79 144 79 294Q79 448 205.0 541.5Q331 635 555 635H748V741Q748 839 688.5 893.0Q629 947 521 947Q453 947 403.0 930.5Q353 914 312 885L291 734H139V982Q212 1041 309.0 1071.5Q406 1102 524 1102Q721 1102 833.0 1008.0Q945 914 945 739V218Q945 197 945.5 177.0Q946 157 948 137L1053 126V0H770Q761 44 756.0 79.0Q751 114 749 149Q692 76 606.5 27.5Q521 -21 424 -21ZM453 144Q551 144 632.0 191.0Q713 238 748 304V500H548Q412 500 344.0 435.0Q276 370 276 290Q276 219 320.0 181.5Q364 144 453 144Z" transform="translate(163.61, 102.00) scale(0.012695, -0.012695)"/>
    <path d="M72 0V126L235 154V927L72 955V1082H411L428 944L430 925Q476 1008 543.5 1055.0Q611 1102 698 1102Q729 1102 761.5 1096.5Q794 1091 808 1086L782 903L645 911Q567 916 514.0 875.5Q461 835 432 767V154L595 126V0Z" transform="translate(177.98, 102.00) scale(0.012695, -0.012695)"/>
    <path d="M499 -21Q367 -21 272.5 44.5Q178 110 128.0 227.0Q78 344 78 500V521Q78 695 128.0 826.0Q178 957 273.0 1029.5Q368 1102 501 1102Q597 1102 670.5 1066.5Q744 1031 796 964V1405L633 1433V1560H796H993V154L1156 126V0H822L806 129Q753 55 676.5 17.0Q600 -21 499 -21ZM549 139Q637 139 697.0 179.0Q757 219 796 292V794Q758 862 697.0 902.0Q636 942 551 942Q457 942 396.0 888.5Q335 835 305.0 740.5Q275 646 275 521V500Q275 337 342.0 238.0Q409 139 549 139Z" transform="translate(188.82, 102.00) scale(0.012695, -0.012695)"/>
    <path d="M67 0V126L230 154V927L67 955V1082H427V154L590 126V0ZM220 1349V1560H427V1349Z" transform="translate(204.28, 102.00) scale(0.012695, -0.012695)"/>
    <path d="M74 0V126L237 154V927L74 955V1082H413L427 921Q481 1007 562.5 1054.5Q644 1102 748 1102Q923 1102 1019.0 999.5Q1115 897 1115 683V154L1278 126V0H755V126L918 154V679Q918 822 861.5 882.0Q805 942 689 942Q604 942 538.5 901.0Q473 860 434 789V154L597 126V0Z" transform="translate(212.56, 102.00) scale(0.012695, -0.012695)"/>
    <path d="M549 -437Q471 -437 380.0 -415.5Q289 -394 220 -357L271 -204Q326 -233 401.0 -252.0Q476 -271 547 -271Q679 -271 740.5 -197.0Q802 -123 802 14V117Q749 49 675.0 14.0Q601 -21 505 -21Q373 -21 277.0 44.5Q181 110 129.5 227.5Q78 345 78 500V521Q78 695 129.5 826.0Q181 957 277.0 1029.5Q373 1102 507 1102Q609 1102 686.0 1062.0Q763 1022 815 946L833 1082H999V14Q999 -126 946.5 -227.0Q894 -328 793.5 -382.5Q693 -437 549 -437ZM554 139Q643 139 703.0 179.5Q763 220 802 294V792Q764 861 703.0 901.5Q642 942 556 942Q462 942 399.5 888.0Q337 834 306.0 739.5Q275 645 275 521V500Q275 337 344.0 238.0Q413 139 554 139ZM969 921 892 1082H1133V956Z" transform="translate(229.61, 102.00) scale(0.012695, -0.012695)"/>
  </g>
</svg>