<?xml version="1.0" encoding="UTF-8"?>
<svg id="Layer_1" data-name="Layer 1" xmlns="http://www.w3.org/2000/svg" viewBox="0 0 873.96 607.28">
  <defs>
    <style>
      .cls-1 {
        stroke: #ad1d1a;
      }

      .cls-1, .cls-2 {
        stroke-miterlimit: 10;
        stroke-width: 10px;
      }

      .cls-1, .cls-3 {
        fill: #ad1d1a;
      }

      .cls-2 {
        fill: #aab3c0;
        stroke: #aab3c0;
      }

      .cls-4 {
        fill: #aab3c0;
      }
    </style>
  </defs>
  <g>
    <path class="cls-4" d="M329.58,129.23c3.39.32,6.61,1.4,9.54,2.79,5.12,2.44,7.42,7.6,6.33,13.13l-6.26,21.05-4.54,14.75c-3.71,12.06,6.72,23.75,19.12,21.42l142.83-26.82,193.91-36.92-49.3-4-278.44-17.64-46.59-2.47-59.16-.08c-14.85-.02-24.38-15.8-17.47-28.95l15.47-29.49,18.04-34.1C280.19,8.42,294.18,0,309.42,0l145.71.07c10.84,0,21.58,2.11,31.61,6.2l304.62,124.14-241.21,107.86-112.48,52.82c-11.23,6.33-20.65,14.18-28.98,23.8l-16.08,21.14h0s-8.77,12.87-8.77,12.87c-7.12,10.46-18.96,16.72-31.62,16.72l-172.48-.05c-16.86,0-27.49-18.13-19.27-32.85l54.95-98.34,47.18-84.68c6.77-10.83,17.19-17.61,29.84-19.83,12.3-2.16,24.71-1.85,37.16-.66Z"/>
    <polygon class="cls-3" points="174.6 276.87 125.15 365.55 85.55 365.51 216.88 128.91 257.18 128.89 223.4 189.76 174.6 276.87"/>
  </g>
  <path class="cls-1" d="M8.57,530.68l70.16-123.97h27.87l71.12,123.97h-32.43l-14.9-27.15H51.82l-14.42,27.15H8.57ZM64.07,481.19h54.3l-26.67-50.46-27.63,50.46Z"/>
  <path class="cls-2" d="M199.6,530.68v-123.97h28.83v100.67h92.98v23.3h-121.81Z"/>
  <path class="cls-2" d="M342.33,530.68l70.16-123.97h27.87l71.12,123.97h-32.43l-14.9-27.15h-78.56l-14.42,27.15h-28.83ZM397.82,481.19h54.3l-26.67-50.46-27.63,50.46Z"/>
  <path class="cls-2" d="M530.3,530.68v-123.97h23.31l58.38,74.96,57.18-74.96h23.06v123.97h-26.67v-76.64c0-3.04.32-7.45.96-13.21-3.04,6.25-5.45,10.57-7.21,12.97l-46.61,61.99h-5.77l-46.61-62.23c-3.36-4.48-5.85-8.73-7.45-12.73.48,4.97.72,9.37.72,13.21v76.64h-23.31Z"/>
  <path class="cls-2" d="M862.48,415.72c-4.33-4-12.42-6.01-24.27-6.01h-91.3c-11.86,0-19.94,2-24.27,6.01-4.33,4-6.49,11.77-6.49,23.3v65.35c0,11.53,2.16,19.3,6.49,23.3,4.32,4.01,12.41,6.01,24.27,6.01h91.3c11.85,0,19.94-2,24.27-6.01,4.32-4,6.49-11.77,6.49-23.3v-65.35c0-11.53-2.16-19.3-6.49-23.3ZM840.13,510.38h-95.14v-78.57h95.14v78.57Z"/>
  <g>
    <path fill="#aab3c0" d="M.6,607.28v-30.46h7.42v30.46H.6Z"/>
    <path fill="#aab3c0" d="M71.96,607.28v-30.46h5.11l25.85,20.23v-20.23h6.7v30.46h-5.12l-25.84-20.52v20.52h-6.7Z"/>
    <path fill="#aab3c0" d="M173.62,607.28v-30.46h20.52c5.95,0,10.49,1.32,13.61,3.96,3.12,2.64,4.68,6.36,4.68,11.16,0,10.22-6.72,15.34-20.16,15.34h-18.65ZM181.11,601.66h9.58c4.94,0,8.47-.67,10.58-2.02,2.35-1.54,3.53-4.21,3.53-8.02,0-6.21-3.53-9.32-10.58-9.32h-13.1v19.37Z"/>
    <path fill="#aab3c0" d="M281.4,576.82v24.84h21.17v-24.84h7.49v23.26c0,2.83-.56,4.74-1.69,5.72-1.13.98-3.23,1.48-6.3,1.48h-20.16c-3.07,0-5.16-.49-6.26-1.48-1.1-.98-1.66-2.89-1.66-5.72v-23.26h7.42Z"/>
    <path fill="#aab3c0" d="M402.22,582.29h-21.02v6.41h19.8c3.07,0,5.16.49,6.26,1.48,1.1.98,1.66,2.89,1.66,5.72v4.18c0,2.83-.55,4.74-1.66,5.72-1.1.98-3.19,1.48-6.26,1.48h-19.8c-3.07,0-5.17-.49-6.3-1.48-1.13-.98-1.69-2.89-1.69-5.72v-.86l6.7-1.22v3.67h22.32v-7.06h-19.73c-3.02,0-5.11-.49-6.26-1.48-1.15-.98-1.73-2.89-1.73-5.72v-3.38c0-2.83.58-4.74,1.73-5.72,1.15-.98,3.24-1.48,6.26-1.48h18.07c2.93,0,4.99.46,6.19,1.37,1.2.91,1.8,2.66,1.8,5.26v.72l-6.34,1.37v-3.24Z"/>
    <path fill="#aab3c0" d="M490.27,582.29v24.98h-7.42v-24.98h-14.69v-5.47h36.86v5.47h-14.76Z"/>
    <path fill="#aab3c0" d="M565.01,607.28v-30.46h27.43c4.75,0,7.13,1.97,7.13,5.9v7.2c0,3.89-2.38,5.83-7.13,5.83h-4.18l14.47,11.52h-10.66l-12.74-11.52h-6.98v11.52h-7.34ZM589.27,582.08h-16.92v8.42h16.92c2.26,0,3.38-.82,3.38-2.45v-3.53c0-1.63-1.13-2.45-3.38-2.45Z"/>
    <path fill="#aab3c0" d="M662.21,607.28v-30.46h7.42v30.46h-7.42Z"/>
    <path fill="#aab3c0" d="M733.56,607.28v-30.46h32.69v5.4h-25.2v6.62h14.69v5.26h-14.69v7.56h25.56v5.62h-33.05Z"/>
    <path fill="#aab3c0" d="M855.96,582.29h-21.02v6.41h19.8c3.07,0,5.16.49,6.26,1.48,1.1.98,1.66,2.89,1.66,5.72v4.18c0,2.83-.55,4.74-1.66,5.72-1.1.98-3.19,1.48-6.26,1.48h-19.8c-3.07,0-5.17-.49-6.3-1.48-1.13-.98-1.69-2.89-1.69-5.72v-.86l6.7-1.22v3.67h22.32v-7.06h-19.73c-3.02,0-5.11-.49-6.26-1.48-1.15-.98-1.73-2.89-1.73-5.72v-3.38c0-2.83.58-4.74,1.73-5.72,1.15-.98,3.24-1.48,6.26-1.48h18.07c2.93,0,4.99.46,6.19,1.37,1.2.91,1.8,2.66,1.8,5.26v.72l-6.34,1.37v-3.24Z"/>
  </g>
</svg>