<?xml version="1.0" encoding="UTF-8"?>
<svg id="Layer_1" data-name="Layer 1" xmlns="http://www.w3.org/2000/svg" viewBox="0 0 731.69 717.55">
  <defs>
    <style>
      .cls-1 {
        fill: #7fb89e;
      }

      .cls-2 {
        fill: #cd9d1b;
      }

      .cls-3 {
        fill: transparent;
      }
    </style>
  </defs>
  <g>
    <path class="cls-3" d="M561.78,184.98c52.26,2.45,102.39-14.89,140.61-49.34,11.61-10.46,21.79-21.6,29.31-35.63-30.82,21.81-65.26,32.95-102.48,33.6-33.77.55-65.72-7-96.46-20.6-21.93-9.7-41.58-21.54-61.93-34.16l-50.65-31.39C374.51,19.16,311.42-.53,257.15.01,188.39.69,122.83,27.26,71.94,73c-16.76,15.88-32.02,32.33-43.85,52.81,68.63-55.71,152.7-77.89,239.25-59.62,52.74,10.78,94.03,34.6,139.31,61.75,48.31,28.97,96.69,54.29,155.12,57.04ZM717.08,214.34c5.87-8.64,11.08-17,14.3-27.43-75.53,66.48-174.28,77.57-265.58,38.98-22.22-9.39-42.14-20.96-62.94-33.08l-54.37-31.67c-30.66-15.91-62.5-27.41-96.63-33.27-35.03-5.58-69.68-5.2-104.25,2.98C86.7,145.27,33.11,183.16.66,237.86c43.11-34.82,93.13-53.28,147.65-55.43,41.01-1.71,80.93,6.43,118.81,22,23.06,9.55,43.78,21.44,65.5,33.53l48.25,26.85c19.71,10.97,39.96,18.63,61.63,25.38,46.73,14.54,95.45,17.72,143.46,7.91,53.49-10.94,100.37-38.49,131.11-83.75ZM671.62,333.94c6.01-8.36,12.6-15.08,16.62-25.09-23.62,19.55-48.52,35.07-76.98,45.66-45.61,16.97-94.61,21.09-142.38,11.29-27.5-5.64-52.67-15.65-77.32-28.68l-53.46-32.52-49.9-30.16c-69.4-37.11-146.2-47.68-218.48-12.55-28.42,14.38-52.74,34.88-69.71,62.78,11.12-6.47,20.95-12.98,32.55-18.12,51.23-23.55,106.82-17.81,157.59,4.89,20.3,9.08,38.35,20.07,57.02,32.04l61.5,39.42c19.99,11.73,39.95,21.38,61.79,29.26,106.86,38.56,228.1,8.91,301.18-78.22Z"/>
    <g>
      <path class="cls-1" d="M671.62,333.94c-73.09,87.13-194.32,116.78-301.18,78.22-21.84-7.88-41.8-17.53-61.79-29.26l-61.5-39.42c-18.67-11.97-36.72-22.96-57.02-32.04-50.77-22.7-106.36-28.45-157.59-4.89-11.6,5.14-21.42,11.65-32.55,18.12,16.97-27.89,41.29-48.4,69.71-62.78,72.28-35.14,149.09-24.56,218.48,12.55l49.9,30.16,53.46,32.52c24.66,13.03,49.82,23.04,77.32,28.68,47.77,9.8,96.77,5.68,142.38-11.29,28.46-10.59,53.36-26.1,76.98-45.66-4.02,10.01-10.62,16.73-16.62,25.09Z"/>
      <g>
        <path class="cls-2" d="M717.08,214.34c-30.75,45.26-77.63,72.81-131.11,83.75-48.01,9.82-96.73,6.63-143.46-7.91-21.67-6.74-41.93-14.41-61.63-25.38l-48.25-26.85c-21.72-12.09-42.44-23.98-65.5-33.53-37.88-15.58-77.8-23.72-118.81-22-54.51,2.14-104.54,20.61-147.65,55.43,32.46-54.69,86.05-92.59,146.94-107,34.58-8.18,69.23-8.56,104.25-2.98,34.13,5.85,65.97,17.36,96.63,33.27l54.37,31.67c20.8,12.11,40.72,23.68,62.94,33.08,91.31,38.59,190.05,27.5,265.58-38.98-3.22,10.44-8.43,18.79-14.3,27.43Z"/>
        <path class="cls-1" d="M561.78,184.98c-58.43-2.74-106.81-28.07-155.12-57.04-45.28-27.15-86.57-50.97-139.31-61.75-86.55-18.27-170.62,3.91-239.25,59.62,11.83-20.48,27.08-36.93,43.85-52.81C122.83,27.26,188.39.69,257.15.01c54.27-.54,117.36,19.15,163.03,47.46l50.65,31.39c20.35,12.61,39.99,24.45,61.93,34.16,30.73,13.6,62.69,21.15,96.46,20.6,37.22-.65,71.66-11.8,102.48-33.6-7.52,14.03-17.7,25.17-29.31,35.63-38.22,34.44-88.34,51.79-140.61,49.34Z"/>
      </g>
    </g>
  </g>
  <g>
    <path fill="#7fb89e" d="M48.14,542.77l1.63-2.67c6.82,0,12.73,1.09,17.73,3.26,4.99,2.18,8.88,5.17,11.65,8.98,2.77,3.81,4.15,8.23,4.15,13.28s-1.48,9.79-4.45,13.95-7.05,7.44-12.24,9.87c-5.19,2.42-11.05,3.63-17.58,3.63-2.67,0-6.06-.15-10.16-.45-4.11-.3-7.84-.45-11.2-.45-3.56,0-6.95.05-10.16.15-3.22.1-6.11.15-8.68.15-.3,0-.44-.3-.44-.89s.15-.89.44-.89c2.77,0,4.92-.25,6.45-.74,1.53-.49,2.62-1.48,3.26-2.97.64-1.48.96-3.66.96-6.53v-68.69c0-2.87-.3-5.02-.89-6.45-.59-1.43-1.66-2.42-3.19-2.97-1.53-.54-3.69-.82-6.45-.82-.2,0-.3-.3-.3-.89s.1-.89.3-.89c2.57,0,5.44.07,8.6.22,3.16.15,6.53.22,10.09.22,2.87,0,5.83-.15,8.9-.45,3.06-.3,6.18-.45,9.35-.45,5.93,0,11,.72,15.21,2.15,4.2,1.44,7.44,3.56,9.72,6.38,2.27,2.82,3.41,6.36,3.41,10.61,0,5.44-2.18,10.41-6.53,14.91-4.35,4.5-10.88,7.64-19.58,9.42ZM43.69,502.57c-1.88,0-3.39.3-4.52.89-1.14.59-1.93,1.56-2.37,2.89-.44,1.34-.67,3.24-.67,5.71v29.08l-5.49-1.04c3.26.1,5.93.17,8.01.22,2.08.05,3.21.07,3.41.07,5.34,0,9.35-2,12.02-6.01s4.01-8.88,4.01-14.61c0-3.76-.57-6.92-1.71-9.5-1.14-2.57-2.77-4.5-4.9-5.79-2.13-1.28-4.72-1.93-7.79-1.93ZM46.51,589.36c6.82,0,11.77-1.75,14.84-5.27,3.06-3.51,4.6-8.48,4.6-14.91,0-7.32-1.76-13.28-5.27-17.88-3.51-4.6-9.12-6.9-16.84-6.9-.99,0-2.67.03-5.04.07-2.37.05-4.9.32-7.57.82l4.9-1.78v36.94c0,1.98.22,3.63.67,4.97.45,1.33,1.41,2.33,2.89,2.97,1.48.64,3.76.96,6.82.96Z"/>
    <path fill="#7fb89e" d="M167.42,499.3c9.1,0,16.1,1.66,20.99,4.97,4.9,3.31,7.34,7.94,7.34,13.87s-1.63,11-4.9,15.5c-3.26,4.5-7.44,7.99-12.54,10.46-5.09,2.47-10.46,3.71-16.1,3.71h-4.23c-1.44,0-2.74-.05-3.93-.15v32.79c0,2.87.25,5.04.74,6.53.49,1.48,1.48,2.47,2.97,2.97,1.48.5,3.76.74,6.82.74.2,0,.3.3.3.89s-.1.89-.3.89c-2.57,0-5.44-.05-8.6-.15-3.17-.1-6.63-.15-10.38-.15-3.56,0-6.95.05-10.16.15-3.22.1-6.11.15-8.68.15-.3,0-.44-.3-.44-.89s.15-.89.44-.89c3.06,0,5.34-.25,6.82-.74,1.48-.49,2.5-1.48,3.04-2.97.54-1.48.82-3.66.82-6.53v-68.69c0-2.87-.25-5.02-.74-6.45-.5-1.43-1.48-2.42-2.97-2.97-1.48-.54-3.76-.82-6.82-.82-.2,0-.3-.3-.3-.89s.1-.89.3-.89c2.57,0,5.44.07,8.6.22,3.16.15,6.53.22,10.09.22,3.26,0,6.85-.15,10.76-.45,3.91-.3,7.59-.45,11.05-.45ZM178.84,523.78c0-5.83-.59-10.29-1.78-13.35-1.19-3.06-2.82-5.17-4.9-6.3-2.08-1.14-4.45-1.71-7.12-1.71-3.96,0-6.78.74-8.46,2.22-1.68,1.48-2.52,3.96-2.52,7.42v31.45c1.38.2,2.87.35,4.45.45,1.58.1,2.97.15,4.15.15,5.83,0,9.99-1.61,12.46-4.82,2.47-3.21,3.71-8.38,3.71-15.5ZM199.32,592.47c-1.48,0-3.88-1.85-7.2-5.56-3.31-3.71-7.29-9.07-11.94-16.1-4.65-7.02-9.89-15.43-15.73-25.22l13.65-4.15c7.91,11.97,14.66,21.56,20.25,28.78,5.59,7.22,10.56,12.44,14.91,15.65,4.35,3.21,8.5,4.82,12.46,4.82.2,0,.3.3.3.89s-.1.89-.3.89h-26.41Z"/>
    <path fill="#7fb89e" d="M360.28,590.69c.49,0,.74.3.74.89s-.25.89-.74.89c-2.97,0-6.06-.1-9.27-.3-3.22-.2-6.31-.3-9.27-.3-3.36,0-6.28.1-8.75.3-2.47.2-5.24.3-8.31.3-.4,0-.59-.3-.59-.89s.2-.89.59-.89c4.05,0,6.4-.82,7.05-2.45.64-1.63-.27-4.87-2.74-9.72l-30.12-59.49,7.27-12.76-29.52,65.13c-2.67,5.93-2.72,10.63-.15,14.09,2.57,3.46,6.62,5.19,12.17,5.19.49,0,.74.3.74.89s-.25.89-.74.89c-2.97,0-5.69-.1-8.16-.3-2.47-.2-5.59-.3-9.35-.3s-6.95.1-9.27.3c-2.32.2-5.17.3-8.53.3-.39,0-.59-.3-.59-.89s.2-.89.59-.89c2.67,0,4.97-.57,6.9-1.71,1.93-1.14,3.86-3.21,5.79-6.23,1.93-3.02,4.13-7.29,6.6-12.83l32.19-70.77c.1-.3.54-.47,1.33-.52.79-.05,1.24.12,1.34.52l37.09,72.99c2.37,4.65,4.43,8.33,6.16,11.05,1.73,2.72,3.36,4.65,4.9,5.79,1.53,1.14,3.09,1.71,4.67,1.71ZM279.28,558.5l2.23-4.15h42.73l1.04,4.15h-45.99Z"/>
    <path fill="#7fb89e" d="M398.71,590.55l52.07-87.09c.3-.49.42-.82.37-.96-.05-.15-.42-.22-1.11-.22-6.13,0-11.55.12-16.25.37-4.7.25-8.8.72-12.31,1.41-3.51.69-6.55,1.76-9.12,3.19-2.57,1.43-4.85,3.31-6.82,5.64-1.98,2.33-3.81,5.22-5.49,8.68-.1.2-.45.25-1.04.15-.59-.1-.84-.3-.74-.59l5.93-25.81c.1-.2.45-.25,1.04-.15.59.1.84.25.74.44-.3,1.78.1,2.92,1.19,3.41,1.09.5,3.51.74,7.27.74h54.15c.49,0,.87.25,1.11.74.25.5.22.89-.07,1.19l-51.33,86.79c-.4.5-.54.82-.45.96.1.15.45.22,1.04.22h29.97c3.66,0,7.14-.91,10.46-2.75,3.31-1.83,6.16-4.25,8.53-7.27,2.37-3.02,3.86-6.3,4.45-9.87.1-.3.39-.45.89-.45s.74.15.74.45l-2.08,21.51c0,.3-.1.62-.3.96-.2.35-.54.52-1.04.52-7.32-.1-15.06-.17-23.22-.22-8.16-.05-16.32-.07-24.48-.07h-23.37c-.4,0-.69-.22-.89-.67-.2-.44-.15-.86.15-1.26Z"/>
    <path fill="#7fb89e" d="M563.53,594.25c-7.12,0-13.57-1.26-19.36-3.78s-10.73-6.01-14.84-10.46c-4.11-4.45-7.27-9.57-9.5-15.36-2.22-5.79-3.34-11.94-3.34-18.47,0-8.01,1.56-15.03,4.67-21.07,3.12-6.03,7.24-11.05,12.39-15.06,5.14-4,10.78-7,16.91-8.98,6.13-1.98,12.21-2.97,18.25-2.97,7.32,0,13.87,1.31,19.66,3.93,5.79,2.62,10.7,6.16,14.76,10.61,4.05,4.45,7.14,9.5,9.27,15.13,2.13,5.64,3.19,11.42,3.19,17.36,0,6.92-1.39,13.35-4.15,19.29-2.77,5.93-6.55,11.13-11.35,15.58-4.8,4.45-10.34,7.94-16.62,10.46-6.28,2.52-12.93,3.78-19.95,3.78ZM568.43,590.55c5.54,0,10.48-1.58,14.83-4.75,4.35-3.16,7.79-7.81,10.31-13.95,2.52-6.13,3.78-13.6,3.78-22.4s-1.39-17.21-4.15-24.33c-2.77-7.12-6.73-12.73-11.87-16.84-5.14-4.1-11.33-6.16-18.54-6.16-9,0-15.93,3.41-20.77,10.24-4.85,6.82-7.27,16.27-7.27,28.34,0,7.22.84,13.87,2.52,19.95,1.68,6.08,4.03,11.37,7.05,15.87,3.02,4.5,6.58,7.96,10.68,10.38,4.1,2.42,8.58,3.63,13.43,3.63Z"/>
    <path fill="#7fb89e" d="M678.36,514.73c0,3.76.96,7.05,2.89,9.87,1.93,2.82,4.45,5.37,7.57,7.64,3.12,2.28,6.4,4.55,9.87,6.82,3.76,2.37,7.34,4.87,10.76,7.49,3.41,2.62,6.23,5.64,8.46,9.05s3.34,7.49,3.34,12.24c0,5.24-1.41,9.84-4.23,13.8-2.82,3.96-6.63,7.05-11.42,9.27-4.8,2.23-10.26,3.34-16.39,3.34-2.97,0-6.06-.3-9.27-.89-3.22-.59-6.13-1.34-8.75-2.23-2.62-.89-4.52-1.83-5.71-2.82-.4-.3-.74-.62-1.04-.96-.3-.35-.45-.96-.45-1.85l-.44-23.59c-.1-.49.12-.76.67-.82.54-.05.87.12.96.52,1.48,3.07,3.12,6.31,4.9,9.72s3.78,6.55,6.01,9.42c2.23,2.87,4.72,5.22,7.49,7.05,2.77,1.83,5.93,2.74,9.49,2.74,2.27,0,4.45-.39,6.53-1.19,2.08-.79,3.78-2.23,5.12-4.3s2-4.94,2-8.6c0-4.65-1.04-8.63-3.12-11.94-2.08-3.31-4.75-6.23-8.01-8.75-3.26-2.52-6.68-4.92-10.24-7.2-3.46-2.27-6.78-4.62-9.94-7.05-3.17-2.42-5.74-5.19-7.71-8.31-1.98-3.12-2.97-6.85-2.97-11.2,0-5.54,1.56-10.06,4.67-13.58,3.12-3.51,7.07-6.11,11.87-7.79,4.8-1.68,9.67-2.52,14.61-2.52,3.56,0,7.12.32,10.68.96,3.56.64,6.38,1.41,8.46,2.3.99.4,1.61.84,1.85,1.33.25.5.37,1.04.37,1.63v21.81c0,.3-.22.52-.67.67-.44.15-.77.07-.96-.22-.59-1.19-1.43-3.14-2.52-5.86-1.09-2.72-2.52-5.56-4.3-8.53-1.78-2.97-4.06-5.51-6.82-7.64-2.77-2.12-6.13-3.19-10.09-3.19-2.47,0-4.72.5-6.75,1.48-2.03.99-3.66,2.45-4.9,4.38-1.24,1.93-1.85,4.43-1.85,7.49Z"/>
  </g>
  <g>
    <path fill="#7fb89e" d="M17.96,692.8c-.12,0-.18-.18-.18-.54s.06-.54.18-.54c2.22,0,3.85-.15,4.91-.45,1.05-.3,1.77-.9,2.16-1.8.39-.9.58-2.22.58-3.96v-41.67c0-1.74-.18-3.04-.54-3.92-.36-.87-1.07-1.47-2.12-1.8-1.05-.33-2.6-.5-4.63-.5-.18,0-.27-.18-.27-.54s.09-.54.27-.54h36.72c.6,0,.9.27.9.81l.18,11.34c0,.18-.17.29-.5.31-.33.03-.53-.04-.58-.22-.42-3.3-1.59-5.81-3.51-7.52-1.92-1.71-4.44-2.56-7.56-2.56h-4.59c-2.64,0-4.41.36-5.31,1.08-.9.72-1.35,2.1-1.35,4.14v41.22c0,1.8.24,3.17.72,4.1.48.93,1.48,1.57,3.01,1.93,1.53.36,3.79.54,6.79.54.12,0,.18.18.18.54s-.06.54-.18.54c-1.98,0-4.13-.03-6.43-.09-2.31-.06-4.91-.09-7.79-.09-2.04,0-4.02.03-5.94.09-1.92.06-3.63.09-5.13.09ZM50.54,673.18c0-2.58-.78-4.48-2.34-5.71-1.56-1.23-4.05-1.84-7.47-1.84h-11.43v-2.07h11.7c3.3,0,5.7-.54,7.2-1.62,1.5-1.08,2.25-2.7,2.25-4.86,0-.12.18-.18.54-.18s.54.06.54.18c0,1.86-.02,3.3-.04,4.32-.03,1.02-.04,2.1-.04,3.24,0,1.38.03,2.76.09,4.14.06,1.38.09,2.85.09,4.41,0,.12-.18.18-.54.18s-.54-.06-.54-.18Z"/>
    <path fill="#7fb89e" d="M74.03,692.8c-.18,0-.27-.18-.27-.54s.09-.54.27-.54c2.16,0,3.6-.41,4.32-1.21.72-.81,1.08-2.47,1.08-5v-16.56c0-2.1-.21-3.63-.63-4.59-.42-.96-1.17-1.44-2.25-1.44-.48,0-1.04.09-1.67.27-.63.18-1.37.48-2.21.9-.24.06-.44-.07-.58-.41-.15-.33-.11-.55.13-.67l12.24-5.67c.18-.06.3-.09.36-.09.18,0,.37.09.58.27.21.18.31.39.31.63,0,.54-.03,1.71-.09,3.51-.06,1.8-.09,4.17-.09,7.11v16.74c0,2.52.34,4.18,1.03,5,.69.81,2.14,1.21,4.37,1.21.18,0,.27.18.27.54s-.09.54-.27.54c-1.08,0-2.36-.03-3.83-.09-1.47-.06-3.01-.09-4.63-.09s-3.15.03-4.59.09c-1.44.06-2.73.09-3.87.09ZM81.95,647.17c-1.38,0-2.48-.37-3.29-1.12-.81-.75-1.21-1.81-1.21-3.2s.4-2.34,1.21-3.06c.81-.72,1.9-1.08,3.29-1.08s2.35.36,3.1,1.08c.75.72,1.12,1.74,1.12,3.06,0,2.88-1.41,4.32-4.23,4.32Z"/>
    <path fill="#7fb89e" d="M106.79,692.8c-.18,0-.27-.18-.27-.54s.09-.54.27-.54c2.16,0,3.58-.41,4.27-1.21.69-.81,1.04-2.47,1.04-5v-17.55c0-1.92-.23-3.33-.68-4.23s-1.21-1.35-2.29-1.35c-.6,0-1.29.11-2.07.31-.78.21-1.68.53-2.7.95-.24.12-.42.02-.54-.31-.12-.33-.09-.55.09-.68l11.07-5.31c.24-.06.42-.09.54-.09.54,0,1.14.66,1.8,1.98.66,1.32.99,3.21.99,5.67v20.61c0,2.52.34,4.18,1.03,5,.69.81,2.14,1.21,4.37,1.21.18,0,.27.18.27.54s-.09.54-.27.54c-1.14,0-2.43-.03-3.87-.09-1.44-.06-2.97-.09-4.59-.09s-3.17.03-4.64.09c-1.47.06-2.74.09-3.82.09ZM131,692.8c-.18,0-.27-.18-.27-.54s.09-.54.27-.54c2.16,0,3.58-.41,4.27-1.21.69-.81,1.04-2.47,1.04-5v-14.13c0-3.42-.63-5.95-1.89-7.61-1.26-1.65-3.27-2.47-6.03-2.47-2.1,0-4.22.62-6.35,1.84-2.13,1.23-3.95,2.92-5.44,5.08l-.36-1.08c2.46-3.36,5-5.91,7.6-7.65,2.61-1.74,5.35-2.61,8.24-2.61,3.3,0,5.86.96,7.69,2.88,1.83,1.92,2.75,4.65,2.75,8.19v17.55c0,2.52.34,4.18,1.03,5,.69.81,2.14,1.21,4.37,1.21.18,0,.27.18.27.54s-.09.54-.27.54c-1.14,0-2.43-.03-3.87-.09-1.44-.06-2.97-.09-4.59-.09s-3.17.03-4.64.09c-1.47.06-2.74.09-3.82.09Z"/>
    <path fill="#7fb89e" d="M170.59,693.43c-2.4,0-4.22-.6-5.44-1.8-1.23-1.2-1.85-2.7-1.85-4.5,0-1.44.39-2.66,1.17-3.65.78-.99,1.9-1.87,3.38-2.65,1.47-.78,3.25-1.56,5.36-2.34l10.26-3.78.27,1.17-8.19,3.33c-.9.36-1.73.78-2.48,1.26-.75.48-1.37,1.07-1.85,1.75-.48.69-.72,1.52-.72,2.48,0,1.44.48,2.62,1.44,3.55.96.93,2.13,1.39,3.51,1.39.54,0,1.11-.09,1.71-.27.6-.18,1.32-.51,2.16-.99l5.31-3.33.18,1.26-6.57,4.32c-1.38,1.02-2.65,1.74-3.82,2.16s-2.45.63-3.83.63ZM187.15,693.34c-.24.12-.51.18-.81.18-.9,0-1.75-.67-2.56-2.02-.81-1.35-1.21-3.29-1.21-5.81v-16.47c0-3.72-.47-6.37-1.4-7.96-.93-1.59-2.21-2.38-3.83-2.38-1.5,0-2.7.4-3.6,1.21-.9.81-1.55,1.74-1.93,2.79-.39,1.05-.68,2.02-.85,2.92-.12,1.14-.47,2.1-1.04,2.88-.57.78-1.52,1.17-2.83,1.17-1.2,0-2.07-.3-2.61-.9-.54-.6-.81-1.26-.81-1.98,0-1.26.58-2.46,1.75-3.6,1.17-1.14,2.65-2.19,4.46-3.15,1.8-.96,3.67-1.71,5.62-2.25,1.95-.54,3.7-.81,5.26-.81,2.46,0,4.39.8,5.81,2.38,1.41,1.59,2.12,3.92,2.12,6.97v16.56c0,1.98.27,3.45.81,4.41.54.96,1.41,1.44,2.61,1.44,1.02,0,2.34-.33,3.96-.99.24-.12.43-.01.58.32.15.33.07.56-.23.67l-9.27,4.41Z"/>
    <path fill="#7fb89e" d="M209.38,692.8c-.18,0-.27-.18-.27-.54s.09-.54.27-.54c2.16,0,3.58-.41,4.27-1.21.69-.81,1.04-2.47,1.04-5v-17.55c0-1.92-.23-3.33-.68-4.23s-1.21-1.35-2.29-1.35c-.6,0-1.29.11-2.07.31-.78.21-1.68.53-2.7.95-.24.12-.42.02-.54-.31-.12-.33-.09-.55.09-.68l11.07-5.31c.24-.06.42-.09.54-.09.54,0,1.14.66,1.8,1.98.66,1.32.99,3.21.99,5.67v20.61c0,2.52.34,4.18,1.03,5,.69.81,2.14,1.21,4.37,1.21.18,0,.27.18.27.54s-.09.54-.27.54c-1.14,0-2.43-.03-3.87-.09-1.44-.06-2.97-.09-4.59-.09s-3.17.03-4.64.09c-1.47.06-2.74.09-3.82.09ZM233.59,692.8c-.18,0-.27-.18-.27-.54s.09-.54.27-.54c2.16,0,3.58-.41,4.27-1.21.69-.81,1.04-2.47,1.04-5v-14.13c0-3.42-.63-5.95-1.89-7.61-1.26-1.65-3.27-2.47-6.03-2.47-2.1,0-4.22.62-6.35,1.84-2.13,1.23-3.95,2.92-5.44,5.08l-.36-1.08c2.46-3.36,5-5.91,7.6-7.65,2.61-1.74,5.35-2.61,8.24-2.61,3.3,0,5.86.96,7.69,2.88,1.83,1.92,2.75,4.65,2.75,8.19v17.55c0,2.52.34,4.18,1.03,5,.69.81,2.14,1.21,4.37,1.21.18,0,.27.18.27.54s-.09.54-.27.54c-1.14,0-2.43-.03-3.87-.09-1.44-.06-2.97-.09-4.59-.09s-3.17.03-4.64.09c-1.47.06-2.74.09-3.82.09Z"/>
    <path fill="#7fb89e" d="M282.19,693.88c-4.14,0-7.51-.89-10.12-2.66-2.61-1.77-4.53-4.02-5.76-6.75-1.23-2.73-1.85-5.5-1.85-8.33,0-3,.6-5.67,1.8-8.01,1.2-2.34,2.77-4.32,4.72-5.94,1.95-1.62,4.12-2.85,6.53-3.69,2.4-.84,4.77-1.26,7.11-1.26,1.68,0,3.34.24,5,.72,1.65.48,3.01,1.16,4.09,2.03,1.08.87,1.62,1.91,1.62,3.1,0,.84-.31,1.61-.94,2.29-.63.69-1.55,1.04-2.75,1.04s-2.07-.33-2.79-.99c-.72-.66-1.29-1.5-1.71-2.52-.54-1.2-1.2-2.14-1.98-2.83-.78-.69-2.01-1.04-3.69-1.04-3.18,0-5.66,1.32-7.43,3.96-1.77,2.64-2.65,6.09-2.65,10.35,0,3,.51,5.81,1.53,8.42,1.02,2.61,2.61,4.7,4.77,6.26,2.16,1.56,4.98,2.34,8.46,2.34,1.68,0,3.25-.23,4.73-.68,1.47-.45,2.89-1.15,4.27-2.11.18-.12.37-.06.58.18.21.24.23.42.05.54-2.04,1.86-4.14,3.26-6.3,4.18-2.16.93-4.59,1.4-7.29,1.4Z"/>
    <path fill="#7fb89e" d="M312.07,692.8c-.18,0-.27-.18-.27-.54s.09-.54.27-.54c2.16,0,3.6-.41,4.32-1.21.72-.81,1.08-2.47,1.08-5v-16.56c0-2.1-.21-3.63-.63-4.59-.42-.96-1.17-1.44-2.25-1.44-.48,0-1.04.09-1.67.27-.63.18-1.37.48-2.21.9-.24.06-.44-.07-.58-.41-.15-.33-.11-.55.13-.67l12.24-5.67c.18-.06.3-.09.36-.09.18,0,.37.09.58.27.21.18.31.39.31.63,0,.54-.03,1.71-.09,3.51-.06,1.8-.09,4.17-.09,7.11v16.74c0,2.52.34,4.18,1.03,5,.69.81,2.14,1.21,4.37,1.21.18,0,.27.18.27.54s-.09.54-.27.54c-1.08,0-2.36-.03-3.83-.09-1.47-.06-3.01-.09-4.63-.09s-3.15.03-4.59.09c-1.44.06-2.73.09-3.87.09ZM319.99,647.17c-1.38,0-2.48-.37-3.29-1.12-.81-.75-1.21-1.81-1.21-3.2s.4-2.34,1.21-3.06c.81-.72,1.9-1.08,3.29-1.08s2.35.36,3.1,1.08c.75.72,1.12,1.74,1.12,3.06,0,2.88-1.41,4.32-4.23,4.32Z"/>
    <path fill="#7fb89e" d="M352.84,693.43c-2.4,0-4.22-.6-5.44-1.8-1.23-1.2-1.85-2.7-1.85-4.5,0-1.44.39-2.66,1.17-3.65.78-.99,1.9-1.87,3.38-2.65,1.47-.78,3.25-1.56,5.36-2.34l10.26-3.78.27,1.17-8.19,3.33c-.9.36-1.73.78-2.47,1.26-.75.48-1.37,1.07-1.85,1.75-.48.69-.72,1.52-.72,2.48,0,1.44.48,2.62,1.44,3.55.96.93,2.13,1.39,3.51,1.39.54,0,1.11-.09,1.71-.27s1.32-.51,2.16-.99l5.31-3.33.18,1.26-6.57,4.32c-1.38,1.02-2.65,1.74-3.82,2.16s-2.45.63-3.83.63ZM369.4,693.34c-.24.12-.51.18-.81.18-.9,0-1.75-.67-2.56-2.02-.81-1.35-1.21-3.29-1.21-5.81v-16.47c0-3.72-.46-6.37-1.39-7.96-.93-1.59-2.21-2.38-3.83-2.38-1.5,0-2.7.4-3.6,1.21-.9.81-1.54,1.74-1.94,2.79-.39,1.05-.67,2.02-.85,2.92-.12,1.14-.47,2.1-1.04,2.88-.57.78-1.52,1.17-2.83,1.17-1.2,0-2.07-.3-2.61-.9-.54-.6-.81-1.26-.81-1.98,0-1.26.58-2.46,1.75-3.6,1.17-1.14,2.65-2.19,4.46-3.15,1.8-.96,3.67-1.71,5.63-2.25,1.95-.54,3.7-.81,5.26-.81,2.46,0,4.39.8,5.81,2.38,1.41,1.59,2.11,3.92,2.11,6.97v16.56c0,1.98.27,3.45.81,4.41.54.96,1.41,1.44,2.61,1.44,1.02,0,2.34-.33,3.96-.99.24-.12.43-.01.58.32.15.33.08.56-.22.67l-9.27,4.41Z"/>
    <path fill="#7fb89e" d="M391.18,692.8c-.12,0-.18-.18-.18-.54s.06-.54.18-.54c2.22,0,3.67-.41,4.37-1.21.69-.81,1.04-2.47,1.04-5l.09-46.26c0-2.1-.2-3.63-.58-4.59-.39-.96-1.12-1.44-2.21-1.44-.9,0-2.19.39-3.87,1.17-.24.12-.44,0-.58-.36-.15-.36-.13-.57.04-.63l12.06-5.76c.12-.06.24-.09.36-.09.18,0,.41.09.67.27.27.18.41.39.41.63v57.06c0,2.46.33,4.11.99,4.95.66.84,2.1,1.26,4.32,1.26.24,0,.36.18.36.54s-.12.54-.36.54c-1.08,0-2.36-.03-3.82-.09-1.47-.06-3.05-.09-4.73-.09s-3.17.03-4.63.09c-1.47.06-2.78.09-3.92.09Z"/>
    <path fill="#7fb89e" d="M487.39,693.88c-5.16,0-9.76-.76-13.82-2.29-4.05-1.53-7.47-3.65-10.26-6.34-2.79-2.7-4.92-5.82-6.39-9.36-1.47-3.54-2.21-7.29-2.21-11.25,0-4.5.85-8.52,2.56-12.06,1.71-3.54,4.12-6.58,7.25-9.13,3.12-2.55,6.75-4.5,10.89-5.85,4.14-1.35,8.64-2.03,13.5-2.03,3.12,0,6.07.27,8.86.81s5.12,1.32,6.98,2.34c.54.24.84.45.9.63.06.18.12.66.18,1.44l1.17,11.16c0,.18-.15.3-.45.36-.3.06-.51-.03-.63-.27-.6-1.86-1.41-3.67-2.43-5.45-1.02-1.77-2.31-3.36-3.87-4.77-1.56-1.41-3.41-2.53-5.54-3.38-2.13-.84-4.61-1.26-7.42-1.26-4.44,0-8.46,1.04-12.06,3.11-3.6,2.07-6.45,5.04-8.55,8.91-2.1,3.87-3.15,8.51-3.15,13.91,0,3.84.58,7.53,1.76,11.07,1.17,3.54,2.89,6.69,5.17,9.45,2.28,2.76,5.08,4.94,8.42,6.52,3.33,1.59,7.15,2.39,11.47,2.39,2.7,0,4.84-.34,6.44-1.04,1.59-.69,2.74-1.83,3.46-3.42.72-1.59,1.08-3.76,1.08-6.53s-.18-5-.54-6.34c-.36-1.35-1.23-2.23-2.61-2.66-1.38-.42-3.63-.63-6.75-.63-.36,0-.54-.24-.54-.72s.15-.72.45-.72c3.96.24,7.54.38,10.75.41,3.21.03,6.55-.04,10.04-.22.3,0,.45.21.45.63s-.15.63-.45.63c-1.26-.06-2.19.13-2.79.58-.6.45-.98,1.43-1.12,2.92-.15,1.5-.23,3.84-.23,7.02,0,1.98.06,3.45.18,4.41.12.96.22,1.67.31,2.12s.14.92.14,1.4c0,.36-.06.6-.18.72-.12.12-.39.24-.81.36-3.12.66-6.41,1.23-9.86,1.71s-6.71.72-9.76.72Z"/>
    <path fill="#7fb89e" d="M527.89,692.8c-.18,0-.27-.18-.27-.54s.09-.54.27-.54c2.16,0,3.58-.41,4.27-1.21.69-.81,1.04-2.47,1.04-5v-17.55c0-1.92-.22-3.33-.67-4.23-.45-.9-1.21-1.35-2.29-1.35-.6,0-1.29.11-2.07.31-.78.21-1.68.53-2.7.95-.24.12-.42.02-.54-.31-.12-.33-.09-.55.09-.68l11.07-5.31c.24-.06.42-.09.54-.09.54,0,1.14.66,1.8,1.98.66,1.32.99,3.21.99,5.67v20.61c0,1.68.23,2.97.68,3.87.45.9,1.29,1.52,2.52,1.84,1.23.33,3.01.5,5.36.5.18,0,.27.18.27.54s-.09.54-.27.54c-1.56,0-3.33-.03-5.31-.09-1.98-.06-4.08-.09-6.3-.09-1.62,0-3.17.03-4.63.09-1.47.06-2.75.09-3.83.09ZM537.43,668.41l-.54-.99c2.28-2.76,4.17-4.86,5.67-6.3,1.5-1.44,2.79-2.44,3.87-3.02,1.08-.57,2.1-.85,3.06-.85,1.26,0,2.52.39,3.78,1.17,1.26.78,1.89,1.77,1.89,2.97,0,.9-.3,1.67-.9,2.29-.6.63-1.41.95-2.43.95-.96,0-1.72-.27-2.29-.81-.57-.54-1.14-1.06-1.71-1.57s-1.34-.77-2.29-.77c-.48,0-1.02.15-1.62.45-.6.3-1.39.95-2.38,1.94-.99.99-2.36,2.51-4.09,4.54Z"/>
    <path fill="#7fb89e" d="M586.12,693.97c-3.66,0-6.83-.87-9.5-2.61-2.67-1.74-4.72-4.06-6.17-6.97-1.44-2.91-2.16-6.04-2.16-9.41,0-3.12.58-5.82,1.75-8.1,1.17-2.28,2.71-4.15,4.63-5.62,1.92-1.47,4.02-2.57,6.3-3.29,2.28-.72,4.53-1.08,6.75-1.08,3.72,0,6.9.9,9.54,2.7,2.64,1.8,4.67,4.11,6.08,6.93,1.41,2.82,2.12,5.79,2.12,8.91,0,3.78-.9,7.07-2.7,9.86s-4.16,4.94-7.07,6.43-6.11,2.25-9.58,2.25ZM588.73,692.26c2.94,0,5.23-1.15,6.88-3.46,1.65-2.31,2.48-5.83,2.48-10.58,0-4.02-.6-7.48-1.8-10.39s-2.8-5.16-4.81-6.75c-2.01-1.59-4.28-2.39-6.79-2.39-2.94,0-5.21,1.12-6.79,3.38-1.59,2.25-2.39,5.57-2.39,9.95,0,3.78.57,7.22,1.71,10.3,1.14,3.09,2.7,5.52,4.68,7.29,1.98,1.77,4.26,2.66,6.84,2.66Z"/>
    <path fill="#7fb89e" d="M634.18,693.61c-3.06,0-5.48-.97-7.25-2.92-1.77-1.95-2.66-4.66-2.66-8.14v-13.59c0-2.28-.2-3.93-.58-4.95-.39-1.02-1.1-1.53-2.12-1.53-.78,0-1.71.27-2.79.81-.24.12-.44,0-.58-.36-.15-.36-.11-.57.13-.63l10.62-4.95c.12-.06.24-.09.36-.09.24,0,.48.09.72.27.24.18.36.39.36.63v20.97c0,3.48.61,6.04,1.84,7.69,1.23,1.65,3.11,2.48,5.62,2.48,2.16,0,4.3-.63,6.44-1.89,2.13-1.26,3.94-2.91,5.44-4.95l.45.99c-2.52,3.36-5.08,5.9-7.7,7.61-2.61,1.71-5.39,2.56-8.32,2.56ZM654.16,658.15v24.75c0,2.04.23,3.51.67,4.41.45.9,1.21,1.35,2.29,1.35.54,0,1.16-.1,1.85-.32.69-.21,1.54-.52,2.56-.95.24-.12.43-.01.58.32.15.33.14.56-.04.67l-11.16,5.31c-.12.06-.27.09-.45.09-.48,0-1.01-.67-1.58-2.03-.57-1.35-.86-3.29-.86-5.8v-17.01c0-2.28-.21-3.93-.63-4.95-.42-1.02-1.11-1.53-2.07-1.53-.78,0-1.74.27-2.88.81-.18.12-.35,0-.5-.36-.15-.36-.11-.57.14-.63l10.62-4.95c.12-.06.24-.09.36-.09.18,0,.41.09.67.27.27.18.41.39.41.63Z"/>
    <path fill="#7fb89e" d="M673.96,717.55c-.18,0-.27-.18-.27-.54s.09-.54.27-.54c2.28,0,3.76-.39,4.46-1.17.69-.78,1.04-2.46,1.04-5.04v-42.12c0-2.04-.23-3.52-.68-4.46-.45-.93-1.28-1.39-2.47-1.39-.54,0-1.2.11-1.98.31-.78.21-1.65.56-2.61,1.04-.24.06-.44-.07-.58-.41-.15-.33-.13-.52.04-.58l10.8-5.22c.18-.12.39-.18.63-.18.78,0,1.47.69,2.07,2.07.6,1.38.9,3.42.9,6.12v44.82c0,1.68.21,2.97.63,3.87.42.9,1.24,1.51,2.47,1.84,1.23.33,3.07.5,5.54.5.18,0,.27.18.27.54s-.09.54-.27.54c-1.62,0-3.42-.03-5.4-.09-1.98-.06-4.08-.09-6.3-.09-1.62,0-3.18.03-4.68.09-1.5.06-2.79.09-3.87.09ZM694.48,693.97c-2.28,0-4.27-.24-5.98-.72s-3.68-1.38-5.9-2.7l1.89-5.13c1.56,1.86,3.25,3.42,5.08,4.68,1.83,1.26,4.27,1.89,7.33,1.89s5.47-1.33,7.42-4.01c1.95-2.67,2.92-6.58,2.92-11.74s-1.14-8.96-3.42-11.57c-2.28-2.61-5.01-3.92-8.19-3.92-2.52,0-4.72.69-6.61,2.07-1.89,1.38-3.74,3.06-5.54,5.04l-.81-.81c3.06-3.54,6-6.12,8.82-7.74,2.82-1.62,5.67-2.43,8.55-2.43,2.52,0,4.83.65,6.93,1.94,2.1,1.29,3.79,3.17,5.08,5.62,1.29,2.46,1.93,5.46,1.93,9,0,3.72-.62,6.88-1.84,9.49-1.23,2.61-2.85,4.73-4.86,6.35-2.01,1.62-4.13,2.81-6.34,3.55-2.22.75-4.38,1.12-6.48,1.12Z"/>
  </g>
</svg>