<?xml version="1.0" encoding="UTF-8"?>
<svg id="Layer_1" data-name="Layer 1" xmlns="http://www.w3.org/2000/svg" viewBox="0 0 668.51 766.53">
  <defs>
    <style>
      .cls-1 {
        fill: #3ea69f;
      }

      .cls-2 {
        fill: #f98978;
      }

      .cls-3 {
        fill: #5dbab4;
        stroke: #5dbab4;
        stroke-miterlimit: 10;
        stroke-width: 5px;
      }
    </style>
  </defs>
  <g>
    <path class="cls-2" d="M628.74,357.97c.03-16.19,5.81-28.37-12.29-56.13-12.4-19.03-28.78-31.58-50.7-35.72-11.71-2.21-23.54-2.05-35.24-.52l-13.96,3.01c-27.9,8.52-46.96,25.16-63.98,48.22l-13.02,17.63c-7.4,10.02-18.71,15.92-30.98,16.04l-41.64.42c-4.45.04-8.88,1.86-10.92,6.19l-7.04,14.94-15.85,34.13-6.63,14.3c-2.93,6.31-5.94,12.35-13.92,13.22-6.68.73-11.51-4.84-12.76-11.39l-3.66-19.27-7.73-41.06-12.25-67.79-6.79-39.17-11.86-69.74-4.32-21.55-21.47,102.89-9.7,49.7-23.78,115.56c-1.57,5.51-9.5,7.67-13.39,6.98-4.95-.89-8.76-4.59-10.55-10.12l-24.21-74.72-20.92-65.59-18.9,46.87c-2.25,5.58-7.15,8.82-13.36,8.67l-87.92-.17c-5.06,0-9.59-4.9-8.95-9.58.51-3.73,4.68-7.92,8.74-7.93l73.13-.26c6.15-.01,8.28-6.47,10.03-11.09l29.34-77.38c1.55-4.1,6.81-5.6,10.04-5.46,3.85.18,7.63,2.24,9.04,6.73l23.89,76.15,19.95,62.68,10.57-53.77,26.63-136.54,7.63-39.43,3.11-16.88,12.09-61.58c1.06-5.38,4.68-9.01,9.21-9.28,5.6-.33,10.28,2.31,11.19,7.84l6.78,41.28,21.62,125.54,4.71,26.57,7.15,41.64,9.25,52.52c1.29,7.33,1.53,14.46,4.44,20.97l9.5-19.36,8.8-19.08c3.56-7.73,9.31-11.93,18.15-11.98l45.59-.22c10.47-.05,17.83-6.75,23.47-14.69l8.72-12.29c9.59-13.51,24.61-28.45,38.29-37.68,14.54-9.81,30.1-16.31,47.24-19.79l8.72-1.31c25.66-2.3,51.38,2.66,73,16.76,30.51,19.16,42.77,54.67,40.53,73.92-2.24,19.25-11.89,27.15-11.89,27.15Z"/>
    <path class="cls-1" d="M623.59,433.01c-21.15,7.88-43.1,5.59-61.98-6.67-20.87-13.56-32.18-37.61-30.54-62.54,1.67-25.42,19.92-47.3,45.46-49.96,26.89-2.8,46.46,16.51,52.51,43.03,8.03-37.93-14.9-74.55-49.9-87.92-24.5-9.35-50.35-8.17-74.17,2.55-14.75,6.64-27.84,15.28-38.47,27.41l-28.93,33.03c-18.79,21.45-32.45,36.74-57,53.13-11.95,7.98-24.73,14.37-38.37,18.92l-8.61,18.54c-2.99,6.44-7.5,16.16-19.91,17.52-10.01,1.08-18.81-6.25-20.94-17.45l-2.12-11.19c-16.39-.46-32.77-3.14-49.32-6.54l-26.45-5.43-2.13-.36-6.89,33.47-.08.27c-2.48,8.67-11.86,12.55-18.97,12.55-1.04,0-2.03-.08-2.95-.25-7.72-1.38-13.68-6.92-16.36-15.19l-12.41-38.32-14.52.35c-22.76,2.24-43.94,7.03-64.81,16.24-25.21,11.13-48.27,25.9-66.43,48.07,3.85-.33,7.57-1.01,10.94-1.87,20.42-5.23,48.77,3.78,67.19,13.84l18.85,10.29,56.45,36.54c24.9,16.11,50.48,29.86,78.09,40.68,19.73,7.73,38.91,14.36,59.74,17.21l33.17,4.55,14,1.18,29.06.1,16.72-1.28,9.33-.85,9.66-1.07c38.2-5.9,83.5-18.84,116.82-38l19.62-11.28c17.32-9.96,33.1-21.67,47.24-35.84l18.9-18.93,20.25-24.9,6.46-9.52c4.01-7.68,9.55-14.21,11.75-23.73-9.46,8.15-18.55,15.36-29.97,19.62Z"/>
  </g>
  <g>
    <path class="cls-3" d="M139.84,630.79c-3.55,1.4-9.04,2.1-16.47,2.1,6.93,3.47,10.4,9.16,10.4,17.08,0,6.52-2.04,11.78-6.13,15.79-4.09,4-9.64,6-16.65,6-2.64,0-5.04-.41-7.18-1.24-2.31,1.65-3.47,3.76-3.47,6.31,0,3.88,2.72,5.82,8.17,5.82h8.54c6.44,0,11.55,1.63,15.35,4.89,3.8,3.26,5.69,7.41,5.69,12.44,0,6.11-2.35,10.92-7.06,14.42-4.7,3.51-11.6,5.26-20.68,5.26s-16.08-1.61-19.99-4.83c-3.92-3.22-5.88-8.13-5.88-14.73h10.03c0,2.72.47,4.89,1.42,6.5.95,1.61,2.56,2.8,4.83,3.59,2.27.78,5.51,1.18,9.72,1.18,5.86,0,10.07-.91,12.63-2.72,2.56-1.82,3.84-4.42,3.84-7.8,0-3.14-1.05-5.53-3.16-7.18-2.1-1.65-5.1-2.48-8.98-2.48h-7.3c-5.69,0-9.95-1.09-12.75-3.28-2.81-2.19-4.21-5.1-4.21-8.73,0-4.21,2.27-7.96,6.81-11.27-3.47-1.98-6.05-4.48-7.74-7.49-1.69-3.01-2.54-6.66-2.54-10.96,0-6.77,2.15-12.21,6.44-16.34,4.29-4.13,9.94-6.19,16.96-6.19,6.52,0,11.58-.45,15.17-1.36,3.59-.91,7.28-2.31,11.08-4.21l3.1,9.41ZM101.39,638.53c-2.1,2.52-3.16,6.17-3.16,10.96s1.09,8.23,3.28,10.83c2.19,2.6,5.22,3.9,9.1,3.9,8.17,0,12.26-4.95,12.26-14.86,0-4.79-1.03-8.42-3.1-10.89-2.06-2.48-5.12-3.71-9.16-3.71s-7.12,1.26-9.22,3.78Z"/>
    <path class="cls-3" d="M193.69,693.56h-9.66l-.62-9.78c-4.54,7.59-10.61,11.39-18.2,11.39-5.2,0-9.29-1.69-12.26-5.08-2.97-3.38-4.46-7.96-4.46-13.74v-47.91h11.14v46.92c0,3.8.72,6.58,2.17,8.36,1.44,1.78,3.61,2.66,6.5,2.66,5.53,0,10.28-3.63,14.24-10.9v-47.05h11.14v65.12Z"/>
    <path class="cls-3" d="M216.59,691.58c-2.31-2.39-3.47-5.74-3.47-10.03v-79.48l11.14-1.24v80.35c0,3.22,1.32,4.83,3.96,4.83,1.07,0,2.27-.25,3.59-.74l2.48,7.8c-2.64,1.4-5.41,2.1-8.29,2.1-3.96,0-7.1-1.2-9.41-3.59Z"/>
    <path class="cls-3" d="M260.98,611.85c-1.45,1.49-2.17,3.8-2.17,6.93v9.66h14.61l-1.24,8.42h-13.37v56.7h-11.14v-56.7h-9.66v-8.42h9.66v-9.53c0-5.45,1.67-9.82,5.01-13.12,3.34-3.3,7.99-4.95,13.93-4.95,4.95,0,9.82,1.2,14.61,3.59l-3.34,7.68c-3.39-1.65-6.77-2.48-10.15-2.48-3.05,0-5.3.74-6.75,2.23Z"/>
    <path class="cls-3" d="M345.6,628.56c2.89,1.16,5.65,2.93,8.29,5.32l-4.95,6.69c-1.98-1.57-3.96-2.74-5.94-3.53-1.98-.78-4.13-1.18-6.44-1.18-4.87,0-8.65,2.06-11.33,6.19-2.68,4.13-4.02,10.57-4.02,19.31,0,16.34,5.12,24.51,15.35,24.51,2.31,0,4.41-.39,6.31-1.18,1.9-.78,3.92-1.96,6.07-3.53l5.2,6.81c-5.28,4.79-11.27,7.18-17.95,7.18-8.34,0-14.88-2.89-19.62-8.67-4.75-5.78-7.12-14.11-7.12-25.01,0-7.1,1.09-13.25,3.28-18.45,2.19-5.2,5.28-9.2,9.29-12.01,4-2.8,8.69-4.21,14.05-4.21,3.47,0,6.64.58,9.53,1.73Z"/>
    <path class="cls-3" d="M406.14,635.62c4.62,5.86,6.93,14.28,6.93,25.26s-2.35,18.92-7.06,25.07c-4.71,6.15-11.19,9.22-19.44,9.22s-14.84-3.01-19.5-9.04c-4.66-6.02-7-14.4-7-25.13s2.35-19.21,7.06-25.2c4.7-5.98,11.22-8.98,19.56-8.98s14.81,2.93,19.44,8.79ZM375.56,641.87c-2.56,4.09-3.84,10.46-3.84,19.13,0,16.92,4.95,25.38,14.86,25.38s14.86-8.5,14.86-25.5c0-8.67-1.24-15.02-3.71-19.07-2.48-4.04-6.15-6.07-11.02-6.07s-8.58,2.04-11.14,6.13Z"/>
    <path class="cls-3" d="M469.77,684.58c.74,1.28,1.9,2.25,3.47,2.91l-2.35,7.55c-3.22-.5-5.74-1.49-7.55-2.97-1.82-1.49-3.1-3.75-3.84-6.81-4.21,6.6-10.11,9.9-17.7,9.9-5.78,0-10.36-1.79-13.74-5.39-3.39-3.59-5.08-8.4-5.08-14.42,0-6.93,2.27-12.21,6.81-15.85,4.54-3.63,11.02-5.45,19.44-5.45h8.42v-5.57c0-4.54-.93-7.82-2.79-9.84-1.86-2.02-4.89-3.03-9.1-3.03-4.54,0-9.82,1.16-15.85,3.47l-2.72-7.8c7.26-2.97,14.03-4.46,20.3-4.46,14.11,0,21.17,7.06,21.17,21.17v30.7c0,2.64.37,4.6,1.11,5.88ZM457.64,676.6v-15.35h-7.18c-10.73,0-16.09,4.5-16.09,13.5,0,3.88.87,6.85,2.6,8.91,1.73,2.06,4.21,3.09,7.43,3.09,5.78,0,10.19-3.38,13.25-10.15Z"/>
    <path class="cls-3" d="M524.74,634.26l-4.71,6.56c-2.64-1.81-5.12-3.18-7.43-4.09-2.31-.91-4.75-1.36-7.3-1.36-3.39,0-6.05.8-7.99,2.41-1.94,1.61-2.91,3.82-2.91,6.62s.93,4.87,2.79,6.44c1.86,1.57,5.38,3.18,10.58,4.83,6.52,2.06,11.27,4.58,14.24,7.55s4.46,7.06,4.46,12.26c0,6.11-2.23,10.92-6.69,14.42-4.46,3.51-10.03,5.26-16.71,5.26-8.83,0-16.3-2.93-22.41-8.79l5.7-6.19c5.2,4.21,10.69,6.31,16.47,6.31,3.63,0,6.56-.91,8.79-2.72,2.23-1.81,3.34-4.33,3.34-7.55,0-2.31-.39-4.17-1.18-5.57-.79-1.4-2.19-2.66-4.21-3.78-2.02-1.11-4.97-2.29-8.85-3.53-6.19-2.06-10.65-4.54-13.37-7.43-2.72-2.89-4.09-6.56-4.09-11.02,0-3.47.91-6.56,2.72-9.29,1.81-2.72,4.33-4.87,7.55-6.44,3.22-1.57,6.93-2.35,11.14-2.35,7.51,0,14.2,2.48,20.06,7.43Z"/>
    <path class="cls-3" d="M571.54,690.71c-4.13,2.97-8.71,4.46-13.74,4.46-5.28,0-9.35-1.53-12.19-4.58s-4.27-7.34-4.27-12.88v-40.86h-9.29v-8.42h9.29v-14.98l11.14-1.36v16.34h14.36l-1.24,8.42h-13.12v40.73c0,5.61,2.35,8.42,7.06,8.42,1.4,0,2.7-.21,3.9-.62,1.2-.41,2.54-1.03,4.02-1.86l4.09,7.18Z"/>
  </g>
  <g>
    <path fill="#5dbab4" d="M99.87,766.06v-11.63h-9v11.63h-3.35v-24.77h3.35v10.4h9v-10.4h3.35v24.77h-3.35Z"/>
    <path fill="#5dbab4" d="M130.29,741.29l-.4,2.59h-8.57v8.17h7.45v2.59h-7.45v8.78h9.07v2.63h-12.42v-24.77h12.31Z"/>
    <path fill="#5dbab4" d="M155.67,766.06l-1.66-6.3h-8.32l-1.66,6.3h-3.35l7.16-24.77h4.1l7.16,24.77h-3.46ZM146.38,757.13h6.95l-3.46-13.18-3.49,13.18Z"/>
    <path fill="#5dbab4" d="M174.43,741.29v21.92h9.04l-.36,2.84h-12.02v-24.77h3.35Z"/>
    <path fill="#5dbab4" d="M206.14,741.29l-.4,2.74h-6.08v22.03h-3.35v-22.03h-6.26v-2.74h16.09Z"/>
    <path fill="#5dbab4" d="M230.37,766.06v-11.63h-9v11.63h-3.35v-24.77h3.35v10.4h9v-10.4h3.35v24.77h-3.35Z"/>
    <path fill="#5dbab4" d="M260.07,741.42c.96.4,1.91,1.01,2.84,1.85l-1.73,2.02c-.7-.6-1.39-1.04-2.07-1.33-.68-.29-1.43-.43-2.25-.43-1.87,0-3.36.8-4.46,2.39-1.1,1.6-1.66,4.17-1.66,7.72s.55,6.01,1.66,7.65c1.1,1.64,2.59,2.47,4.46,2.47.94,0,1.74-.17,2.41-.5s1.4-.83,2.2-1.48l1.69,1.98c-1.8,1.85-3.96,2.77-6.48,2.77-1.85,0-3.49-.48-4.91-1.44-1.43-.96-2.54-2.41-3.35-4.34-.8-1.93-1.21-4.3-1.21-7.11s.41-5.14,1.24-7.06,1.96-3.36,3.38-4.32,3.04-1.44,4.84-1.44c1.3,0,2.42.2,3.38.59Z"/>
    <path fill="#5dbab4" d="M287.58,766.06l-1.66-6.3h-8.32l-1.66,6.3h-3.35l7.16-24.77h4.1l7.16,24.77h-3.46ZM278.29,757.13h6.95l-3.46-13.18-3.49,13.18Z"/>
    <path fill="#5dbab4" d="M315.15,766.06l-5.33-10.55h-3.49v10.55h-3.35v-24.77h5.8c5.9,0,8.86,2.33,8.86,6.98,0,1.63-.4,3.01-1.19,4.14s-1.96,1.96-3.49,2.48l5.9,11.16h-3.71ZM312.88,751.82c.84-.76,1.26-1.94,1.26-3.55,0-1.51-.43-2.63-1.28-3.35-.85-.72-2.24-1.08-4.16-1.08h-2.38v9.11h2.7c1.73,0,3.01-.38,3.85-1.13Z"/>
    <path fill="#5dbab4" d="M343.56,741.29l-.4,2.59h-8.57v8.17h7.45v2.59h-7.45v8.78h9.07v2.63h-12.42v-24.77h12.31Z"/>
    <path fill="#5dbab4" d="M386.29,743.2c1.56,1.27,2.34,3.18,2.34,5.72,0,2.69-.8,4.69-2.39,5.99-1.6,1.31-3.81,1.96-6.64,1.96h-2.38v9.18h-3.35v-24.77h5.62c2.98,0,5.24.64,6.8,1.91ZM383.73,753.1c.94-.79,1.4-2.17,1.4-4.14,0-1.8-.46-3.1-1.39-3.91-.92-.8-2.33-1.21-4.23-1.21h-2.3v10.44h2.27c1.9,0,3.31-.4,4.25-1.19Z"/>
    <path fill="#5dbab4" d="M411.34,766.06l-1.66-6.3h-8.32l-1.66,6.3h-3.35l7.16-24.77h4.1l7.16,24.77h-3.46ZM402.06,757.13h6.95l-3.46-13.18-3.49,13.18Z"/>
    <path fill="#5dbab4" d="M438.92,766.06l-5.33-10.55h-3.49v10.55h-3.35v-24.77h5.8c5.9,0,8.86,2.33,8.86,6.98,0,1.63-.4,3.01-1.19,4.14s-1.96,1.96-3.49,2.48l5.9,11.16h-3.71ZM436.65,751.82c.84-.76,1.26-1.94,1.26-3.55,0-1.51-.43-2.63-1.28-3.35-.85-.72-2.24-1.08-4.16-1.08h-2.38v9.11h2.7c1.73,0,3.01-.38,3.85-1.13Z"/>
    <path fill="#5dbab4" d="M467.72,741.29l-.4,2.74h-6.08v22.03h-3.35v-22.03h-6.26v-2.74h16.09Z"/>
    <path fill="#5dbab4" d="M495.33,766.06h-4.32l-8.82-21.28c.29,3.17.43,6.25.43,9.25v12.02h-3.02v-24.77h4.28l8.86,21.31c-.1-.84-.2-1.99-.31-3.46-.11-1.46-.16-2.92-.16-4.36v-13.5h3.06v24.77Z"/>
    <path fill="#5dbab4" d="M522.4,741.29l-.4,2.59h-8.57v8.17h7.45v2.59h-7.45v8.78h9.07v2.63h-12.42v-24.77h12.31Z"/>
    <path fill="#5dbab4" d="M547.78,766.06l-5.33-10.55h-3.49v10.55h-3.35v-24.77h5.8c5.9,0,8.86,2.33,8.86,6.98,0,1.63-.4,3.01-1.19,4.14s-1.96,1.96-3.49,2.48l5.9,11.16h-3.71ZM545.51,751.82c.84-.76,1.26-1.94,1.26-3.55,0-1.51-.43-2.63-1.28-3.35-.85-.72-2.24-1.08-4.16-1.08h-2.38v9.11h2.7c1.73,0,3.01-.38,3.85-1.13Z"/>
    <path fill="#5dbab4" d="M573.32,741.54c1.09.48,2.12,1.2,3.08,2.16l-1.69,1.91c-.82-.72-1.63-1.25-2.43-1.6s-1.67-.52-2.61-.52c-1.2,0-2.17.33-2.9.99-.73.66-1.1,1.53-1.1,2.61,0,.72.14,1.34.43,1.85.29.52.78.98,1.48,1.4s1.68.85,2.95,1.28c1.46.53,2.66,1.09,3.6,1.69.94.6,1.66,1.37,2.16,2.3.5.94.76,2.11.76,3.53s-.32,2.68-.97,3.8c-.65,1.12-1.58,1.99-2.79,2.63s-2.63.95-4.27.95c-3,0-5.56-1.08-7.67-3.24l1.76-1.91c.89.79,1.79,1.4,2.72,1.82.92.42,1.95.63,3.08.63,1.42,0,2.55-.4,3.4-1.21.85-.8,1.28-1.91,1.28-3.33,0-1.22-.34-2.2-1.03-2.92-.68-.72-1.94-1.39-3.76-2.02-2.33-.82-4-1.76-5.02-2.84s-1.53-2.48-1.53-4.21c0-1.22.31-2.33.92-3.33.61-1,1.47-1.77,2.57-2.32,1.1-.55,2.35-.83,3.74-.83,1.46,0,2.74.24,3.83.72Z"/>
  </g>
</svg>