<?xml version="1.0" encoding="UTF-8"?>
<svg id="Layer_2" data-name="Layer 2" xmlns="http://www.w3.org/2000/svg" viewBox="0 0 486.08 259.8">
  <defs>
    <style>
      .cls-1 {
        fill: #0f172a;
      }

      .cls-2 {
        fill: blue;
      }
    </style>
  </defs>
  <g>
    <path class="cls-2" d="M264.56,148.69c-.09,0-.19,0-.28-.03-6.46-1.22-15.59-2.99-21.9-4.22-23.72-4.66-51.5-10.24-77.67-16.41-.64-.15-1.11-.7-1.15-1.36-.04-.66.34-1.27.96-1.5l1.79-.69c.17-.07.35-.1.54-.1.06,0,.11,0,.17,0,28.05,3.15,54.88,6.77,77.43,9.88,2.76.4,5.65.8,8.55,1.2l3.98.56c14.6-16.57,28.27-31.34,41.76-45.13.19-.19.42-.33.67-.4,36.92-10.19,77.58-21.24,116.9-31.93l15.3-4.16c-8.95-.1-17.93-.22-26.92-.34-24.99-.33-50.84-.67-76.18-.68h-1.53c-.41,0-.79-.17-1.08-.46-.28-.29-.43-.68-.42-1.09.24-7.98-.09-14.93-1-21.26-.51-3.74-1.26-7.4-1.84-10.16l-1.02-4.54c-39.56,16.06-80.71,31.77-119.32,46.37-.12.05-.25.08-.38.09-47,4.68-102.26,10.04-155.74,14.29-.04,0-.08,0-.12,0-.58,0-1.11-.33-1.36-.87-.27-.57-.15-1.24.29-1.69l.67-.69c.23-.24.54-.39.88-.44,54.15-7.13,106.92-13.24,151.41-18.28,22.55-8.91,42.3-16.63,60.37-23.6,25.97-10.02,53.22-20.07,78.91-29.51.17-.06.34-.09.52-.09.34,0,.69.12.96.35.41.34.61.88.52,1.41-2.68,15.64-4.97,30.85-3.79,44.81,9.94-.11,20.26-.25,30.69-.43,15.14-.27,31.19-.6,46.71-.92,23.44-.49,47.67-.99,70.2-1.3h.02c.74,0,1.38.54,1.48,1.28.11.74-.35,1.45-1.07,1.66l-17.6,5.01c-53.46,15.19-103.96,29.44-146.09,41.22-2.98,3.13-6.22,6.49-9.91,10.27-13,13.27-27.48,27.48-44.29,43.42-.28.27-.65.41-1.03.41Z"/>
    <path class="cls-2" d="M337.77,3h0M337.77,3c-2.68,15.64-5.19,31.73-3.68,46.58-.49,0-.97.01-1.46.01,0,0,1.51.47,1.51.47-.02-.16-.03-.33-.05-.49,10.63-.11,21.33-.26,32.08-.44,37.82-.67,79.34-1.7,116.9-2.22,0,0-17.6,5.01-17.6,5.01-47.01,13.36-98.86,28.01-146.48,41.33.59-.62,1.18-1.24,1.76-1.86,0,0-7.64,3.5-7.64,3.5,1.95-.54,3.91-1.09,5.87-1.64-3.34,3.51-6.74,7.03-10.18,10.55-14.06,14.36-28.97,28.89-44.25,43.38-6.46-1.22-15.59-2.99-21.89-4.22-26.55-5.21-52.81-10.55-77.61-16.39,0,0,1.79-.69,1.79-.69,26.53,2.98,52.13,6.38,77.4,9.88,4.27.62,8.87,1.24,13.33,1.87-1.64,1.87-3.28,3.73-4.91,5.6l16.67-3.91s-6.24-.9-6.24-.9c-1.8-.26-3.65-.53-5.53-.79,13.33-15.14,27.25-30.35,42.24-45.68,44.57-12.3,95.63-26.14,140.5-38.34.7-.19,1.41-.38,2.11-.57,4.94.05,9.87.09,14.78.13l2.41-4.77c-5.73,1.55-11.47,3.09-17.2,4.64-37.7-.38-75.95-1.12-113.91-1.14h-1.53c.21-7.28,0-14.47-1.01-21.52-.47-3.45-1.14-6.86-1.86-10.26l-1.41-6.28c1.19-.48,2.38-.97,3.57-1.45l7.79-3.17-12.23.72.87,3.9c-38.99,15.86-79.84,31.49-120.92,47.02-52.39,5.22-104.61,10.23-155.71,14.29,0,0,.67-.69.67-.69,51.04-6.72,101.43-12.62,151.58-18.3-1.19.47-2.37.94-3.56,1.41,0,0,8.28-1.94,8.28-1.94-1.57.18-3.15.36-4.72.53,19.97-7.89,40.25-15.84,60.54-23.67,25.59-9.87,52.41-19.78,78.89-29.5M483.08,46.91h0M337.77,0s-.09,0-.14,0c-.34.02-.66.09-.96.2-25.69,9.44-52.94,19.49-78.87,29.49-18.04,6.96-37.73,14.66-60.19,23.53-44.46,5.04-97.15,11.14-151.24,18.26-.66.09-1.28.39-1.75.87l-.67.69c-.88.89-1.11,2.24-.58,3.37.5,1.06,1.56,1.73,2.72,1.73.08,0,.16,0,.24,0,53.46-4.24,108.74-9.61,155.77-14.29.26-.03.52-.09.76-.18,38.09-14.4,78.64-29.88,117.71-45.72l.63,2.83c.58,2.71,1.31,6.32,1.82,10.01.9,6.26,1.22,13.13.98,21.02-.02.81.28,1.6.84,2.18.56.58,1.34.91,2.15.91h1.53c25.33.01,51.17.35,76.15.68,5.34.07,10.76.14,16.2.21l-4.74,1.29c-39.39,10.71-80.12,21.78-117.11,31.98-.51.14-.98.42-1.35.79-13.35,13.65-26.87,28.25-41.28,44.58-1.06-.15-2.13-.3-3.19-.44-2.9-.4-5.78-.8-8.53-1.2-22.57-3.12-49.42-6.74-77.49-9.89-.11-.01-.22-.02-.33-.02-.37,0-.73.07-1.07.2q-1.93.74-2.06.81c-1.13.56-1.78,1.78-1.64,3.03.15,1.25,1.06,2.28,2.29,2.57,26.19,6.17,53.99,11.76,77.72,16.42,5.73,1.11,15.31,2.97,21.91,4.22.19.03.37.05.56.05.76,0,1.5-.29,2.06-.82,16.81-15.95,31.31-30.17,44.33-43.46,3.58-3.66,6.74-6.93,9.64-9.98,41.97-11.74,92.32-25.95,145.69-41.11,0,0,16.38-4.66,17.54-4.99,1.29-.33,2.25-1.51,2.25-2.9,0-1.66-1.34-3-3-3h0s-.04,0-.06,0c-22.52.31-46.75.81-70.17,1.3-15.53.32-31.58.65-46.73.92-9.93.17-19.76.31-29.28.41-.9-13.37,1.3-27.93,3.86-42.91.04-.21.07-.42.07-.64,0-1.65-1.33-2.99-2.98-3,0,0-.02,0-.03,0h0ZM337.77,6h0,0Z"/>
  </g>
  <g>
    <path class="cls-1" d="M121.75,211.51c-3.82,0-6.9-.57-9.23-1.72-2.33-1.15-4.04-2.79-5.12-4.92-1.08-2.13-1.62-4.68-1.62-7.63v-25.77h-10.48v-7.28h19.83v32.48c0,2.41.47,4.27,1.41,5.57.94,1.3,2.77,1.95,5.48,1.95h8.75v7.31h-9.04Z"/>
    <path class="cls-1" d="M155.64,212.14c-3.45,0-6.5-.69-9.16-2.07-2.66-1.38-4.74-3.39-6.24-6.03-1.5-2.64-2.25-5.83-2.25-9.58s.75-7.07,2.25-9.74c1.5-2.67,3.58-4.71,6.24-6.12,2.66-1.41,5.71-2.11,9.16-2.11s6.54.7,9.23,2.11c2.68,1.41,4.79,3.45,6.31,6.12,1.52,2.67,2.29,5.92,2.29,9.74s-.76,6.94-2.29,9.58c-1.52,2.64-3.63,4.65-6.31,6.03-2.68,1.38-5.76,2.07-9.23,2.07ZM155.64,204.97c2.02,0,3.63-.47,4.85-1.42,1.22-.95,2.11-2.22,2.67-3.81s.84-3.35.84-5.27-.28-3.77-.84-5.41-1.45-2.95-2.67-3.92c-1.22-.97-2.84-1.46-4.85-1.46s-3.56.49-4.78,1.46c-1.22.97-2.1,2.28-2.65,3.92-.55,1.64-.83,3.45-.83,5.41s.28,3.68.83,5.27c.55,1.59,1.44,2.87,2.65,3.81,1.22.95,2.81,1.42,4.78,1.42Z"/>
    <path class="cls-1" d="M182.78,211.51v-34.31h9.04l.18,5.1c1.15-1.45,2.67-2.75,4.57-3.88s4.37-1.71,7.42-1.71c3.73,0,6.56,1.05,8.49,3.15s2.9,5.21,2.9,9.33v22.32h-9.39v-21.13c0-1.27-.16-2.36-.47-3.27s-.86-1.63-1.62-2.14c-.76-.52-1.81-.77-3.15-.77-1.9,0-3.56.43-4.97,1.3-1.42.87-2.62,1.92-3.6,3.16v22.85h-9.39Z"/>
    <path class="cls-1" d="M242.79,212.14c-3.84,0-7.14-.71-9.88-2.13s-4.85-3.46-6.31-6.13c-1.46-2.67-2.2-5.88-2.2-9.63s.71-6.76,2.14-9.37c1.43-2.61,3.48-4.63,6.15-6.06s5.88-2.14,9.63-2.14c5.37,0,9.62,1.48,12.76,4.43,3.14,2.95,4.71,7.24,4.71,12.87,0,.3-.01.66-.04,1.07-.02.41-.06.73-.11.97h-25.95c.05,1.71.37,3.3.98,4.76.61,1.46,1.58,2.64,2.92,3.52s3.11,1.32,5.31,1.32c2.41,0,4.34-.45,5.77-1.35,1.43-.9,2.18-2.27,2.25-4.1h8.82c-.14,2.67-.92,4.9-2.34,6.68-1.42,1.78-3.38,3.11-5.87,3.99s-5.42,1.32-8.77,1.32ZM233.9,190.45h16.66c-.12-2.51-.92-4.38-2.41-5.62-1.49-1.24-3.43-1.86-5.82-1.86s-4.38.64-5.84,1.92c-1.45,1.28-2.32,3.13-2.6,5.57Z"/>
    <path class="cls-1" d="M285.3,212.18c-2.3,0-4.46-.18-6.5-.54s-3.85-.97-5.43-1.83-2.82-2.01-3.73-3.46-1.35-3.28-1.35-5.48h8.68c0,1.9.79,3.22,2.36,3.96s3.57,1.11,6.01,1.11c2.23,0,4.09-.29,5.59-.88s2.25-1.57,2.25-2.95c0-.84-.3-1.54-.9-2.09s-1.62-1.04-3.06-1.48-3.46-.87-6.06-1.32c-2.77-.52-5.2-1.2-7.29-2.04s-3.73-1.96-4.9-3.36-1.76-3.16-1.76-5.29c0-1.83.43-3.38,1.28-4.64s2.02-2.28,3.5-3.04,3.16-1.32,5.06-1.67,3.87-.53,5.91-.53,4.12.19,6.03.56,3.61.99,5.1,1.85,2.66,1.98,3.52,3.38,1.28,3.1,1.28,5.12h-8.65c0-1.69-.69-2.9-2.06-3.64s-3.08-1.11-5.12-1.11-3.8.26-5.01.77-1.81,1.31-1.81,2.39c0,.63.28,1.2.83,1.71s1.59,1,3.11,1.48,3.74,1.01,6.64,1.6c2.93.56,5.4,1.25,7.4,2.07s3.52,1.9,4.55,3.25,1.55,3.11,1.55,5.29c0,2.55-.76,4.63-2.29,6.22s-3.57,2.76-6.13,3.5-5.43,1.11-8.6,1.11Z"/>
    <path class="cls-1" d="M337.36,211.51c-3.82,0-6.9-.57-9.23-1.72s-4.03-2.79-5.1-4.92-1.6-4.68-1.6-7.63v-12.76h-10.58v-7.28h10.58v-8.33h9.32v8.33h15.08v7.28h-15.08v12.2c0,2.41.47,4.27,1.41,5.57s2.78,1.95,5.52,1.95h8.09v7.31h-8.4Z"/>
    <path class="cls-1" d="M366.58,212.11c-2.04,0-3.96-.38-5.75-1.12s-3.25-1.88-4.38-3.39-1.69-3.42-1.69-5.71c0-3.16,1-5.54,2.99-7.14s4.81-2.68,8.46-3.27,7.94-.93,12.88-1.02v-1.79c0-2.18-.6-3.68-1.81-4.5s-2.75-1.23-4.62-1.23c-2.13,0-3.87.43-5.2,1.3s-2,2.27-2,4.22h-8.79c0-2.81.67-5.09,2.02-6.82s3.22-2.99,5.62-3.78,5.19-1.18,8.35-1.18c2.27,0,4.37.19,6.28.56s3.56,1.01,4.94,1.9,2.46,2.09,3.22,3.6,1.14,3.43,1.14,5.75v23.03h-8.75l-.32-4.5c-1.57,1.55-3.36,2.78-5.38,3.71s-4.42,1.39-7.21,1.39ZM369.5,205.64c2.11,0,3.97-.42,5.57-1.27s2.9-1.88,3.88-3.09v-5.73c-5.48.07-9.33.55-11.55,1.44s-3.32,2.31-3.32,4.25c0,1.36.47,2.43,1.41,3.22s2.27,1.18,4.01,1.18Z"/>
    <path class="cls-1" d="M399.06,184.48v-7.28h9.18l.74,7.28h-9.91ZM405.64,211.51v-34.31h9l.18,10.09c1.05-2.2,2.35-4.08,3.88-5.64s3.32-2.76,5.36-3.6,4.35-1.27,6.93-1.27h2.04v7.73h-2.18c-2.7,0-5.12.45-7.26,1.34s-3.95,2.02-5.41,3.39-2.53,2.78-3.18,4.24v18.04h-9.35Z"/>
  </g>
  <g>
    <path class="cls-2" d="M176.56,251.22c-1.43,0-2.65-.34-3.67-1.01s-1.8-1.67-2.34-3-.81-2.95-.81-4.87.29-3.58.86-4.9,1.39-2.31,2.46-2.98,2.35-1,3.85-1c1.32,0,2.47.27,3.44.81s1.74,1.27,2.31,2.18v-9.21h2.97v23.66h-2.81l-.16-2.48c-.67.82-1.51,1.49-2.51,2.01s-2.2.78-3.59.78ZM177.18,248.79c1.36,0,2.48-.29,3.36-.88s1.59-1.28,2.13-2.09v-6.7c-.5-.93-1.17-1.7-2.01-2.31s-1.9-.92-3.19-.92c-1.55,0-2.71.56-3.5,1.68s-1.18,2.72-1.18,4.79.37,3.68,1.11,4.78,1.83,1.65,3.29,1.65Z"/>
    <path class="cls-2" d="M207.42,251.22c-2.02,0-3.67-.39-4.97-1.17s-2.26-1.84-2.9-3.18-.96-2.85-.96-4.53.31-3.28.93-4.61,1.56-2.37,2.82-3.12,2.84-1.12,4.74-1.12c2.55,0,4.56.7,6.03,2.1s2.2,3.43,2.2,6.09c0,.18,0,.38-.02.61s-.03.4-.05.5h-13.68c0,1.11.2,2.14.59,3.08s1.02,1.7,1.88,2.26,2,.84,3.4.84c1.55,0,2.76-.31,3.64-.92s1.34-1.51,1.39-2.68h2.87c-.05,1.21-.39,2.25-1.04,3.12s-1.55,1.55-2.72,2.02-2.55.71-4.16.71ZM201.59,240.67h10.79c-.06-1.59-.54-2.82-1.46-3.67s-2.19-1.28-3.83-1.28-2.94.42-3.85,1.27-1.46,2.08-1.65,3.68Z"/>
    <path class="cls-2" d="M234.19,250.9l-7.29-17.12h3.13l6.21,15.47h-.84l6.26-15.47h3.02l-7.21,17.12h-3.27Z"/>
    <path class="cls-2" d="M253.78,255.05v-1.67h21.6v1.67h-21.6Z"/>
    <path class="cls-2" d="M293.29,251.2c-1.65,0-3.1-.35-4.34-1.06s-2.21-1.72-2.9-3.04-1.04-2.89-1.04-4.72.35-3.46,1.04-4.8,1.66-2.36,2.9-3.08,2.69-1.07,4.34-1.07,3.15.36,4.42,1.07,2.26,1.74,2.98,3.08,1.07,2.94,1.07,4.8-.36,3.4-1.07,4.72-1.71,2.33-2.98,3.04-2.75,1.06-4.42,1.06ZM293.29,248.83c1.23,0,2.25-.28,3.05-.83s1.4-1.32,1.79-2.29.59-2.08.59-3.32-.2-2.39-.59-3.38-.99-1.77-1.79-2.35-1.82-.86-3.05-.86-2.19.29-2.96.86-1.34,1.36-1.71,2.35-.56,2.12-.56,3.38.19,2.35.56,3.32.95,1.74,1.71,2.29,1.75.83,2.96.83Z"/>
    <path class="cls-2" d="M314.73,257.19v-23.41h2.9l.09,2.74c.61-.89,1.41-1.62,2.41-2.19s2.15-.85,3.46-.85c2.19,0,3.91.75,5.16,2.24s1.87,3.69,1.87,6.6c0,1.92-.3,3.54-.9,4.87s-1.45,2.33-2.56,3.01-2.43,1.02-3.96,1.02c-1.25,0-2.34-.24-3.27-.72s-1.68-1.13-2.25-1.95v8.65h-2.95ZM322.64,248.79c1.64,0,2.87-.56,3.7-1.68s1.24-2.73,1.24-4.83-.39-3.65-1.17-4.75-1.94-1.66-3.49-1.66c-1.28,0-2.34.33-3.19.99s-1.52,1.43-2.01,2.31v6.7c.46.86,1.09,1.56,1.9,2.1s1.82.82,3.02.82Z"/>
    <path class="cls-2" d="M351.07,251.22c-1.15,0-2.22-.11-3.22-.32s-1.87-.54-2.61-1-1.33-1.05-1.75-1.79-.63-1.63-.63-2.69h2.87c0,1.32.51,2.26,1.52,2.79s2.31.81,3.89.81c1.39,0,2.57-.21,3.52-.64s1.43-1.13,1.43-2.12c0-.56-.18-1.02-.53-1.38s-.93-.67-1.73-.93-1.9-.52-3.28-.76c-1.57-.27-2.87-.62-3.91-1.04s-1.82-.96-2.35-1.61-.79-1.46-.79-2.42c0-.76.18-1.44.54-2.02s.88-1.07,1.54-1.46,1.44-.68,2.34-.87,1.88-.29,2.94-.29,2.04.11,2.95.32,1.72.54,2.42.99,1.24,1.03,1.63,1.73.58,1.54.58,2.5h-2.87c0-1.2-.45-2.05-1.35-2.57s-2.02-.77-3.34-.77-2.41.19-3.23.58-1.22.98-1.22,1.78c0,.45.16.83.48,1.16s.89.62,1.71.89,1.97.54,3.45.82c1.58.3,2.89.67,3.91,1.09s1.79.96,2.29,1.63.76,1.51.76,2.54c0,1.16-.34,2.12-1.03,2.87s-1.63,1.3-2.83,1.66-2.58.54-4.12.54Z"/>
  </g>
</svg>