<?xml version="1.0" encoding="UTF-8"?>
<svg id="Layer_1" data-name="Layer 1" xmlns="http://www.w3.org/2000/svg" xmlns:xlink="http://www.w3.org/1999/xlink" viewBox="0 0 325.14 369.66">
  <defs>
    <style>
      .cls-1 {
        fill: url(#radial-gradient);
      }

      .cls-1, .cls-2 {
        fill-rule: evenodd;
      }

      .cls-3 {
        fill: url(#radial-gradient-2);
      }

      .cls-4, .cls-2 {
        fill: #1e4f7a;
      }

      .cls-5 {
        fill: #fff;
      }
    </style>
    <radialGradient id="radial-gradient" cx="207.5" cy="142.28" fx="207.5" fy="142.28" r="59.38" gradientUnits="userSpaceOnUse">
      <stop offset="0" stop-color="#6f3996"/>
      <stop offset="1" stop-color="#1e4f7a"/>
    </radialGradient>
    <radialGradient id="radial-gradient-2" cx="169.81" cy="310.6" fx="169.81" fy="310.6" r="27.95" xlink:href="#radial-gradient"/>
  </defs>
  <path id="Union" class="cls-1" d="M209.28,81.56c-1.03-.63-2.54-.63-3.57,0-15.59,9.45-37.88,16.17-51.15,19.67-2.83.75-4.58,3.19-4.58,5.62v27.62c0,.36,0,.73,0,1.09.24,27.08,17.61,51.81,43.01,63.54,6.54,3.02,11.48,4.37,14.5,4.37s7.96-1.35,14.5-4.37c25.4-11.73,42.77-36.45,43.01-63.54,0-.36,0-.72,0-1.09v-27.62c0-2.43-1.75-4.87-4.58-5.62-13.27-3.51-35.55-10.23-51.15-19.67Z"/>
  <path id="Union-2" data-name="Union" class="cls-2" d="M222.27,19.53c-8.96-5.6-20.58-5.6-29.55,0-25.37,15.83-64.98,27.15-82.74,31.69-7.92,2.02-14.89,8.17-16.45,17.19-1.67,9.66-3.69,26.89-3.69,53.71,0,1.11,0,2.21.01,3.3.3,48.67,26,93.57,68.29,117.85,8.66,4.97,17.5,9.52,25.77,12.84,8.11,3.26,16.34,5.62,23.58,5.62s15.46-2.36,23.58-5.62c8.26-3.32,17.1-7.86,25.77-12.84,42.3-24.28,67.99-69.18,68.29-117.85,0-1.09,0-2.19,0-3.3,0-26.82-2.02-44.05-3.69-53.71-1.56-9.02-8.53-15.17-16.45-17.19-17.76-4.54-57.37-15.86-82.74-31.69ZM194.88,61.79c7.7-4.66,17.55-4.66,25.24,0,12.79,7.75,32.47,13.86,45.66,17.34,11.52,3.04,20.15,13.42,20.15,25.84v27.62c0,.43,0,.85,0,1.27-.32,36.04-23.24,67.6-55.16,82.34-7.22,3.33-15.56,6.29-23.26,6.29s-16.04-2.96-23.26-6.29c-31.92-14.74-54.84-46.3-55.16-82.34,0-.42,0-.85,0-1.27v-27.62c0-12.42,8.63-22.8,20.15-25.84,13.18-3.48,32.87-9.59,45.65-17.34Z"/>
  <g id="Solid_Arrows_Thick_arrow_chevron-arrow-right" data-name="Solid/Arrows/Thick arrow/chevron-arrow-right">
    <g>
      <path id="Union-3" data-name="Union" class="cls-2" d="M73.15,18.11c-12.37-.88-27.89-.55-41.03.06-13.48.63-19.23,16.73-10.25,26.32,35.61,38.02,73.72,83.94,81.46,93.34.01.02.02.03.02.04,0,0,0,.01,0,.02h0s0,.02,0,.03c0,0,0,.02-.02.04-7.75,9.38-45.85,55.23-81.46,93.23-8.98,9.58-3.23,25.69,10.25,26.31,13.13.61,28.66.94,41.03.06,9.81-.7,18.72-5.07,25.97-11.37,30.97-26.91,62.31-65.28,79.78-87.89,9.33-12.07,9.33-28.73.01-40.81-17.47-22.64-48.81-61.06-79.79-87.99-7.25-6.31-16.16-10.68-25.97-11.38Z"/>
      <path id="Union-4" data-name="Union" class="cls-5" d="M55.61,17.57c6.14,0,12.14.15,17.54.54,9.81.7,18.72,5.07,25.97,11.38,30.98,26.93,62.32,65.35,79.79,87.99,9.32,12.08,9.31,28.74-.01,40.81-17.47,22.61-48.81,60.97-79.78,87.89-7.25,6.3-16.16,10.67-25.97,11.37-5.4.39-11.41.54-17.55.54-7.92,0-16.08-.26-23.48-.6-13.48-.63-19.23-16.73-10.25-26.31,35.61-38,73.71-83.85,81.46-93.23.01-.02.02-.03.02-.04,0,0,0-.02,0-.02h0s0-.02,0-.02c0,0,0-.02-.02-.04-7.75-9.39-45.85-55.32-81.46-93.34-8.98-9.58-3.23-25.69,10.25-26.32,7.4-.34,15.56-.6,23.49-.6M55.61,0c-7.29,0-15.47.21-24.3.62C18.36,1.22,7.3,9.02,2.44,20.98-2.45,33.04.14,46.98,9.05,56.49c27.39,29.24,56.4,63.37,71.48,81.38-15.08,17.99-44.1,52.07-71.47,81.28-8.91,9.51-11.51,23.45-6.61,35.51,4.86,11.96,15.92,19.77,28.86,20.37,8.83.41,17,.62,24.3.62s13.37-.2,18.8-.58c13.01-.93,25.54-6.33,36.24-15.63,30.94-26.88,61.75-64,82.16-90.41,14.17-18.33,14.17-43.94.02-62.29-20.41-26.45-51.23-63.62-82.17-90.52C99.95,6.92,87.41,1.51,74.4.58c-5.42-.39-11.75-.58-18.79-.58h0Z"/>
    </g>
  </g>
  <path class="cls-4" d="M13.11,336.05v-51.04c0-1.17.95-2.12,2.12-2.12h13.24c.66,0,1.28.31,1.69.83l21.48,28.08v-26.79c0-1.17.95-2.12,2.12-2.12h12.17c1.17,0,2.12.95,2.12,2.12v51.04c0,1.17-.95,2.12-2.12,2.12h-13.25c-.66,0-1.28-.31-1.68-.83l-21.48-27.97v26.68c0,1.17-.95,2.12-2.12,2.12h-12.17c-1.17,0-2.12-.95-2.12-2.12Z"/>
  <path class="cls-4" d="M108.81,339.49c-5.69,0-10.67-1.19-14.94-3.56s-7.61-5.69-10.01-9.96-3.61-9.17-3.61-14.72,1.17-10.76,3.5-15.21c2.33-4.45,5.67-7.95,10.01-10.51,4.34-2.55,9.36-3.83,15.05-3.83s10.4,1.19,14.55,3.56c4.16,2.37,7.4,5.63,9.74,9.79,2.33,4.16,3.5,8.94,3.5,14.34,0,.73-.02,1.55-.06,2.46-.01.26-.02.51-.04.77-.06,1.13-.99,2.02-2.12,2.02h-40.42c-1.17,0-2.12-.95-2.12-2.12v-5.39c0-1.17.95-2.12,2.12-2.12h26.11c-.22-2.99-1.35-5.43-3.39-7.33-2.04-1.9-4.63-2.85-7.77-2.85-2.41,0-4.56.55-6.46,1.64-1.9,1.09-3.38,2.75-4.43,4.98-1.06,2.23-1.59,5.02-1.59,8.37v3.17c0,2.55.47,4.83,1.42,6.84.95,2.01,2.37,3.56,4.27,4.65,1.9,1.09,4.05,1.64,6.46,1.64s4.5-.49,6.07-1.48c1.25-.79,2.29-1.73,3.1-2.82.4-.53,1.02-.85,1.69-.85h12.54c1.54,0,2.58,1.59,1.94,2.99-1.02,2.23-2.39,4.33-4.12,6.32-2.48,2.85-5.49,5.09-9.03,6.73-3.54,1.64-7.53,2.46-11.98,2.46Z"/>
  <path class="cls-3" d="M141.91,334.8l17.67-24.2-17.67-24.2c-1.02-1.4-.02-3.37,1.71-3.37h12.46c.68,0,1.33.33,1.73.89l12.06,16.84,12.06-16.84c.4-.56,1.04-.89,1.73-.89h12.35c1.74,0,2.74,1.97,1.71,3.37l-17.67,24.2,17.67,24.2c1.02,1.4.02,3.37-1.71,3.37h-12.35c-.69,0-1.33-.33-1.73-.89l-12.06-16.94-12.06,16.94c-.4.56-1.04.89-1.73.89h-12.46c-1.74,0-2.74-1.97-1.71-3.37Z"/>
  <path class="cls-4" d="M230.16,339.49c-4.6,0-8.46-.93-11.6-2.79-3.14-1.86-5.53-4.67-7.17-8.43-1.64-3.76-2.46-8.26-2.46-13.51v-29.61c0-1.17.95-2.12,2.12-2.12h12.06c1.17,0,2.12.95,2.12,2.12v27.97c0,4.16.86,7.3,2.57,9.41,1.71,2.12,4.39,3.17,8.04,3.17,2.33,0,4.38-.53,6.13-1.59,1.75-1.06,3.12-2.55,4.1-4.49.99-1.93,1.48-4.28,1.48-7.06v-27.42c0-1.17.95-2.12,2.12-2.12h12.17c1.17,0,2.12.95,2.12,2.12v50.91c0,1.17-.95,2.12-2.12,2.12h-12.21l-1.31-8.75c-1.61,2.99-3.94,5.42-7,7.28-3.06,1.86-6.78,2.79-11.16,2.79Z"/>
  <path class="cls-4" d="M301.29,339.49c-5.25,0-9.76-.84-13.51-2.52-3.76-1.68-6.71-3.92-8.86-6.73-1.62-2.11-2.71-4.44-3.28-6.99-.29-1.33.72-2.59,2.08-2.59h12.32c.87,0,1.63.55,1.98,1.35.29.66.66,1.28,1.13,1.88.77.98,1.81,1.77,3.12,2.35,1.31.58,2.88.88,4.7.88s3.21-.24,4.38-.71c1.17-.47,2.02-1.11,2.57-1.91.55-.8.82-1.64.82-2.52,0-1.38-.42-2.42-1.26-3.12-.84-.69-2.06-1.29-3.67-1.81-1.59-.5-3.51-.98-5.74-1.41-.04,0-.08-.02-.11-.02-2.61-.65-5.2-1.34-7.77-2.07-2.59-.73-4.91-1.7-6.95-2.9-2.04-1.2-3.65-2.7-4.82-4.49-1.17-1.79-1.75-4.1-1.75-6.95,0-3.28.89-6.24,2.68-8.86,1.79-2.63,4.41-4.72,7.88-6.29,3.46-1.57,7.64-2.35,12.53-2.35,6.86,0,12.27,1.53,16.25,4.6,3.26,2.51,5.43,5.74,6.51,9.68.37,1.35-.65,2.68-2.05,2.68h-11.31c-.76,0-1.49-.39-1.84-1.06-.5-.96-1.25-1.73-2.25-2.33-1.35-.8-3.16-1.2-5.42-1.2s-4.12.42-5.36,1.26c-1.24.84-1.86,1.88-1.86,3.12,0,.87.42,1.68,1.26,2.41.84.73,2.06,1.37,3.67,1.91,1.6.55,3.54,1.04,5.8,1.48,4.45.88,8.3,1.88,11.54,3.01,3.25,1.13,5.8,2.75,7.66,4.87,1.86,2.12,2.79,5.11,2.79,8.97,0,3.58-.97,6.73-2.9,9.46-1.93,2.74-4.71,4.91-8.32,6.51-3.61,1.6-7.82,2.41-12.64,2.41Z"/>
  <g>
    <path class="cls-4" d="M19.25,369.66c-1.06,0-1.98-.19-2.76-.58-.78-.38-1.39-.92-1.81-1.61-.43-.69-.64-1.48-.64-2.39h1.81c0,.56.13,1.08.39,1.55.26.47.64.85,1.14,1.13.5.28,1.12.42,1.86.42.65,0,1.2-.11,1.66-.32.46-.21.81-.5,1.05-.88.24-.37.36-.79.36-1.26,0-.56-.12-1.02-.36-1.37s-.57-.63-.98-.85c-.41-.22-.89-.42-1.43-.59-.54-.17-1.11-.35-1.7-.55-1.14-.38-1.98-.87-2.51-1.44-.54-.58-.8-1.33-.8-2.25,0-.78.18-1.47.55-2.06.36-.59.89-1.05,1.57-1.39.68-.34,1.49-.5,2.42-.5s1.72.17,2.4.52c.68.34,1.21.81,1.6,1.41.38.6.58,1.29.58,2.07h-1.81c0-.4-.1-.79-.31-1.17-.21-.38-.52-.7-.94-.96-.42-.25-.94-.38-1.58-.38-.52-.01-.99.07-1.39.26-.41.19-.72.45-.95.79-.23.34-.34.76-.34,1.26,0,.47.1.84.3,1.13.2.29.49.53.87.73.38.2.82.38,1.33.55.51.17,1.07.35,1.69.56.7.23,1.32.52,1.86.85.54.34.97.77,1.28,1.29.31.52.46,1.19.46,2,0,.69-.18,1.34-.55,1.95-.36.61-.9,1.11-1.62,1.49-.71.38-1.61.58-2.7.58Z"/>
    <path class="cls-4" d="M31.55,369.41v-14.42h8.92v1.42h-7.19v5.03h6.57v1.4h-6.57v5.15h7.19v1.42h-8.92Z"/>
    <path class="cls-4" d="M54.39,369.66c-1.4,0-2.61-.31-3.64-.94-1.02-.62-1.81-1.5-2.36-2.62s-.82-2.42-.82-3.9.27-2.78.82-3.9,1.34-1.99,2.36-2.62,2.23-.94,3.64-.94c1.65,0,2.99.39,4.02,1.17,1.03.78,1.69,1.89,1.98,3.32h-1.92c-.22-.89-.67-1.61-1.34-2.15-.67-.54-1.59-.81-2.74-.81-1.03,0-1.92.24-2.68.71-.76.47-1.34,1.15-1.75,2.04-.41.89-.62,1.95-.62,3.18s.21,2.3.62,3.18c.41.88,1,1.56,1.75,2.04.75.47,1.65.71,2.68.71,1.15,0,2.07-.26,2.74-.79.67-.53,1.12-1.23,1.34-2.11h1.92c-.29,1.39-.95,2.47-1.98,3.25-1.03.78-2.37,1.17-4.02,1.17Z"/>
    <path class="cls-4" d="M73.03,369.66c-.99,0-1.88-.2-2.69-.6-.8-.4-1.45-1-1.93-1.82-.48-.82-.72-1.86-.72-3.14v-9.1h1.73v9.12c0,.93.15,1.7.46,2.29.31.59.74,1.02,1.29,1.3.55.28,1.18.41,1.9.41s1.36-.14,1.9-.41c.54-.27.95-.71,1.26-1.3.3-.59.45-1.35.45-2.29v-9.12h1.73v9.1c0,1.28-.24,2.32-.72,3.14-.48.82-1.13,1.42-1.94,1.82-.81.4-1.72.6-2.72.6Z"/>
    <path class="cls-4" d="M86.27,369.41v-14.42h4.65c1.13,0,2.05.19,2.76.57.71.38,1.24.88,1.59,1.51s.52,1.35.52,2.14-.18,1.48-.53,2.12-.89,1.16-1.62,1.54c-.73.38-1.66.58-2.8.58h-2.84v5.95h-1.73ZM88,362.1h2.8c1.1,0,1.91-.27,2.42-.8.52-.54.77-1.22.77-2.06s-.25-1.53-.75-2.03c-.5-.5-1.32-.75-2.46-.75h-2.78v5.64ZM93.89,369.41l-3.17-6.45h1.94l3.27,6.45h-2.04Z"/>
    <path class="cls-4" d="M103.45,369.41v-14.42h1.73v14.42h-1.73Z"/>
    <path class="cls-4" d="M116.59,369.41v-13h-4.3v-1.42h10.34v1.42h-4.31v13h-1.73Z"/>
    <path class="cls-4" d="M133.28,369.41v-5.48l-4.7-8.94h1.96l3.87,7.81h-.52l3.85-7.81h1.94l-4.68,8.94v5.48h-1.73Z"/>
    <path class="cls-4" d="M163.29,369.66c-1.4,0-2.61-.31-3.64-.94-1.02-.62-1.81-1.5-2.36-2.62s-.82-2.42-.82-3.9.27-2.78.82-3.9,1.34-1.99,2.36-2.62,2.23-.94,3.64-.94c1.65,0,2.99.39,4.02,1.17,1.03.78,1.69,1.89,1.98,3.32h-1.92c-.22-.89-.67-1.61-1.34-2.15-.67-.54-1.59-.81-2.74-.81-1.03,0-1.92.24-2.68.71-.76.47-1.34,1.15-1.75,2.04-.41.89-.62,1.95-.62,3.18s.21,2.3.62,3.18c.41.88,1,1.56,1.75,2.04.75.47,1.65.71,2.68.71,1.15,0,2.07-.26,2.74-.79.67-.53,1.12-1.23,1.34-2.11h1.92c-.29,1.39-.95,2.47-1.98,3.25-1.03.78-2.37,1.17-4.02,1.17Z"/>
    <path class="cls-4" d="M183.16,369.66c-1.39,0-2.6-.31-3.65-.94-1.04-.62-1.86-1.5-2.45-2.62-.59-1.12-.89-2.42-.89-3.9s.3-2.76.89-3.88c.59-1.12,1.41-1.99,2.45-2.63,1.04-.63,2.26-.95,3.65-.95s2.63.32,3.68.95c1.05.63,1.87,1.51,2.45,2.63.58,1.12.88,2.41.88,3.88s-.29,2.78-.88,3.9c-.58,1.12-1.4,1.99-2.45,2.62-1.05.62-2.28.94-3.68.94ZM183.16,368.13c1.04,0,1.96-.24,2.75-.71.79-.47,1.4-1.15,1.83-2.04.43-.89.65-1.95.65-3.18s-.22-2.3-.65-3.18-1.04-1.56-1.83-2.03c-.79-.47-1.71-.7-2.75-.7s-1.94.23-2.72.7c-.78.47-1.39,1.14-1.83,2.03s-.66,1.95-.66,3.18.22,2.3.66,3.18c.44.88,1.05,1.56,1.83,2.04.78.47,1.69.71,2.72.71Z"/>
    <path class="cls-4" d="M197.62,369.41v-14.42h1.73l7.68,11.55v-11.55h1.73v14.42h-1.73l-7.68-11.56v11.56h-1.73Z"/>
    <path class="cls-4" d="M221.39,369.66c-1.06,0-1.98-.19-2.76-.58-.78-.38-1.39-.92-1.81-1.61-.43-.69-.64-1.48-.64-2.39h1.81c0,.56.13,1.08.39,1.55s.64.85,1.14,1.13c.5.28,1.12.42,1.86.42.65,0,1.2-.11,1.66-.32s.81-.5,1.05-.88c.24-.37.36-.79.36-1.26,0-.56-.12-1.02-.36-1.37s-.57-.63-.98-.85-.89-.42-1.43-.59c-.54-.17-1.11-.35-1.7-.55-1.14-.38-1.98-.87-2.51-1.44-.54-.58-.8-1.33-.8-2.25,0-.78.18-1.47.55-2.06.36-.59.89-1.05,1.57-1.39.68-.34,1.49-.5,2.42-.5s1.72.17,2.4.52c.68.34,1.21.81,1.6,1.41.38.6.58,1.29.58,2.07h-1.81c0-.4-.1-.79-.31-1.17-.21-.38-.52-.7-.94-.96-.42-.25-.94-.38-1.58-.38-.52-.01-.99.07-1.39.26-.41.19-.72.45-.95.79-.23.34-.34.76-.34,1.26,0,.47.1.84.3,1.13.2.29.49.53.87.73.38.2.82.38,1.33.55.51.17,1.07.35,1.69.56.7.23,1.32.52,1.86.85.54.34.97.77,1.28,1.29.31.52.46,1.19.46,2,0,.69-.18,1.34-.55,1.95-.36.61-.9,1.11-1.62,1.49-.71.38-1.61.58-2.7.58Z"/>
    <path class="cls-4" d="M238.88,369.66c-.99,0-1.88-.2-2.69-.6-.8-.4-1.45-1-1.93-1.82-.48-.82-.72-1.86-.72-3.14v-9.1h1.73v9.12c0,.93.15,1.7.46,2.29.31.59.74,1.02,1.29,1.3.55.28,1.18.41,1.89.41s1.36-.14,1.9-.41c.54-.27.95-.71,1.26-1.3.3-.59.45-1.35.45-2.29v-9.12h1.73v9.1c0,1.28-.24,2.32-.72,3.14s-1.13,1.42-1.94,1.82c-.81.4-1.72.6-2.72.6Z"/>
    <path class="cls-4" d="M252.12,369.41v-14.42h1.73v13.04h6.71v1.38h-8.45Z"/>
    <path class="cls-4" d="M269.01,369.41v-13h-4.3v-1.42h10.34v1.42h-4.3v13h-1.73Z"/>
    <path class="cls-4" d="M282.13,369.41v-14.42h1.73v14.42h-1.73Z"/>
    <path class="cls-4" d="M291.9,369.41v-14.42h1.73l7.68,11.55v-11.55h1.73v14.42h-1.73l-7.68-11.56v11.56h-1.73Z"/>
    <path class="cls-4" d="M317.27,369.66c-1.35,0-2.53-.31-3.54-.94-1.02-.62-1.81-1.49-2.37-2.61s-.84-2.41-.84-3.89.29-2.77.86-3.89c.57-1.12,1.38-2,2.43-2.64,1.05-.63,2.29-.95,3.72-.95,1.62,0,2.97.39,4.06,1.16,1.08.78,1.78,1.86,2.08,3.24h-2c-.19-.87-.65-1.55-1.36-2.06s-1.64-.76-2.78-.76c-1.06,0-1.98.24-2.77.71-.79.47-1.4,1.15-1.82,2.03s-.64,1.93-.64,3.15.21,2.28.64,3.16c.43.88,1.02,1.56,1.78,2.03.76.47,1.64.7,2.63.7,1.54,0,2.7-.45,3.48-1.36.78-.91,1.23-2.13,1.34-3.69h-4.16v-1.36h5.93v7.7h-1.59l-.14-2.37c-.34.56-.74,1.04-1.18,1.43-.45.39-.97.69-1.58.89-.6.2-1.33.3-2.16.3Z"/>
  </g>
</svg>