<svg xmlns="http://www.w3.org/2000/svg" viewBox="0 0 450 115" width="450" height="115">
  <!-- Left border -->
  <rect x="0" y="0" width="4" height="115" fill="#E63946"/>
  
  <!-- exam block -->
  <rect x="4" y="0" width="140" height="70" fill="#E63946"/>
  
  <!-- Number block -->
  <rect x="144" y="0" width="60" height="70" fill="#000000"/>
  
  <!-- Subtitle bar -->
  <rect x="4" y="70" width="446" height="45" fill="#FEC618"/>
  
  <!-- exam text (lowercase) -->
  <g fill="#FFFFFF">
    <path d="M567 -21Q417 -21 306.0 47.5Q195 116 134.5 238.0Q74 360 74 520V564Q74 718 137.5 839.5Q201 961 306.5 1031.5Q412 1102 537 1102Q683 1102 781.5 1042.0Q880 982 930.0 873.5Q980 765 980 618V495H278L275 490Q277 386 311.5 305.5Q346 225 411.0 179.0Q476 133 567 133Q667 133 742.5 161.5Q818 190 873 240L950 112Q892 56 796.5 17.5Q701 -21 567 -21ZM284 649H783V675Q783 753 755.5 814.5Q728 876 673.5 911.5Q619 947 537 947Q471 947 417.0 908.5Q363 870 328.0 804.0Q293 738 282 654Z" transform="translate(24.00, 52.00) scale(0.018555, -0.018555)"/>
    <path d="M42 0V126L162 149L485 547L169 932L62 955V1082H486V955L378 943L600 667L816 944L700 955V1082H1117V955L1007 932L714 550L1051 149L1163 126V0H704V126L834 137L597 426L367 137L484 126V0Z" transform="translate(43.65, 52.00) scale(0.018555, -0.018555)"/>
    <path d="M424 -21Q255 -21 167.0 61.5Q79 144 79 294Q79 448 205.0 541.5Q331 635 555 635H748V741Q748 839 688.5 893.0Q629 947 521 947Q453 947 403.0 930.5Q353 914 312 885L291 734H139V982Q212 1041 309.0 1071.5Q406 1102 524 1102Q721 1102 833.0 1008.0Q945 914 945 739V218Q945 197 945.5 177.0Q946 157 948 137L1053 126V0H770Q761 44 756.0 79.0Q751 114 749 149Q692 76 606.5 27.5Q521 -21 424 -21ZM453 144Q551 144 632.0 191.0Q713 238 748 304V500H548Q412 500 344.0 435.0Q276 370 276 290Q276 219 320.0 181.5Q364 144 453 144Z" transform="translate(65.97, 52.00) scale(0.018555, -0.018555)"/>
    <path d="M74 0V126L237 154V927L74 955V1082H414L427 941Q479 1018 561.0 1060.0Q643 1102 751 1102Q859 1102 936.5 1052.0Q1014 1002 1053 902Q1104 994 1188.0 1048.0Q1272 1102 1384 1102Q1550 1102 1646.0 988.5Q1742 875 1742 647V154L1905 126V0H1381V126L1544 154V649Q1544 809 1489.0 875.5Q1434 942 1326 942Q1223 942 1160.5 869.5Q1098 797 1088 687V154L1251 126V0H728V126L891 154V649Q891 801 834.5 871.5Q778 942 671 942Q581 942 523.0 905.0Q465 868 434 801V154L597 126V0Z" transform="translate(86.97, 52.00) scale(0.018555, -0.018555)"/>
  </g>

  <!-- Number text -->
  <g fill="#FFFFFF">
    <path d="M522 -21Q399 -21 301.5 24.0Q204 69 149.0 158.0Q94 247 97 377L99 383H277Q277 265 345.5 199.0Q414 133 522 133Q647 133 716.0 221.0Q785 309 785 462Q785 603 715.5 692.5Q646 782 523 782Q407 782 354.5 747.0Q302 712 278 640L114 657L198 1456H967V1168H819L800 1281H365L318 872Q348 895 383.0 912.5Q418 930 459.5 941.0Q501 952 550 953Q684 955 781.0 895.0Q878 835 930.0 724.5Q982 614 982 464Q982 318 929.5 209.0Q877 100 774.5 39.5Q672 -21 522 -21Z" transform="translate(163.63, 52.00) scale(0.018555, -0.018555)"/>
  </g>

  <!-- Subtitle text (generic sans-serif) -->
  <text x="18" y="98" font-family="Helvetica, Arial, sans-serif" font-size="13" font-weight="500" fill="#000000">Chapters 10, 20  •  Infrastructure Security  •  Risk Management</text>
</svg>